<?xml version="1.0" encoding="UTF-8"?>
<!-- Generator: Adobe Illustrator 25.3.1, SVG Export Plug-In . SVG Version: 6.00 Build 0)  -->
<svg xmlns="http://www.w3.org/2000/svg" xmlns:xlink="http://www.w3.org/1999/xlink" version="1.1" id="Capa_1" x="0px" y="0px" viewBox="0 0 512 512" style="enable-background:new 0 0 512 512;" xml:space="preserve" width="512" height="512">
<g>
	<g>
		<path style="fill:#50C6EF;" d="M475.836,411.78c-2.755,8.448-36.64,4.974-75.691-7.752    c-39.054-12.738-68.479-29.896-65.724-38.348c2.753-8.442,36.642-4.961,75.691,7.759    C449.161,386.172,478.59,403.335,475.836,411.78z"/>
	</g>
	<g>
		<path style="fill:#70BA22;" d="M401.309,372.884c0,0,9.774-53.861-15.81-71.333c0,0-1.661,26.198-6.031,27.241    c-4.367,1.042,2.29-27.241,2.29-27.241s-32.863,37.228-39.102,33.275c-6.238-3.953,33.695-36.398,33.695-36.398    s-35.983,11.859-37.228,7.696c-1.25-4.163,34.939-10.605,34.939-10.605s-41.178-20.175-38.891-29.949    c2.286-9.776,41.18,18.717,41.18,18.717s-24.337-35.358-16.638-40.143c7.693-4.78,22.25,27.667,22.25,27.667    s1.455-29.042,4.368-28.144c2.913,0.898,1.871,26.686,1.871,26.686s15.186-32.865,24.129-28.493    c8.939,4.365-17.885,42.427-17.885,42.427s25.789-19.136,29.321-15.183c3.536,3.951-29.531,19.757-29.531,19.757    s32.444-7.071,35.981,2.704c3.536,9.772-39.725,7.283-39.725,7.283s29.743,23.085,25.789,76.327L401.309,372.884z"/>
	</g>
	<g>
		<path style="fill:#70BA22;" d="M419.818,375.174c0,0,4.576-26.415,32.964-38.066c0,0-19.239-2.284-19.239-5.4    c0-3.124,19.239,2.497,19.239,2.497s-19.859-39.105-13.83-42.017c6.032-2.91,18.303,33.276,18.303,33.276    s-2.083-68.423,9.769-66.966c11.862,1.454-2.284,62.181-2.284,62.181s21.007-44.92,26.623-41.385    c5.613,3.537-18.303,42.844-18.303,42.844s22.252-19.553,25.999-17.26c3.741,2.287-24.335,21.419-24.335,21.419    s33.069-11.855,37.022-4.365c3.949,7.485-39.307,12.475-39.307,12.475s29.322,11.651,27.867,22.875    c-1.454,11.23-39.099-19.965-39.099-19.965s9.198,20.178,4.701,21.011c-4.493,0.826-9.693-20.592-9.693-20.592    s-21.421,15.806-27.246,42.012L419.818,375.174z"/>
	</g>
	<g>
		<path style="fill:#FFB115;" d="M452.782,397.423c0,0-56.466,17.47-86.726-29.638C366.056,367.785,416.904,348.133,452.782,397.423    z"/>
	</g>
	<g>
		<path style="fill:#50C6EF;" d="M349.423,389.273c-17.283-9.796-25.588-17.73-24.689-23.577c0.714-4.672,6.923-6.05,7.186-6.108    l0.262,1.22c-0.059,0.011-5.633,1.263-6.216,5.078c-0.557,3.641,3.172,10.461,24.069,22.303L349.423,389.273z"/>
	</g>
	<g>
		<path style="fill:#50C6EF;" d="M462.93,422.619c-8.468,0-19.83-1.404-33.875-4.201l0.242-1.221    c37.634,7.499,47.128,3.257,49.433,0.058c1.622-2.246,0.293-4.648,0.233-4.748l1.087-0.627c0.072,0.134,1.787,3.185-0.294,6.089    C477.535,421.065,471.836,422.619,462.93,422.619z"/>
	</g>
	<g>
		<path style="fill:#50C6EF;" d="M369.077,399.672c-36.451-12.426-46.398-21.988-48.324-27.813    c-0.899-2.719,0.134-4.262,0.179-4.323l1.029,0.699c-0.029,0.051-0.735,1.18,0.012,3.333c1.577,4.546,9.843,14.085,47.506,26.924    L369.077,399.672z"/>
	</g>
	<g>
		<path style="fill:#50C6EF;" d="M460.133,425.748c-23.295,0-53.636-9.75-55.2-10.258l0.387-1.187    c0.465,0.152,46.788,15.049,68.812,8.522l0.353,1.192C470.342,425.251,465.414,425.748,460.133,425.748z"/>
	</g>
	<g>
		<g>
			<g>
				<path style="fill:#000F47;" d="M407.912,141.085c1.344,10.283-8,19.983-20.872,21.663c-12.87,1.68-24.391-5.297-25.732-15.584      c-1.341-10.28,8.003-19.985,20.875-21.663C395.055,123.823,406.573,130.8,407.912,141.085z"/>
			</g>
			<g>
				<path style="fill:#FFFFFF;" d="M390.812,158.021c-7.413,0-13.718-5.498-14.669-12.789c-1.049-8.041,4.703-15.447,12.822-16.507      c0.649-0.085,1.305-0.123,1.954-0.123c7.413,0,13.719,5.5,14.67,12.786c0.509,3.895-0.546,7.76-2.965,10.88      c-2.424,3.113-5.922,5.116-9.856,5.628C392.122,157.979,391.461,158.021,390.812,158.021z M390.919,129.198      c-0.624,0-1.254,0.041-1.879,0.125c-7.789,1.013-13.307,8.119-12.302,15.83c0.913,6.992,6.964,12.273,14.074,12.273      c0.624,0,1.255-0.042,1.878-0.128c3.777-0.49,7.136-2.41,9.457-5.396c2.324-2.994,3.333-6.695,2.847-10.433      C404.081,134.471,398.031,129.198,390.919,129.198z"/>
			</g>
			<g>
				<polygon style="fill:#FFFFFF;" points="381.037,153.128 380.199,152.201 401.283,133.207 402.117,134.13     "/>
			</g>
			<g>
				
					<rect x="389.595" y="124.917" transform="matrix(0.7919 -0.6107 0.6107 0.7919 -5.0838 267.7182)" style="fill:#FFFFFF;" width="1.246" height="32.8"/>
			</g>
			<g>
				<polygon style="fill:#FFFFFF;" points="391.488,157.788 390.247,157.647 393.395,129.163 394.635,129.308     "/>
			</g>
			<g>
				
					<rect x="389.877" y="127.548" transform="matrix(0.3418 -0.9398 0.9398 0.3418 122.9861 460.8683)" style="fill:#FFFFFF;" width="1.246" height="30.176"/>
			</g>
			<g>
				<path style="fill:#FFFFFF;" d="M398.297,142.787c0,2.181-2.772,3.949-6.189,3.949c-3.417,0-6.189-1.769-6.189-3.949      c0-2.184,2.772-3.951,6.189-3.951C395.525,138.836,398.297,140.603,398.297,142.787z"/>
			</g>
			<g>
				<path style="fill:#000F47;" d="M372.725,178.456c0,14.589-13.337,26.411-29.793,26.411c-16.453,0-29.791-11.823-29.791-26.411      c0-14.589,13.338-26.411,29.791-26.411C359.387,152.044,372.725,163.867,372.725,178.456z"/>
			</g>
			<g>
				<path style="fill:#FFFFFF;" d="M348.607,198.439c-11.029,0-20.003-8.966-20.003-19.983c0-11.021,8.974-19.987,20.003-19.987      c11.03,0,20.006,8.966,20.006,19.987C368.613,189.472,359.637,198.439,348.607,198.439z M348.607,159.339      c-10.549,0-19.131,8.58-19.131,19.116c0,10.54,8.582,19.112,19.131,19.112c10.55,0,19.133-8.573,19.133-19.112      C367.74,167.919,359.157,159.339,348.607,159.339z"/>
			</g>
			<g>
				
					<rect x="329.75" y="177.917" transform="matrix(0.1956 -0.9807 0.9807 0.1956 105.9091 486.2057)" style="fill:#FFFFFF;" width="39.191" height="1.247"/>
			</g>
			<g>
				
					<rect x="347.776" y="155.549" transform="matrix(0.2568 -0.9665 0.9665 0.2568 88.8308 467.5368)" style="fill:#FFFFFF;" width="1.248" height="40.927"/>
			</g>
			<g>
				<polygon style="fill:#FFFFFF;" points="334.223,191.722 333.411,190.771 363.101,165.31 363.914,166.262     "/>
			</g>
			<g>
				<polygon style="fill:#FFFFFF;" points="356.221,195.832 343.535,162.245 344.702,161.802 357.387,195.393     "/>
			</g>
			<g>
				<path style="fill:#FFFFFF;" d="M356.804,177.933c0,2.184-2.77,3.951-6.188,3.951c-3.415,0-6.189-1.767-6.189-3.951      c0-2.182,2.774-3.949,6.189-3.949C354.034,173.984,356.804,175.751,356.804,177.933z"/>
			</g>
			<g>
				<path style="fill:#000F47;" d="M261.029,158.59l50.227,35.882c0,0,62.706-40.247,93.277-84.234      C435.108,66.251,334.03,93.392,261.029,158.59z"/>
			</g>
			<g>
				<path style="fill:#FF4C4C;" d="M263.448,158.041l48.598,34.713c0,0,60.673-38.937,90.252-81.501      C431.881,68.693,334.081,94.953,263.448,158.041z"/>
			</g>
		</g>
		<g>
			<path style="fill:#FF4C4C;" d="M239.716,298.45c-85.279,4.17-102.748-54.904-102.748-54.904l-28.264,2.629     c-47.858-37.567-37.038-109.948-37.038-109.948s-47.831,26.209-49.915,10.824c-2.083-15.387,113.143-69.883,114.805-59.491     c1.658,10.41-28.702,26.632-28.702,26.632c39.93,74.036,150.156-12.067,150.156-12.067s46.907,11.479,58.875,62.118     C384.032,158.116,322.187,294.44,239.716,298.45z"/>
		</g>
		<g>
			<g>
				<path style="fill:#000F47;" d="M100.992,311.977c0,11.945-11.315,21.629-25.269,21.629c-13.957,0-25.27-9.684-25.27-21.629      c0-11.949,11.313-21.633,25.27-21.633C89.677,290.344,100.992,300.028,100.992,311.977z"/>
			</g>
			<g>
				<path style="fill:#FFFFFF;" d="M83.801,328.276c-8.287,0-15.03-7.245-15.03-16.151c0-8.905,6.743-16.157,15.03-16.157      c8.288,0,15.031,7.252,15.031,16.157C98.832,321.031,92.089,328.276,83.801,328.276z M83.801,296.774      c-7.846,0-14.23,6.885-14.23,15.351c0,8.468,6.384,15.356,14.23,15.356c7.847,0,14.23-6.889,14.23-15.356      C98.031,303.659,91.648,296.774,83.801,296.774z"/>
			</g>
			<g>
				
					<rect x="71.397" y="313.119" transform="matrix(0.3617 -0.9323 0.9323 0.3617 -238.0272 279.8136)" style="fill:#FFFFFF;" width="27.888" height="1.249"/>
			</g>
			<g>
				
					<rect x="82.379" y="297.965" transform="matrix(0.3364 -0.9417 0.9417 0.3364 -239.3522 285.655)" style="fill:#FFFFFF;" width="1.246" height="29.374"/>
			</g>
			<g>
				<polygon style="fill:#FFFFFF;" points="72.273,321.156 71.685,320.058 97.32,306.385 97.909,307.485     "/>
			</g>
			<g>
				<polygon style="fill:#FFFFFF;" points="86.335,326.827 82.384,297.919 83.62,297.748 87.572,326.656     "/>
			</g>
			<g>
				<path style="fill:#000F47;" d="M167.167,290.344c0,15.304-14.086,27.708-31.461,27.708c-17.375,0-31.461-12.404-31.461-27.708      c0-15.298,14.086-27.703,31.461-27.703C153.08,262.641,167.167,275.045,167.167,290.344z"/>
			</g>
			<g>
				<path style="fill:#FFFFFF;" d="M144.293,312.519c-9.212,0-17.531-6.09-20.698-15.152c-4.053-11.595,1.666-24.182,12.751-28.053      c2.181-0.761,4.452-1.149,6.752-1.149c9.214,0,17.531,6.09,20.699,15.156c4.052,11.59-1.668,24.182-12.751,28.05      C148.865,312.134,146.594,312.519,144.293,312.519z M143.098,269.569c-2.141,0-4.257,0.361-6.287,1.07      c-10.351,3.622-15.685,15.403-11.888,26.265c2.969,8.5,10.755,14.209,19.37,14.209c2.143,0,4.257-0.363,6.288-1.069      c10.351-3.622,15.682-15.4,11.887-26.261C159.496,275.282,151.712,269.569,143.098,269.569z"/>
			</g>
			<g>
				<polygon style="fill:#FFFFFF;" points="124.303,299.242 123.852,298.084 162.907,282.966 163.357,284.133     "/>
			</g>
			<g>
				
					<rect x="141.81" y="268.311" transform="matrix(0.4185 -0.9082 0.9082 0.4185 -180.9834 298.2709)" style="fill:#FFFFFF;" width="1.248" height="44.317"/>
			</g>
			<g>
				<polygon style="fill:#FFFFFF;" points="141.425,311.624 140.197,311.389 148.214,268.751 149.439,268.988     "/>
			</g>
			<g>
				
					<rect x="143.471" y="268.408" transform="matrix(0.9554 -0.2953 0.2953 0.9554 -79.0321 55.465)" style="fill:#FFFFFF;" width="1.247" height="41.902"/>
			</g>
			<g>
				<path style="fill:#FF4C4C;" d="M115.341,230.965l97.648,3.124c0,0-171.582,110.749-210.579,87.972      C-19.515,309.258,115.341,230.965,115.341,230.965z"/>
			</g>
			<g>
				<path style="fill:#000F47;" d="M115.341,230.965c0,0-134.856,78.293-112.931,91.096      c38.996,22.776,210.579-87.972,210.579-87.972s-117.613,69.36-162.224,81.734C17.618,325.019-59.048,342.653,115.341,230.965z"/>
			</g>
			<g>
				<path style="fill:#FFFFFF;" d="M92.362,314.074c0,2.199-3.05,3.978-6.812,3.978c-3.762,0-6.812-1.78-6.812-3.978      c0-2.19,3.049-3.969,6.812-3.969C89.311,310.105,92.362,311.885,92.362,314.074z"/>
			</g>
			<g>
				<path style="fill:#FFFFFF;" d="M151.629,291.106c0,2.197-3.047,3.976-6.809,3.976c-3.761,0-6.813-1.78-6.813-3.976      c0-2.199,3.051-3.975,6.813-3.975C148.582,287.132,151.629,288.908,151.629,291.106z"/>
			</g>
		</g>
		<g>
			<path style="fill:#000F47;" d="M266.009,292.7c-19.716-39.945-8.997-116.212,43.588-127.342c2.584-0.551,4.816-1.684,7.101-1.883     C376.471,158.024,337.931,265.127,266.009,292.7z"/>
		</g>
		<g>
			<g>
				<g>
					<path style="fill:#000F47;" d="M316.698,160.308c-14.641,1.512-62.667,9.904-92.013,46.794c0,0-39.618-73.624,72.517-81.318       C304.875,134.092,312.47,146.205,316.698,160.308z"/>
				</g>
				<g>
					<path style="fill:#50C6EF;" d="M315.451,158.929c-14.262,1.47-61.396,8.959-89.984,44.895c0,0-31.232-70.278,71.626-77.342       C304.567,134.581,311.332,145.19,315.451,158.929z"/>
				</g>
			</g>
			<g style="opacity:0.3;">
				<path style="fill:#FFFFFF;" d="M264.774,133.165c0,0-52.409,8.583-38.995,67.23L264.774,133.165z"/>
			</g>
		</g>
		<g>
			<g>
				<path style="fill:#000F47;" d="M124.231,194.094c-2.407,9.765-7.645,16.868-11.703,15.871      c-4.057-0.997-5.396-9.723-2.992-19.488c2.407-9.769,7.645-16.874,11.701-15.875      C125.296,175.603,126.636,184.325,124.231,194.094z"/>
			</g>
			<g>
				<path style="fill:#50C6EF;" d="M122.948,193.778c-1.986,8.061-6.311,13.927-9.659,13.102c-3.351-0.826-4.458-8.027-2.473-16.092      c1.987-8.056,6.314-13.92,9.661-13.1C123.828,178.513,124.934,185.715,122.948,193.778z"/>
			</g>
			<g style="opacity:0.3;">
				<path style="fill:#FFFFFF;" d="M116.382,181.678l2.392,19.965C118.774,201.644,125.845,170.447,116.382,181.678z"/>
			</g>
		</g>
		<g>
			<g>
				<path style="fill:#000F47;" d="M147.598,194.094c-2.404,9.765-7.643,16.868-11.702,15.871      c-4.056-0.997-5.397-9.723-2.991-19.488c2.406-9.769,7.642-16.874,11.701-15.875      C148.666,175.603,150.004,184.325,147.598,194.094z"/>
			</g>
			<g>
				<path style="fill:#50C6EF;" d="M146.317,193.953c-1.986,8.061-6.31,13.924-9.66,13.105c-3.349-0.827-4.456-8.027-2.47-16.095      c1.985-8.061,6.309-13.927,9.66-13.098C147.195,178.685,148.302,185.892,146.317,193.953z"/>
			</g>
			<g style="opacity:0.3;">
				<path style="fill:#FFFFFF;" d="M140.252,181.259l2.392,19.967C142.644,201.226,149.715,170.031,140.252,181.259z"/>
			</g>
		</g>
		<g>
			<g>
				<path style="fill:#000F47;" d="M170.659,194.094c-2.406,9.765-7.644,16.868-11.702,15.871      c-4.058-0.997-5.398-9.723-2.992-19.488c2.406-9.769,7.644-16.874,11.701-15.875      C171.725,175.603,173.063,184.325,170.659,194.094z"/>
			</g>
			<g>
				<path style="fill:#50C6EF;" d="M169.377,193.778c-1.985,8.061-6.311,13.927-9.66,13.102c-3.35-0.826-4.456-8.027-2.469-16.092      c1.985-8.056,6.311-13.92,9.659-13.1C170.257,178.513,171.363,185.715,169.377,193.778z"/>
			</g>
			<g style="opacity:0.3;">
				<path style="fill:#FFFFFF;" d="M163.311,181.678l2.393,19.965C165.704,201.644,172.775,170.447,163.311,181.678z"/>
			</g>
		</g>
		<g>
			<path style="fill:#000F47;" d="M317.088,185.453c0.16-38.83-22.205-71.234-59.078-83.327     c38.435,10.747,62.385,43.384,64.062,83.056L317.088,185.453z"/>
		</g>
	</g>
</g>















</svg>
