<svg width="961" height="257" viewBox="0 0 961 257" fill="none" xmlns="http://www.w3.org/2000/svg">
<path d="M1.40181 121.241C595.741 48.5225 450.74 148.207 533.91 222.037C617.079 295.866 958.649 153.917 958.649 153.917" stroke="#4F5D74" stroke-width="12" stroke-dasharray="40 40"/>
<mask id="mask0_195_175" style="mask-type:alpha" maskUnits="userSpaceOnUse" x="291" y="0" width="96" height="96">
<rect x="-0.5" y="0.5" width="95" height="95" transform="matrix(-1 0 0 1 386 0)" fill="#D9D9D9" stroke="#FF9E01"/>
</mask>
<g mask="url(#mask0_195_175)">
<path d="M335.013 51.205V75.9875H342.987V56H342.981L342.992 55.9906L355.792 44.7908C355.792 44.7908 355.792 44.7907 355.792 44.7907C356.59 44.0586 357.189 43.2101 357.588 42.2452C357.988 41.2801 358.187 40.2651 358.187 39.2C358.187 38.1351 357.971 37.1202 357.539 36.1551C357.106 35.1898 356.523 34.3411 355.791 33.6088L344.591 22.4088C343.792 21.61 342.877 21.011 341.845 20.6117C340.814 20.2122 339.732 20.0125 338.6 20.0125C337.468 20.0125 336.386 20.2122 335.355 20.6117C334.323 21.011 333.408 21.61 332.609 22.4088L325.009 30.0088C323.141 31.8766 321.006 33.3441 318.605 34.4114C316.207 35.4771 313.676 36.0108 311.012 36.0125V43.9875C314.806 43.9859 318.417 43.2529 321.845 41.7885C325.277 40.3225 328.326 38.2567 330.991 35.5912L334.191 32.3912L334.2 32.3823L334.209 32.3912L343.809 41.9912L343.817 41.9998L343.809 42.0086L335.013 51.205ZM367 87.9875C372.53 87.9875 377.244 86.0388 381.141 82.1412C385.039 78.2435 386.987 73.53 386.987 68C386.987 62.47 385.039 57.7565 381.141 53.8588C377.244 49.9612 372.53 48.0125 367 48.0125C361.47 48.0125 356.756 49.9612 352.859 53.8588C348.961 57.7565 347.013 62.47 347.013 68C347.013 73.53 348.961 78.2435 352.859 82.1412C356.756 86.0388 361.47 87.9875 367 87.9875ZM367 80.0125C363.663 80.0125 360.827 78.8445 358.491 76.5088C356.155 74.1731 354.987 71.3366 354.987 68C354.987 64.6634 356.155 61.8269 358.491 59.4912C360.827 57.1555 363.663 55.9875 367 55.9875C370.337 55.9875 373.173 57.1555 375.509 59.4912C377.845 61.8269 379.012 64.6634 379.012 68C379.012 71.3366 377.845 74.1731 375.509 76.5088C373.173 78.8445 370.337 80.0125 367 80.0125ZM325 21.9875C327.197 21.9875 329.077 21.2055 330.641 19.6412C332.206 18.0768 332.987 16.1967 332.987 14C332.987 11.8033 332.206 9.92318 330.641 8.35884C329.077 6.7945 327.197 6.0125 325 6.0125C322.803 6.0125 320.923 6.7945 319.359 8.35884C317.794 9.92318 317.012 11.8033 317.012 14C317.012 16.1967 317.794 18.0768 319.359 19.6412C320.923 21.2055 322.803 21.9875 325 21.9875ZM311 87.9875C316.53 87.9875 321.244 86.0388 325.141 82.1412C329.039 78.2435 330.987 73.53 330.987 68C330.987 62.47 329.039 57.7565 325.141 53.8588C321.244 49.9612 316.53 48.0125 311 48.0125C305.47 48.0125 300.756 49.9612 296.859 53.8588C292.961 57.7565 291.012 62.47 291.012 68C291.012 73.53 292.961 78.2435 296.859 82.1412C300.756 86.0388 305.47 87.9875 311 87.9875ZM311 80.0125C307.663 80.0125 304.827 78.8445 302.491 76.5088C300.155 74.1731 298.988 71.3366 298.988 68C298.988 64.6634 300.155 61.8269 302.491 59.4912C304.827 57.1555 307.663 55.9875 311 55.9875C314.337 55.9875 317.173 57.1555 319.509 59.4912C321.845 61.8269 323.013 64.6634 323.013 68C323.013 71.3366 321.845 74.1731 319.509 76.5088C317.173 78.8445 314.337 80.0125 311 80.0125Z" fill="#4F5D74" stroke="#4F5D74" stroke-width="0.025"/>
</g>
</svg>
