<svg width="779" height="997" viewBox="0 0 779 997" fill="none" xmlns="http://www.w3.org/2000/svg">
<g filter="url(#filter0_dd_38_904)">
<path d="M18 70.0003C18 36.8632 44.8629 10.0002 78 10.0002H780V971H78C44.8629 971 18 944.137 18 911V70.0003Z" fill="#FAFAFA"/>
</g>
<mask id="mask0_38_904" style="mask-type:alpha" maskUnits="userSpaceOnUse" x="616" y="336" width="128" height="128">
<rect x="744" y="336" width="128" height="128" transform="rotate(90 744 336)" fill="#D9D9D9"/>
</mask>
<g mask="url(#mask0_38_904)">
<path d="M626.667 373.334H640L651.2 389.334H670.4L653.333 346.667H669.333L699.2 389.334H722.667C725.6 389.334 728.111 390.379 730.2 392.467C732.289 394.556 733.333 397.067 733.333 400.001C733.333 402.934 732.289 405.445 730.2 407.534C728.111 409.623 725.6 410.667 722.667 410.667H699.2L669.333 453.334H653.333L670.4 410.667H651.2L640 426.667H626.667L634.667 400.001L626.667 373.334Z" fill="#0A0A0A"/>
</g>
<path d="M328.9 465.16C323.02 465.16 317.26 464.38 311.62 462.82C305.98 461.14 300.82 458.86 296.14 455.98C291.58 453.1 287.8 449.86 284.8 446.26C281.8 442.54 280 438.64 279.4 434.56L312.52 425.38C313.6 428.38 315.46 430.96 318.1 433.12C320.74 435.16 324.16 436.3 328.36 436.54C331.72 436.66 334.66 435.76 337.18 433.84C339.82 431.92 341.14 429.4 341.14 426.28C341.14 424.24 340.36 422.32 338.8 420.52C337.36 418.6 335.02 417.22 331.78 416.38L312.88 411.52C306.4 409.84 300.82 407.26 296.14 403.78C291.58 400.3 288.04 396.04 285.52 391C283.12 385.96 281.92 380.32 281.92 374.08C281.92 361.72 286 352.12 294.16 345.28C302.44 338.32 314.02 334.84 328.9 334.84C336.82 334.84 343.78 335.86 349.78 337.9C355.9 339.94 361.12 343.18 365.44 347.62C369.88 351.94 373.54 357.64 376.42 364.72L343.48 374.26C342.88 371.86 341.32 369.46 338.8 367.06C336.4 364.66 333.1 363.46 328.9 363.46C324.82 363.46 321.64 364.36 319.36 366.16C317.2 367.96 316.12 370.6 316.12 374.08C316.12 376.24 317.02 378.16 318.82 379.84C320.62 381.4 323.2 382.6 326.56 383.44L345.64 388.3C355.24 390.7 362.74 395.44 368.14 402.52C373.54 409.48 376.24 417.46 376.24 426.46C376.24 434.74 374.32 441.76 370.48 447.52C366.76 453.28 361.36 457.66 354.28 460.66C347.2 463.66 338.74 465.16 328.9 465.16ZM452.67 465.16C439.71 465.16 428.25 462.4 418.29 456.88C408.33 451.24 400.53 443.56 394.89 433.84C389.25 424 386.43 412.72 386.43 400C386.43 387.28 389.25 376.06 394.89 366.34C400.53 356.5 408.33 348.82 418.29 343.3C428.25 337.66 439.71 334.84 452.67 334.84C461.19 334.84 468.69 336.04 475.17 338.44C481.77 340.84 487.47 344.14 492.27 348.34C497.07 352.42 501.15 357.16 504.51 362.56L476.79 378.94C475.11 376.3 472.95 373.96 470.31 371.92C467.79 369.88 464.97 368.32 461.85 367.24C458.85 366.04 455.79 365.44 452.67 365.44C446.43 365.44 440.91 366.94 436.11 369.94C431.31 372.82 427.53 376.84 424.77 382C422.01 387.16 420.63 393.16 420.63 400C420.63 406.72 421.95 412.72 424.59 418C427.23 423.28 431.01 427.42 435.93 430.42C440.97 433.42 446.85 434.92 453.57 434.92C458.37 434.92 462.63 434.08 466.35 432.4C470.07 430.6 473.01 428.14 475.17 425.02C477.33 421.78 478.41 418.06 478.41 413.86L510.09 407.92C510.09 420.64 507.63 431.26 502.71 439.78C497.79 448.3 491.01 454.66 482.37 458.86C473.85 463.06 463.95 465.16 452.67 465.16ZM450.33 417.64V392.44H510.09V410.98L491.19 417.64H450.33Z" fill="#0A0A0A"/>
<path d="M298.06 553.72C293.78 553.72 289.98 552.8 286.66 550.96C283.38 549.08 280.8 546.52 278.92 543.28C277.04 540 276.1 536.24 276.1 532C276.1 527.76 277.04 524.02 278.92 520.78C280.8 517.5 283.38 514.94 286.66 513.1C289.98 511.22 293.78 510.28 298.06 510.28C300.62 510.28 302.98 510.66 305.14 511.42C307.3 512.18 309.2 513.24 310.84 514.6C312.52 515.92 313.92 517.44 315.04 519.16L308.32 523.36C307.64 522.28 306.74 521.32 305.62 520.48C304.54 519.64 303.34 518.98 302.02 518.5C300.7 518.02 299.38 517.78 298.06 517.78C295.42 517.78 293.08 518.4 291.04 519.64C289 520.84 287.4 522.5 286.24 524.62C285.08 526.74 284.5 529.2 284.5 532C284.5 534.76 285.06 537.22 286.18 539.38C287.34 541.54 288.96 543.24 291.04 544.48C293.12 545.68 295.52 546.28 298.24 546.28C300.36 546.28 302.24 545.86 303.88 545.02C305.56 544.18 306.88 543 307.84 541.48C308.8 539.96 309.28 538.2 309.28 536.2L317.08 535C317.08 538.96 316.26 542.34 314.62 545.14C313.02 547.94 310.78 550.08 307.9 551.56C305.06 553 301.78 553.72 298.06 553.72ZM299.44 536.92V530.5H317.08V535.6L312.64 536.92H299.44ZM350.785 553L334.705 511H342.925L359.485 553H350.785ZM317.605 553L334.165 511H342.385L326.305 553H317.605ZM325.405 543.76V536.5H351.745V543.76H325.405ZM370.526 553V514.48H378.746V553H370.526ZM357.926 518.5V511H391.286V518.5H357.926ZM396.685 553V511H404.905V553H396.685ZM402.925 553V545.5H423.505V553H402.925ZM402.925 535.36V528.04H420.745V535.36H402.925ZM402.925 518.5V511H423.265V518.5H402.925Z" fill="#7F1D1D"/>
<path d="M281.86 697V689.74H293.92C295.88 689.74 297.42 689.26 298.54 688.3C299.66 687.3 300.22 685.98 300.22 684.34C300.22 682.62 299.6 681.26 298.36 680.26C297.12 679.26 295.42 678.78 293.26 678.82H281.86V672.46L289.12 672.58C293.04 672.58 296.46 673.02 299.38 673.9C302.3 674.74 304.56 676.06 306.16 677.86C307.8 679.66 308.62 682.04 308.62 685C308.62 687.56 308.04 689.74 306.88 691.54C305.72 693.34 304.1 694.7 302.02 695.62C299.94 696.54 297.5 697 294.7 697H281.86ZM278.56 697V655H286.6V697H278.56ZM281.56 679.24V672.1H292.96C294.76 672.1 296.18 671.64 297.22 670.72C298.26 669.8 298.78 668.5 298.78 666.82C298.78 665.14 298.2 663.84 297.04 662.92C295.88 661.96 294.3 661.5 292.3 661.54H281.56V655.06L292.78 654.94C295.66 654.94 298.18 655.4 300.34 656.32C302.5 657.2 304.18 658.54 305.38 660.34C306.58 662.1 307.18 664.3 307.18 666.94C307.18 669.1 306.44 671.06 304.96 672.82C303.52 674.58 301.48 675.98 298.84 677.02C296.24 678.06 293.2 678.58 289.72 678.58L281.56 679.24ZM334.498 697.72C330.258 697.72 326.498 696.8 323.218 694.96C319.978 693.08 317.438 690.52 315.598 687.28C313.758 684 312.838 680.26 312.838 676.06C312.838 671.78 313.758 668.02 315.598 664.78C317.438 661.5 319.958 658.94 323.158 657.1C326.398 655.26 330.118 654.34 334.318 654.34C338.558 654.34 342.278 655.28 345.478 657.16C348.718 659 351.258 661.56 353.098 664.84C354.938 668.08 355.858 671.82 355.858 676.06C355.858 680.26 354.938 684 353.098 687.28C351.298 690.52 348.778 693.08 345.538 694.96C342.338 696.8 338.658 697.72 334.498 697.72ZM334.498 690.22C337.058 690.22 339.298 689.62 341.218 688.42C343.178 687.18 344.698 685.5 345.778 683.38C346.898 681.26 347.458 678.82 347.458 676.06C347.458 673.26 346.898 670.8 345.778 668.68C344.658 666.56 343.118 664.9 341.158 663.7C339.198 662.46 336.918 661.84 334.318 661.84C331.798 661.84 329.538 662.46 327.538 663.7C325.578 664.9 324.038 666.56 322.918 668.68C321.798 670.8 321.238 673.26 321.238 676.06C321.238 678.82 321.798 681.26 322.918 683.38C324.038 685.5 325.598 687.18 327.598 688.42C329.598 689.62 331.898 690.22 334.498 690.22ZM391.625 697L375.545 655H383.765L400.325 697H391.625ZM358.445 697L375.005 655H383.225L367.145 697H358.445ZM366.245 687.76V680.5H392.585V687.76H366.245ZM412.617 682.12V674.62H421.017C422.257 674.62 423.357 674.36 424.317 673.84C425.317 673.32 426.097 672.6 426.657 671.68C427.257 670.76 427.557 669.72 427.557 668.56C427.557 666.76 426.897 665.3 425.577 664.18C424.297 663.06 422.637 662.5 420.597 662.5H412.617V655L420.957 654.94C423.917 654.9 426.537 655.48 428.817 656.68C431.097 657.84 432.877 659.44 434.157 661.48C435.437 663.52 436.077 665.88 436.077 668.56C436.077 671.2 435.397 673.56 434.037 675.64C432.717 677.68 430.897 679.28 428.577 680.44C426.257 681.56 423.617 682.12 420.657 682.12H412.617ZM405.357 697V655H413.577V697H405.357ZM428.457 697L418.737 680.14L425.037 675.64L437.757 697H428.457ZM457.469 697V689.32C459.389 689.32 461.169 688.98 462.809 688.3C464.449 687.62 465.869 686.68 467.069 685.48C468.309 684.28 469.269 682.88 469.949 681.28C470.629 679.64 470.969 677.88 470.969 676C470.969 674.12 470.629 672.38 469.949 670.78C469.269 669.14 468.309 667.72 467.069 666.52C465.869 665.32 464.449 664.38 462.809 663.7C461.169 663.02 459.389 662.68 457.469 662.68V655C461.749 655 465.529 655.9 468.809 657.7C472.129 659.5 474.709 661.98 476.549 665.14C478.429 668.26 479.369 671.88 479.369 676C479.369 680.08 478.429 683.7 476.549 686.86C474.669 690.02 472.089 692.5 468.809 694.3C465.529 696.1 461.749 697 457.469 697ZM448.769 697V689.32H457.469V697H448.769ZM444.029 697V655H452.249V697H444.029ZM448.769 662.68V655H457.469V662.68H448.769ZM486.04 697V655H494.26V697H486.04ZM532.484 697L505.304 659.5L511.964 655L539.024 692.32L532.484 697ZM503.384 697V655H511.964L511.604 662.26V697.06L503.384 697ZM532.484 697V655H540.644V697H532.484ZM569.29 697.72C565.01 697.72 561.21 696.8 557.89 694.96C554.61 693.08 552.03 690.52 550.15 687.28C548.27 684 547.33 680.24 547.33 676C547.33 671.76 548.27 668.02 550.15 664.78C552.03 661.5 554.61 658.94 557.89 657.1C561.21 655.22 565.01 654.28 569.29 654.28C571.85 654.28 574.21 654.66 576.37 655.42C578.53 656.18 580.43 657.24 582.07 658.6C583.75 659.92 585.15 661.44 586.27 663.16L579.55 667.36C578.87 666.28 577.97 665.32 576.85 664.48C575.77 663.64 574.57 662.98 573.25 662.5C571.93 662.02 570.61 661.78 569.29 661.78C566.65 661.78 564.31 662.4 562.27 663.64C560.23 664.84 558.63 666.5 557.47 668.62C556.31 670.74 555.73 673.2 555.73 676C555.73 678.76 556.29 681.22 557.41 683.38C558.57 685.54 560.19 687.24 562.27 688.48C564.35 689.68 566.75 690.28 569.47 690.28C571.59 690.28 573.47 689.86 575.11 689.02C576.79 688.18 578.11 687 579.07 685.48C580.03 683.96 580.51 682.2 580.51 680.2L588.31 679C588.31 682.96 587.49 686.34 585.85 689.14C584.25 691.94 582.01 694.08 579.13 695.56C576.29 697 573.01 697.72 569.29 697.72ZM570.67 680.92V674.5H588.31V679.6L583.87 680.92H570.67ZM617.557 697V658.48H625.777V697H617.557ZM604.957 662.5V655H638.317V662.5H604.957ZM643.716 697V655H651.936V697H643.716ZM682.24 686.92L661.42 656.62L665.26 655.48L670 655L686.38 679.3L682.24 686.92ZM661.06 697V655H669.28V697H661.06ZM682.24 686.92L678.1 679.3L694.48 655L699.22 655.48L702.94 656.5L682.24 686.92ZM695.2 697V655H703.36V697H695.2ZM712.505 697V655H720.725V697H712.505ZM718.745 697V689.5H739.325V697H718.745ZM718.745 679.36V672.04H736.565V679.36H718.745ZM718.745 662.5V655H739.085V662.5H718.745Z" fill="#7F1D1D"/>
<path d="M297.1 625.72C293.02 625.72 289.4 624.8 286.24 622.96C283.08 621.08 280.6 618.52 278.8 615.28C277 612 276.1 608.24 276.1 604C276.1 599.76 277 596.02 278.8 592.78C280.6 589.5 283.06 586.94 286.18 585.1C289.34 583.22 292.96 582.28 297.04 582.28C299.92 582.28 302.6 582.8 305.08 583.84C307.56 584.84 309.72 586.26 311.56 588.1C313.44 589.9 314.88 591.98 315.88 594.34L308.26 597.16C307.58 595.68 306.68 594.4 305.56 593.32C304.44 592.2 303.16 591.34 301.72 590.74C300.28 590.1 298.72 589.78 297.04 589.78C294.6 589.78 292.42 590.4 290.5 591.64C288.62 592.84 287.14 594.5 286.06 596.62C285.02 598.74 284.5 601.2 284.5 604C284.5 606.8 285.04 609.28 286.12 611.44C287.2 613.56 288.7 615.24 290.62 616.48C292.54 617.68 294.74 618.28 297.22 618.28C298.94 618.28 300.5 617.96 301.9 617.32C303.34 616.64 304.6 615.72 305.68 614.56C306.8 613.4 307.7 612.06 308.38 610.54L316 613.3C315 615.74 313.56 617.9 311.68 619.78C309.84 621.66 307.68 623.12 305.2 624.16C302.72 625.2 300.02 625.72 297.1 625.72ZM339.197 625L339.017 609.82C339.017 608.02 338.817 606.5 338.417 605.26C338.057 603.98 337.457 603.02 336.617 602.38C335.817 601.7 334.737 601.36 333.377 601.36C332.177 601.36 331.097 601.62 330.137 602.14C329.177 602.66 328.357 603.5 327.677 604.66L320.597 602.26C321.157 600.98 321.957 599.74 322.997 598.54C324.077 597.3 325.477 596.28 327.197 595.48C328.957 594.68 331.077 594.28 333.557 594.28C336.557 594.28 339.057 594.82 341.057 595.9C343.057 596.98 344.557 598.58 345.557 600.7C346.557 602.78 347.057 605.34 347.057 608.38V625H339.197ZM331.097 625.72C327.497 625.72 324.697 624.92 322.697 623.32C320.737 621.72 319.757 619.46 319.757 616.54C319.757 613.34 320.817 610.94 322.937 609.34C325.097 607.7 328.117 606.88 331.997 606.88H340.637L340.757 612.76H334.757C332.157 612.76 330.357 613.08 329.357 613.72C328.357 614.32 327.857 615.18 327.857 616.3C327.857 617.18 328.257 617.88 329.057 618.4C329.857 618.88 330.977 619.12 332.417 619.12C333.697 619.12 334.817 618.82 335.777 618.22C336.777 617.58 337.557 616.78 338.117 615.82C338.677 614.82 338.957 613.8 338.957 612.76H341.177C341.177 616.84 340.377 620.02 338.777 622.3C337.217 624.58 334.657 625.72 331.097 625.72ZM353.358 625V595H360.798L361.278 600.52V625H353.358ZM373.218 625V609.64L381.138 607.84V625H373.218ZM393.138 625V609.64L401.058 607.84V625H393.138ZM373.218 609.64C373.218 607.6 372.978 606.02 372.498 604.9C372.058 603.78 371.418 602.98 370.578 602.5C369.738 601.98 368.758 601.72 367.638 601.72C365.598 601.68 364.018 602.3 362.898 603.58C361.818 604.86 361.278 606.76 361.278 609.28H358.638C358.638 606.08 359.098 603.38 360.018 601.18C360.978 598.94 362.298 597.24 363.978 596.08C365.658 594.88 367.638 594.28 369.918 594.28C373.558 594.28 376.338 595.4 378.258 597.64C380.218 599.84 381.178 603.24 381.138 607.84L373.218 609.64ZM393.138 609.64C393.138 607.6 392.898 606.02 392.418 604.9C391.938 603.78 391.278 602.98 390.438 602.5C389.638 601.98 388.658 601.72 387.498 601.72C385.458 601.68 383.878 602.3 382.758 603.58C381.678 604.86 381.138 606.76 381.138 609.28H378.498C378.498 606.08 378.958 603.38 379.878 601.18C380.838 598.94 382.158 597.24 383.837 596.08C385.558 594.88 387.558 594.28 389.838 594.28C393.478 594.28 396.258 595.4 398.178 597.64C400.098 599.84 401.058 603.24 401.058 607.84L393.138 609.64ZM407.681 637V595H415.121L415.601 600.52V637H407.681ZM424.661 625.72C422.141 625.72 420.001 625.08 418.241 623.8C416.521 622.52 415.201 620.7 414.281 618.34C413.361 615.98 412.901 613.2 412.901 610C412.901 606.76 413.361 603.98 414.281 601.66C415.201 599.3 416.521 597.48 418.241 596.2C420.001 594.92 422.141 594.28 424.661 594.28C427.421 594.28 429.801 594.92 431.801 596.2C433.841 597.48 435.421 599.3 436.541 601.66C437.661 603.98 438.221 606.76 438.221 610C438.221 613.2 437.661 615.98 436.541 618.34C435.421 620.7 433.841 622.52 431.801 623.8C429.801 625.08 427.421 625.72 424.661 625.72ZM422.621 618.46C424.061 618.46 425.321 618.1 426.401 617.38C427.521 616.66 428.401 615.66 429.041 614.38C429.681 613.1 430.001 611.64 430.001 610C430.001 608.36 429.681 606.9 429.041 605.62C428.441 604.34 427.581 603.36 426.461 602.68C425.381 601.96 424.121 601.6 422.681 601.6C421.321 601.6 420.101 601.96 419.021 602.68C417.941 603.4 417.101 604.4 416.501 605.68C415.901 606.92 415.601 608.36 415.601 610C415.601 611.64 415.901 613.1 416.501 614.38C417.101 615.66 417.921 616.66 418.961 617.38C420.041 618.1 421.261 618.46 422.621 618.46ZM463.216 625L462.736 619.48V595H470.656V625H463.216ZM442.876 612.16V595H450.796V610.36L442.876 612.16ZM450.796 610.36C450.796 612.36 451.016 613.94 451.456 615.1C451.936 616.22 452.596 617.04 453.436 617.56C454.316 618.04 455.296 618.28 456.376 618.28C458.456 618.32 460.036 617.7 461.116 616.42C462.196 615.1 462.736 613.2 462.736 610.72H465.436C465.436 613.92 464.956 616.64 463.996 618.88C463.076 621.08 461.756 622.78 460.036 623.98C458.356 625.14 456.376 625.72 454.096 625.72C450.496 625.72 447.716 624.62 445.756 622.42C443.836 620.18 442.876 616.76 442.876 612.16L450.796 610.36ZM488.738 625.72C486.818 625.72 485.018 625.44 483.338 624.88C481.658 624.28 480.178 623.44 478.898 622.36C477.618 621.24 476.618 619.88 475.898 618.28L482.678 615.16C483.278 616.08 484.098 616.88 485.138 617.56C486.178 618.24 487.378 618.58 488.738 618.58C490.018 618.58 491.018 618.4 491.738 618.04C492.458 617.68 492.818 617.16 492.818 616.48C492.818 615.76 492.518 615.24 491.918 614.92C491.358 614.56 490.598 614.26 489.638 614.02L486.878 613.3C483.958 612.54 481.658 611.34 479.978 609.7C478.338 608.02 477.518 606.1 477.518 603.94C477.518 600.86 478.518 598.48 480.518 596.8C482.518 595.12 485.338 594.28 488.978 594.28C490.858 594.28 492.598 594.56 494.198 595.12C495.838 595.68 497.238 596.46 498.398 597.46C499.558 598.46 500.358 599.62 500.798 600.94L494.258 603.94C493.978 603.14 493.298 602.52 492.218 602.08C491.138 601.6 490.058 601.36 488.978 601.36C487.938 601.36 487.118 601.58 486.518 602.02C485.958 602.46 485.678 603.06 485.678 603.82C485.678 604.34 485.958 604.78 486.518 605.14C487.078 605.46 487.858 605.74 488.858 605.98L492.758 606.94C494.718 607.42 496.298 608.2 497.498 609.28C498.698 610.32 499.558 611.5 500.078 612.82C500.638 614.1 500.918 615.36 500.918 616.6C500.918 618.4 500.378 620 499.298 621.4C498.258 622.76 496.818 623.82 494.978 624.58C493.178 625.34 491.098 625.72 488.738 625.72ZM539.444 625.72C535.364 625.72 531.744 624.8 528.584 622.96C525.424 621.08 522.944 618.52 521.144 615.28C519.344 612 518.444 608.24 518.444 604C518.444 599.76 519.344 596.02 521.144 592.78C522.944 589.5 525.404 586.94 528.524 585.1C531.684 583.22 535.304 582.28 539.384 582.28C542.264 582.28 544.944 582.8 547.424 583.84C549.904 584.84 552.064 586.26 553.904 588.1C555.784 589.9 557.224 591.98 558.224 594.34L550.604 597.16C549.924 595.68 549.024 594.4 547.904 593.32C546.784 592.2 545.504 591.34 544.064 590.74C542.624 590.1 541.064 589.78 539.384 589.78C536.944 589.78 534.764 590.4 532.844 591.64C530.964 592.84 529.484 594.5 528.404 596.62C527.364 598.74 526.844 601.2 526.844 604C526.844 606.8 527.384 609.28 528.464 611.44C529.544 613.56 531.044 615.24 532.964 616.48C534.884 617.68 537.084 618.28 539.564 618.28C541.284 618.28 542.844 617.96 544.244 617.32C545.684 616.64 546.944 615.72 548.024 614.56C549.144 613.4 550.044 612.06 550.724 610.54L558.344 613.3C557.344 615.74 555.904 617.9 554.024 619.78C552.184 621.66 550.024 623.12 547.544 624.16C545.064 625.2 542.364 625.72 539.444 625.72ZM577.28 625.72C574.32 625.72 571.7 625.06 569.42 623.74C567.14 622.38 565.34 620.52 564.02 618.16C562.74 615.8 562.1 613.08 562.1 610C562.1 606.92 562.76 604.2 564.08 601.84C565.44 599.48 567.28 597.64 569.6 596.32C571.96 594.96 574.66 594.28 577.7 594.28C580.3 594.28 582.7 594.98 584.9 596.38C587.14 597.74 588.94 599.76 590.3 602.44C591.66 605.08 592.34 608.3 592.34 612.1H584.3C584.34 609.46 584.06 607.36 583.46 605.8C582.9 604.2 582.1 603.06 581.06 602.38C580.02 601.66 578.8 601.3 577.4 601.3C575.92 601.3 574.66 601.62 573.62 602.26C572.62 602.9 571.86 603.88 571.34 605.2C570.82 606.48 570.56 608.16 570.56 610.24C570.56 612.04 570.9 613.54 571.58 614.74C572.26 615.94 573.18 616.86 574.34 617.5C575.5 618.1 576.76 618.4 578.12 618.4C579.68 618.4 580.94 618.06 581.9 617.38C582.9 616.7 583.66 615.82 584.18 614.74L591.62 617.62C590.74 619.3 589.64 620.76 588.32 622C587 623.2 585.42 624.12 583.58 624.76C581.74 625.4 579.64 625.72 577.28 625.72ZM567.26 612.1L567.32 605.92H588.44V612.1H567.26ZM597.459 625V595H604.899L605.379 600.52V625H597.459ZM617.319 625V609.64L625.239 607.84V625H617.319ZM617.319 609.64C617.319 607.6 617.079 606.02 616.599 604.9C616.159 603.78 615.519 602.98 614.679 602.5C613.839 601.98 612.859 601.72 611.739 601.72C609.699 601.68 608.119 602.3 606.999 603.58C605.919 604.86 605.379 606.76 605.379 609.28H602.739C602.739 606.08 603.199 603.38 604.119 601.18C605.079 598.94 606.399 597.24 608.079 596.08C609.759 594.88 611.739 594.28 614.019 594.28C617.659 594.28 620.439 595.4 622.359 597.64C624.319 599.84 625.279 603.24 625.239 607.84L617.319 609.64ZM644.521 625.72C641.201 625.72 638.681 624.9 636.961 623.26C635.281 621.62 634.441 619.28 634.441 616.24V585.64H642.361V614.5C642.361 615.78 642.641 616.76 643.201 617.44C643.761 618.08 644.581 618.4 645.661 618.4C646.061 618.4 646.501 618.32 646.981 618.16C647.461 617.96 647.961 617.68 648.481 617.32L651.241 623.26C650.281 623.98 649.201 624.56 648.001 625C646.841 625.48 645.681 625.72 644.521 625.72ZM629.581 601.72V595H649.861V601.72H629.581ZM661.516 609.22C661.516 605.98 662.136 603.3 663.376 601.18C664.656 599.06 666.276 597.48 668.236 596.44C670.236 595.4 672.316 594.88 674.476 594.88V602.56C672.636 602.56 670.896 602.78 669.256 603.22C667.656 603.66 666.356 604.38 665.356 605.38C664.356 606.38 663.856 607.66 663.856 609.22H661.516ZM655.936 625V595H663.856V625H655.936ZM692.71 625.72C689.75 625.72 687.13 625.06 684.85 623.74C682.57 622.38 680.77 620.52 679.45 618.16C678.17 615.8 677.53 613.08 677.53 610C677.53 606.92 678.19 604.2 679.51 601.84C680.87 599.48 682.71 597.64 685.03 596.32C687.39 594.96 690.09 594.28 693.13 594.28C695.73 594.28 698.13 594.98 700.33 596.38C702.57 597.74 704.37 599.76 705.73 602.44C707.09 605.08 707.77 608.3 707.77 612.1H699.73C699.77 609.46 699.49 607.36 698.89 605.8C698.33 604.2 697.53 603.06 696.49 602.38C695.45 601.66 694.23 601.3 692.83 601.3C691.35 601.3 690.09 601.62 689.05 602.26C688.05 602.9 687.29 603.88 686.77 605.2C686.25 606.48 685.99 608.16 685.99 610.24C685.99 612.04 686.33 613.54 687.01 614.74C687.69 615.94 688.61 616.86 689.77 617.5C690.93 618.1 692.19 618.4 693.55 618.4C695.11 618.4 696.37 618.06 697.33 617.38C698.33 616.7 699.09 615.82 699.61 614.74L707.05 617.62C706.17 619.3 705.07 620.76 703.75 622C702.43 623.2 700.85 624.12 699.01 624.76C697.17 625.4 695.07 625.72 692.71 625.72ZM682.69 612.1L682.75 605.92H703.87V612.1H682.69Z" fill="#0A0A0A"/>
<path d="M285.7 769V731.38L286.48 727H293.56L293.5 769H285.7ZM276.82 740.26V732.82C277.82 732.9 278.9 732.66 280.06 732.1C281.22 731.5 282.36 730.74 283.48 729.82C284.64 728.86 285.64 727.9 286.48 726.94L291.7 732.04C290.26 733.64 288.74 735.1 287.14 736.42C285.54 737.7 283.88 738.7 282.16 739.42C280.48 740.14 278.7 740.42 276.82 740.26ZM316.893 769.72C314.973 769.72 312.993 769.4 310.953 768.76C308.953 768.12 307.133 767.16 305.493 765.88C303.893 764.6 302.713 763.02 301.953 761.14L309.453 758.92C310.333 760.2 311.373 761.14 312.573 761.74C313.813 762.34 315.093 762.64 316.413 762.64C318.493 762.64 320.173 762.02 321.453 760.78C322.773 759.5 323.433 757.8 323.433 755.68C323.433 753.72 322.793 752.08 321.513 750.76C320.273 749.44 318.613 748.78 316.533 748.78C315.293 748.78 314.153 749.06 313.113 749.62C312.073 750.18 311.273 750.84 310.713 751.6L303.333 749.98L305.853 727H329.612V734.44H307.053L305.853 727.24H314.013L310.713 750.76L306.333 749.98C306.693 749.26 307.253 748.48 308.013 747.64C308.773 746.76 309.713 745.92 310.833 745.12C311.993 744.32 313.293 743.68 314.732 743.2C316.173 742.72 317.773 742.5 319.533 742.54C321.813 742.54 323.893 743.1 325.773 744.22C327.653 745.3 329.133 746.8 330.213 748.72C331.333 750.6 331.893 752.8 331.893 755.32C331.893 758.16 331.253 760.66 329.973 762.82C328.693 764.98 326.933 766.68 324.693 767.92C322.453 769.12 319.853 769.72 316.893 769.72ZM343.176 748.6C341.856 748.6 340.716 748.12 339.756 747.16C338.836 746.2 338.376 745.06 338.376 743.74C338.376 742.46 338.836 741.34 339.756 740.38C340.716 739.42 341.856 738.94 343.176 738.94C344.496 738.94 345.616 739.42 346.536 740.38C347.496 741.34 347.976 742.46 347.976 743.74C347.976 745.06 347.496 746.2 346.536 747.16C345.616 748.12 344.496 748.6 343.176 748.6ZM343.236 769.06C341.916 769.06 340.776 768.6 339.816 767.68C338.896 766.72 338.436 765.58 338.436 764.26C338.436 762.94 338.896 761.82 339.816 760.9C340.776 759.94 341.916 759.46 343.236 759.46C344.556 759.46 345.676 759.94 346.596 760.9C347.556 761.82 348.036 762.94 348.036 764.26C348.036 765.58 347.556 766.72 346.596 767.68C345.676 768.6 344.556 769.06 343.236 769.06ZM371.663 769.72C368.263 769.72 365.263 768.8 362.663 766.96C360.063 765.08 358.023 762.52 356.543 759.28C355.063 756 354.323 752.24 354.323 748C354.323 743.76 355.063 740.02 356.543 736.78C358.023 733.5 360.043 730.94 362.603 729.1C365.203 727.22 368.203 726.28 371.603 726.28C375.003 726.28 378.003 727.22 380.603 729.1C383.243 730.94 385.303 733.5 386.783 736.78C388.263 740.02 389.003 743.76 389.003 748C389.003 752.24 388.263 756 386.783 759.28C385.303 762.52 383.263 765.08 380.663 766.96C378.063 768.8 375.063 769.72 371.663 769.72ZM371.663 762.28C373.463 762.28 375.063 761.68 376.463 760.48C377.903 759.24 379.023 757.56 379.823 755.44C380.623 753.28 381.023 750.8 381.023 748C381.023 745.2 380.623 742.72 379.823 740.56C379.023 738.4 377.903 736.72 376.463 735.52C375.063 734.28 373.443 733.66 371.603 733.66C369.803 733.66 368.203 734.28 366.803 735.52C365.403 736.72 364.303 738.4 363.503 740.56C362.743 742.72 362.363 745.2 362.363 748C362.363 750.8 362.743 753.28 363.503 755.44C364.303 757.56 365.403 759.24 366.803 760.48C368.243 761.68 369.863 762.28 371.663 762.28ZM410.569 769.72C407.169 769.72 404.169 768.8 401.569 766.96C398.969 765.08 396.929 762.52 395.449 759.28C393.969 756 393.229 752.24 393.229 748C393.229 743.76 393.969 740.02 395.449 736.78C396.929 733.5 398.949 730.94 401.509 729.1C404.109 727.22 407.109 726.28 410.509 726.28C413.909 726.28 416.909 727.22 419.509 729.1C422.149 730.94 424.209 733.5 425.689 736.78C427.169 740.02 427.909 743.76 427.909 748C427.909 752.24 427.169 756 425.689 759.28C424.209 762.52 422.169 765.08 419.569 766.96C416.969 768.8 413.969 769.72 410.569 769.72ZM410.569 762.28C412.369 762.28 413.969 761.68 415.369 760.48C416.809 759.24 417.929 757.56 418.729 755.44C419.529 753.28 419.929 750.8 419.929 748C419.929 745.2 419.529 742.72 418.729 740.56C417.929 738.4 416.809 736.72 415.369 735.52C413.969 734.28 412.349 733.66 410.509 733.66C408.709 733.66 407.109 734.28 405.709 735.52C404.309 736.72 403.209 738.4 402.409 740.56C401.649 742.72 401.269 745.2 401.269 748C401.269 750.8 401.649 753.28 402.409 755.44C403.209 757.56 404.309 759.24 405.709 760.48C407.149 761.68 408.769 762.28 410.569 762.28Z" fill="#0A0A0A"/>
<mask id="mask1_38_904" style="mask-type:alpha" maskUnits="userSpaceOnUse" x="18" y="292" width="256" height="256">
<rect x="18" y="548" width="256" height="256" transform="rotate(-90 18 548)" fill="#D9D9D9"/>
</mask>
<g mask="url(#mask1_38_904)">
<path d="M220.666 537.333H71.333V516H220.666V537.333ZM220.666 505.333H71.333V484H220.666V505.333ZM220.666 473.333H71.333V462.667H220.666V473.333ZM220.666 441.333H71.333L71.333 420H220.666V441.333ZM220.666 409.333H71.333V377.333H220.666V409.333ZM220.666 366.667H71.333V356H220.666V366.667ZM220.666 334.667H71.333V302.667H220.666L220.666 334.667Z" fill="#1C1B1F"/>
</g>
<mask id="mask2_38_904" style="mask-type:alpha" maskUnits="userSpaceOnUse" x="18" y="548" width="256" height="256">
<rect x="18" y="804" width="256" height="256" transform="rotate(-90 18 804)" fill="#D9D9D9"/>
</mask>
<g mask="url(#mask2_38_904)">
<path d="M220.666 793.333H71.333V772H220.666V793.333ZM220.666 761.333H71.333V740H220.666V761.333ZM220.666 729.333H71.333V718.667H220.666V729.333ZM220.666 697.333H71.333L71.333 676H220.666V697.333ZM220.666 665.333H71.333V633.333H220.666V665.333ZM220.666 622.667H71.333V612H220.666V622.667ZM220.666 590.667H71.333V558.667H220.666L220.666 590.667Z" fill="#1C1B1F"/>
</g>
<path d="M18 70.0002C18 36.8632 44.8629 10.0002 78 10.0002H780V238H18V70.0002Z" fill="#EF4444"/>
<path d="M18 858H780V971H78C44.8629 971 18 944.137 18 911V858Z" fill="#EF4444"/>
<path d="M97.1 159V146.9H117.2C120.467 146.9 123.033 146.1 124.9 144.5C126.767 142.834 127.7 140.634 127.7 137.9C127.7 135.034 126.667 132.767 124.6 131.1C122.533 129.434 119.7 128.634 116.1 128.7H97.1V118.1L109.2 118.3C115.733 118.3 121.433 119.034 126.3 120.5C131.167 121.9 134.933 124.1 137.6 127.1C140.333 130.1 141.7 134.067 141.7 139C141.7 143.267 140.733 146.9 138.8 149.9C136.867 152.9 134.167 155.167 130.7 156.7C127.233 158.234 123.167 159 118.5 159H97.1ZM91.6 159V89.0002H105V159H91.6ZM96.6 129.4V117.5H115.6C118.6 117.5 120.967 116.734 122.7 115.2C124.433 113.667 125.3 111.5 125.3 108.7C125.3 105.9 124.333 103.734 122.4 102.2C120.467 100.6 117.833 99.8336 114.5 99.9002H96.6V89.1002L115.3 88.9002C120.1 88.9002 124.3 89.6669 127.9 91.2002C131.5 92.6669 134.3 94.9002 136.3 97.9002C138.3 100.834 139.3 104.5 139.3 108.9C139.3 112.5 138.067 115.767 135.6 118.7C133.2 121.634 129.8 123.967 125.4 125.7C121.067 127.434 116 128.3 110.2 128.3L96.6 129.4ZM184.83 160.2C177.764 160.2 171.497 158.667 166.03 155.6C160.63 152.467 156.397 148.2 153.33 142.8C150.264 137.334 148.73 131.1 148.73 124.1C148.73 116.967 150.264 110.7 153.33 105.3C156.397 99.8336 160.597 95.5669 165.93 92.5002C171.33 89.4336 177.53 87.9002 184.53 87.9002C191.597 87.9002 197.797 89.4669 203.13 92.6002C208.53 95.6669 212.764 99.9336 215.83 105.4C218.897 110.8 220.43 117.034 220.43 124.1C220.43 131.1 218.897 137.334 215.83 142.8C212.83 148.2 208.63 152.467 203.23 155.6C197.897 158.667 191.764 160.2 184.83 160.2ZM184.83 147.7C189.097 147.7 192.83 146.7 196.03 144.7C199.297 142.634 201.83 139.834 203.63 136.3C205.497 132.767 206.43 128.7 206.43 124.1C206.43 119.434 205.497 115.334 203.63 111.8C201.764 108.267 199.197 105.5 195.93 103.5C192.664 101.434 188.864 100.4 184.53 100.4C180.33 100.4 176.564 101.434 173.23 103.5C169.964 105.5 167.397 108.267 165.53 111.8C163.664 115.334 162.73 119.434 162.73 124.1C162.73 128.7 163.664 132.767 165.53 136.3C167.397 139.834 169.997 142.634 173.33 144.7C176.664 146.7 180.497 147.7 184.83 147.7ZM280.041 159L253.241 89.0002H266.941L294.541 159H280.041ZM224.741 159L252.341 89.0002H266.041L239.241 159H224.741ZM237.741 143.6V131.5H281.641V143.6H237.741ZM315.028 134.2V121.7H329.028C331.095 121.7 332.928 121.267 334.528 120.4C336.195 119.534 337.495 118.334 338.428 116.8C339.428 115.267 339.928 113.534 339.928 111.6C339.928 108.6 338.828 106.167 336.628 104.3C334.495 102.434 331.728 101.5 328.328 101.5H315.028V89.0002L328.928 88.9002C333.861 88.8336 338.228 89.8002 342.028 91.8002C345.828 93.7336 348.795 96.4002 350.928 99.8002C353.061 103.2 354.128 107.134 354.128 111.6C354.128 116 352.995 119.934 350.728 123.4C348.528 126.8 345.495 129.467 341.628 131.4C337.761 133.267 333.361 134.2 328.428 134.2H315.028ZM302.928 159V89.0002H316.628V159H302.928ZM341.428 159L325.228 130.9L335.728 123.4L356.928 159H341.428ZM389.781 159V146.2C392.981 146.2 395.948 145.634 398.681 144.5C401.415 143.367 403.781 141.8 405.781 139.8C407.848 137.8 409.448 135.467 410.581 132.8C411.715 130.067 412.281 127.134 412.281 124C412.281 120.867 411.715 117.967 410.581 115.3C409.448 112.567 407.848 110.2 405.781 108.2C403.781 106.2 401.415 104.634 398.681 103.5C395.948 102.367 392.981 101.8 389.781 101.8V89.0002C396.915 89.0002 403.215 90.5002 408.681 93.5002C414.215 96.5002 418.515 100.634 421.581 105.9C424.715 111.1 426.281 117.134 426.281 124C426.281 130.8 424.715 136.834 421.581 142.1C418.448 147.367 414.148 151.5 408.681 154.5C403.215 157.5 396.915 159 389.781 159ZM375.281 159V146.2H389.781V159H375.281ZM367.381 159V89.0002H381.081V159H367.381ZM375.281 101.8V89.0002H389.781V101.8H375.281ZM437.401 159V89.0002H451.101V159H437.401ZM514.807 159L469.507 96.5002L480.607 89.0002L525.707 151.2L514.807 159ZM466.307 159V89.0002H480.607L480.007 101.1V159.1L466.307 159ZM514.807 159V89.0002H528.407V159H514.807ZM576.151 160.2C569.017 160.2 562.684 158.667 557.151 155.6C551.684 152.467 547.384 148.2 544.251 142.8C541.117 137.334 539.551 131.067 539.551 124C539.551 116.934 541.117 110.7 544.251 105.3C547.384 99.8336 551.684 95.5669 557.151 92.5002C562.684 89.3669 569.017 87.8002 576.151 87.8002C580.417 87.8002 584.351 88.4336 587.951 89.7002C591.551 90.9669 594.717 92.7336 597.451 95.0002C600.251 97.2002 602.584 99.7336 604.451 102.6L593.251 109.6C592.117 107.8 590.617 106.2 588.751 104.8C586.951 103.4 584.951 102.3 582.751 101.5C580.551 100.7 578.351 100.3 576.151 100.3C571.751 100.3 567.851 101.334 564.451 103.4C561.051 105.4 558.384 108.167 556.451 111.7C554.517 115.234 553.551 119.334 553.551 124C553.551 128.6 554.484 132.7 556.351 136.3C558.284 139.9 560.984 142.734 564.451 144.8C567.917 146.8 571.917 147.8 576.451 147.8C579.984 147.8 583.117 147.1 585.851 145.7C588.651 144.3 590.851 142.334 592.451 139.8C594.051 137.267 594.851 134.334 594.851 131L607.851 129C607.851 135.6 606.484 141.234 603.751 145.9C601.084 150.567 597.351 154.134 592.551 156.6C587.817 159 582.351 160.2 576.151 160.2ZM578.451 132.2V121.5H607.851V130L600.451 132.2H578.451ZM653.895 135.8V123.2H668.595C671.662 123.2 674.162 122.2 676.095 120.2C678.095 118.2 679.095 115.567 679.095 112.3C679.095 110.167 678.595 108.3 677.595 106.7C676.595 105.034 675.229 103.734 673.495 102.8C671.762 101.867 669.762 101.434 667.495 101.5H653.895V89.0002L667.795 88.9002C672.729 88.8336 677.095 89.8336 680.895 91.9002C684.695 93.9002 687.662 96.6669 689.795 100.2C691.929 103.667 692.995 107.7 692.995 112.3C692.995 116.834 691.962 120.867 689.895 124.4C687.829 127.934 684.995 130.734 681.395 132.8C677.795 134.8 673.629 135.8 668.895 135.8H653.895ZM641.795 159V89.0002H655.495V159H641.795ZM750.549 159L723.749 89.0002H737.449L765.049 159H750.549ZM695.249 159L722.849 89.0002H736.549L709.749 159H695.249ZM708.249 143.6V131.5H752.149V143.6H708.249ZM796.936 160.2C793.403 160.2 790.103 159.767 787.036 158.9C783.969 158.034 781.236 156.834 778.836 155.3C776.436 153.7 774.436 151.934 772.836 150C771.303 148.067 770.303 146.034 769.836 143.9L783.236 139.9C784.103 142.167 785.636 144.134 787.836 145.8C790.036 147.4 792.803 148.234 796.136 148.3C799.669 148.367 802.536 147.6 804.736 146C807.003 144.4 808.136 142.334 808.136 139.8C808.136 137.6 807.236 135.767 805.436 134.3C803.703 132.767 801.303 131.6 798.236 130.8L789.136 128.4C785.736 127.534 782.736 126.234 780.136 124.5C777.536 122.7 775.503 120.5 774.036 117.9C772.569 115.3 771.836 112.267 771.836 108.8C771.836 102.2 774.003 97.0669 778.336 93.4002C782.736 89.6669 788.936 87.8002 796.936 87.8002C801.403 87.8002 805.303 88.4669 808.636 89.8002C812.036 91.0669 814.869 92.9002 817.136 95.3002C819.403 97.7002 821.136 100.534 822.336 103.8L809.036 107.9C808.236 105.634 806.769 103.7 804.636 102.1C802.503 100.5 799.803 99.7002 796.536 99.7002C793.203 99.7002 790.569 100.467 788.636 102C786.769 103.534 785.836 105.7 785.836 108.5C785.836 110.7 786.569 112.434 788.036 113.7C789.569 114.967 791.636 115.934 794.236 116.6L803.436 118.9C809.436 120.367 814.103 123 817.436 126.8C820.769 130.6 822.436 134.834 822.436 139.5C822.436 143.634 821.436 147.267 819.436 150.4C817.436 153.467 814.536 155.867 810.736 157.6C806.936 159.334 802.336 160.2 796.936 160.2ZM857.678 160.2C854.145 160.2 850.845 159.767 847.778 158.9C844.711 158.034 841.978 156.834 839.578 155.3C837.178 153.7 835.178 151.934 833.578 150C832.045 148.067 831.045 146.034 830.578 143.9L843.978 139.9C844.845 142.167 846.378 144.134 848.578 145.8C850.778 147.4 853.545 148.234 856.878 148.3C860.411 148.367 863.278 147.6 865.478 146C867.745 144.4 868.878 142.334 868.878 139.8C868.878 137.6 867.978 135.767 866.178 134.3C864.445 132.767 862.045 131.6 858.978 130.8L849.878 128.4C846.478 127.534 843.478 126.234 840.878 124.5C838.278 122.7 836.245 120.5 834.778 117.9C833.311 115.3 832.578 112.267 832.578 108.8C832.578 102.2 834.745 97.0669 839.078 93.4002C843.478 89.6669 849.678 87.8002 857.678 87.8002C862.145 87.8002 866.045 88.4669 869.378 89.8002C872.778 91.0669 875.611 92.9002 877.878 95.3002C880.145 97.7002 881.878 100.534 883.078 103.8L869.778 107.9C868.978 105.634 867.511 103.7 865.378 102.1C863.245 100.5 860.545 99.7002 857.278 99.7002C853.945 99.7002 851.311 100.467 849.378 102C847.511 103.534 846.578 105.7 846.578 108.5C846.578 110.7 847.311 112.434 848.778 113.7C850.311 114.967 852.378 115.934 854.978 116.6L864.178 118.9C870.178 120.367 874.845 123 878.178 126.8C881.511 130.6 883.178 134.834 883.178 139.5C883.178 143.634 882.178 147.267 880.178 150.4C878.178 153.467 875.278 155.867 871.478 157.6C867.678 159.334 863.078 160.2 857.678 160.2Z" fill="#FAFAFA"/>
<defs>
<filter id="filter0_dd_38_904" x="0" y="0.000244141" width="798" height="997" filterUnits="userSpaceOnUse" color-interpolation-filters="sRGB">
<feFlood flood-opacity="0" result="BackgroundImageFix"/>
<feColorMatrix in="SourceAlpha" type="matrix" values="0 0 0 0 0 0 0 0 0 0 0 0 0 0 0 0 0 0 127 0" result="hardAlpha"/>
<feOffset dy="4"/>
<feGaussianBlur stdDeviation="2"/>
<feColorMatrix type="matrix" values="0 0 0 0 0 0 0 0 0 0 0 0 0 0 0 0 0 0 0.3 0"/>
<feBlend mode="normal" in2="BackgroundImageFix" result="effect1_dropShadow_38_904"/>
<feColorMatrix in="SourceAlpha" type="matrix" values="0 0 0 0 0 0 0 0 0 0 0 0 0 0 0 0 0 0 127 0" result="hardAlpha"/>
<feMorphology radius="6" operator="dilate" in="SourceAlpha" result="effect2_dropShadow_38_904"/>
<feOffset dy="8"/>
<feGaussianBlur stdDeviation="6"/>
<feColorMatrix type="matrix" values="0 0 0 0 0 0 0 0 0 0 0 0 0 0 0 0 0 0 0.15 0"/>
<feBlend mode="normal" in2="effect1_dropShadow_38_904" result="effect2_dropShadow_38_904"/>
<feBlend mode="normal" in="SourceGraphic" in2="effect2_dropShadow_38_904" result="shape"/>
</filter>
</defs>
</svg>