<svg width="982" height="356" viewBox="0 0 982 356" fill="none" xmlns="http://www.w3.org/2000/svg">
<mask id="mask0_195_169" style="mask-type:alpha" maskUnits="userSpaceOnUse" x="403" y="47" width="124" height="124">
<rect x="492.371" y="47.6457" width="95" height="95" transform="rotate(69.059 492.371 47.6457)" fill="#D9D9D9" stroke="#FF9E01"/>
</mask>
<g mask="url(#mask0_195_169)">
<path d="M471.799 149.193L460.615 153.473L461.133 119.03L461.133 119.012L461.116 119.018L447.667 124.165L447.663 124.156L447.659 124.174L444.104 138.377L434.787 141.943L433.243 121.136L433.246 121.136L433.241 121.129L420.499 104.608L429.817 101.042L441.946 109.244L441.94 109.251L441.957 109.245L455.406 104.098L455.423 104.092L455.411 104.078L432.032 78.7803L443.216 74.5003L475.568 96.3771L475.563 96.3848L475.579 96.3785L492.017 90.0881C494.068 89.303 496.104 89.3614 498.124 90.2633C500.144 91.1652 501.546 92.6417 502.331 94.6932C503.117 96.7448 503.058 98.7803 502.156 100.8C501.254 102.821 499.778 104.223 497.726 105.008L481.289 111.298L481.286 111.29L481.281 111.307L471.799 149.193Z" fill="#4F5D74" stroke="#4F5D74" stroke-width="0.025"/>
</g>
<path d="M32.1945 351.287C32.1945 351.287 353.194 48.287 950.695 9.28711" stroke="#4F5D74" stroke-width="12" stroke-dasharray="40 40"/>
</svg>
