<svg id="Birthday" height="512" viewBox="0 0 1000 1000" width="512" xmlns="http://www.w3.org/2000/svg"><g><path d="m705.521 437.052c11.805-27.109 1.758-60.205-26.9-90.711 5.441-13.662 6.02-33.461-10.313-60.021-6.635-10.789-16.084-19.748-28.186-26.746-.295-20.916-6.998-40.957-19.184-56.531-6.164-7.879-12.66-14.549-19.018-20.93 8.475-6.18 15.338-14.027 20.162-23.225 9.898-18.865 10.545-41.896 1.822-64.848-16.498-43.402-55.629-70.367-102.125-70.367-4.494 0-9.066.266-13.582.789-21.221 2.457-49.197 13.164-64.082 35.854-12.666 19.307-14.869 40.242-16.813 58.709-1.486 14.115-2.891 27.451-8.732 38.326-5.711 10.621-16.418 19.23-27.752 28.346-10.545 8.482-21.449 17.252-30.338 28.932-17.57 23.098-24.307 46.398-21.178 74.246-6.211 5.303-11.775 10.914-16.629 16.775-20.754 25.082-32.529 64.82-19.643 98.186-30.164 36.045-40.664 89.844-6.025 134.883.066 1.467.133 2.955.197 4.457 1.93 43.729 4.529 102.602 43.008 133.797 6.109 53.76 13.896 107.975 21.438 160.486 2.125 14.801 4.25 29.598 6.342 44.393.521 3.697.883 7.705 1.266 11.945 1.768 19.582 4.186 46.395 28.08 62.193 28.678 18.947 68.93 19.738 95.566 20.26 2.584.051 5.184.078 7.791.078h.004c35.838 0 67.086-5.105 92.869-15.18 38.182-14.922 42.121-42.535 45.6-66.902 1.947-13.648 3.92-27.303 5.895-40.961 8.275-57.283 16.818-116.428 23.504-175.068 40.219-31.063 43.021-95.717 44.914-139.43.125-2.873.248-5.672.375-8.375 9.93-17.391 13.287-39.018 8.967-59.004-2.863-13.241-8.832-24.983-17.3-34.356z" fill="#fff"/><g><path d="m680.116 441.153c2.885-3.439 5.398-7.285 7.354-11.693 12.877-29.07-13.219-61.775-33.844-80.115 11.25-11.387 13.148-28.135-1.998-52.768-7.363-11.971-18.799-19.818-31.732-25.148 2.453-19.51-2.078-40.598-14.379-56.32-11.535-14.742-25.486-25.869-36.299-39.207 34.83-8.572 49.689-39.891 36.385-74.902-15.199-39.986-53.516-61.906-95.152-57.086-18.26 2.115-39.502 11.203-49.961 27.146-19.123 29.143-8.488 65.453-24.67 95.559-13.506 25.127-42.766 37.545-59.752 59.865-17.145 22.535-21.074 43.803-15.645 70.652-8.459 6.174-16.16 13.146-22.662 20.998-19.338 23.367-28.504 61.91-11.412 88.602.117.184.252.32.379.48-34.029 31.91-45.16 83.598-11.014 123.498.172.197.357.346.539.512 2.248 43.922 1.615 109.244 42.547 135.01-.006.279-.025.553.01.859 7.84 70.838 18.6 141.455 28.568 212.018 3.033 21.471.842 47.375 20.756 60.539 23.447 15.492 58.127 16.49 85.15 17.021 30.992.604 64.084-2.406 93.154-13.762 26.342-10.295 29.629-25.4 33.344-51.432 10.658-74.664 22.021-149.414 30.328-224.385.002-.01 0-.014 0-.027 43.424-25.127 42.057-98.973 44.441-142.678 17.649-26.003 13.397-66.226-14.435-83.236z" fill="#68182b"/><path d="m628.735 289.819c11.945 8.805 20.291 21.559 21.588 37.48 1.971 24.154-31.68 30.131-48.957 32.102-82.697 9.418-166.537-7.529-245.045 28-3.189 1.443-6.285 3.035-9.279 4.758-7.781 4.48-20.418 11.109-11.59-9.975 7.877-18.813 32.061-36.396 45.666-44.24 29.193-16.834 65.123-21.879 98.117-24.975 36.963-3.463 74.238.234 111.26-2.77 14.959-1.214 33.418-6.038 38.24-20.38z" fill="#ff7cc6"/><path d="m593.388 146.925c-3.086 5.338-7.646 9.916-13.877 13.313-9.803 5.342-19.693 3.355-25.557-9.201-4.686-10.029-8.246-24.291-1.313-41.533 3.123-7.789 2.32-9.773-3.107-3.549-7.521 8.613-9.602 21.264-8.771 32.547.594 8.072 2.99 18.094 7.318 26.607 3.717 8.301 8.797 15.975 15.484 23.502 21.488 24.188 49.41 41.996 45.297 78.934-13.227-3.945-27.207-5.906-39.574-7.336-.148-.018-.299-.027-.447-.045 1.309-16.959-.965-32.094-8.596-48.059-9.842-20.588-25.705-37.391-33.822-58.986-9.244-24.592.51-53.893 22.037-68.656 11.777-8.072 23.676-3.711 33.037 5.635 17 16.981 21.445 40.307 11.891 56.827z" fill="#ffa2bb"/><path d="m576.937 77.519c.443.443.863.912 1.293 1.367-19.629-11.164-37.289-1.025-49.965 16.18-15.479 21.004-14.545 46.746-4.516 69.668 6.6 15.084 17.123 28.428 25.73 42.379 10.404 16.855 13.771 33.572 12.486 52.367-40.637-4.125-81.717-3.598-121.854 4.408-2.617.521-5.26 1.105-7.914 1.727 10.729-14.031 27.313-23.328 36.771-38.875 10.096-16.586 11.029-37.795 11.152-56.621.166-25.469 1.16-48.496 12.895-71.77 6.346-12.578 15.699-23.332 27.047-30.33 21.474-13.248 40.664-6.795 56.875 9.5z" fill="#ff7cc6"/><path d="m432.989 189.042c12.416-12.52 19.332-27.73 22.717-44.855 4.828-24.447.283-49.939 17.506-70.559 14.717-17.621 37.348-22.33 58.912-18.619-30.242 9.088-50.07 41.492-56.727 73.482-5.271 25.338.025 51.322-5.494 76.732-6.443 29.691-34.389 39.117-47.707 62.99-17.627 4.965-35.443 12.178-51.326 21.906-7.193-48.682 30.813-69.505 62.119-101.077z" fill="#ffa2bb"/><path d="m379.974 298.728c35.063-21.523 77.623-28.365 118.029-30.109 36.273-1.561 75.93.086 110.703 11.1 4.865 1.547 9.498 3.588 13.816 6.063-6.99 27.92-85.189 19.023-103.391 18.979-32.551-.072-64.859 2.686-96.564 10.262-25.717 6.145-50.264 17.064-69.74 35.18-8.539 7.951-19.26 19.213-24.176 31.467-5.841-33.495 24.438-66.442 51.323-82.942z" fill="#ffa2bb"/><path d="m362.132 397.341c47.578-23.787 104.377-23.801 156.271-24.053 26.057-.125 91.154 2.34 124.201-15.848 10.492 10.434 15.254 22.186 1.814 36.572-6.674 7.141-16.605 11.127-25.611 14.229-16.393 5.645-34.199 7.119-51.367 8.379-38.896 2.855-77.762 4.609-116.326 10.916-34.668 5.666-70.781 15.934-100.166 35.82-15.078 10.205-33.428 30.986-33.234 51.086-29.428-44.191.644-95.213 44.418-117.101z" fill="#ffa2bb"/><path d="m354.435 469.325c14.969-10.992 32.863-17.863 50.402-23.486 44.527-14.273 91.828-18.186 138.283-20.92 30.291-1.787 61.637-2.295 89.813-14.865 9.637-4.299 21.693-13.047 25.221-23.52 1.875-5.568 2.092-10.564 1.102-15.162 7.395 8.672 13.424 18.305 17.387 29.494 10.457 29.521-16.115 44.695-40.143 51.203-33.57 9.092-71.639 7.938-106.24 10.949-57.045 4.975-119.77 14.842-157.117 62.504-9.748-.012-19.74 0-29.521-.691-14.455-1.021-21.484-5.275-18.283-18.205 3.74-15.102 18.508-29.535 29.096-37.301z" fill="#ff7cc6"/><path d="m635.204 484.517c-20.637 4.229-42.199 3.773-63.148 4.865-35.283 1.846-68.084 9.531-90.953 37.203-25.113.049-50.227-.1-75.334-.539-9.137-.168-17.945-1.908-6.086-11.879 52.58-44.158 139.59-40.385 203.607-45.652 22.211-1.826 49.568-5.148 68.092-19.104 7.369 3.881 8.557 11.738 2.967 17.639-9.172 9.678-30.18 15.633-39.145 17.467z" fill="#ffa2bb"/><g fill="#fdf39b"><path d="m370.931 672.181c5.785 2.285 11.797 4.201 17.988 5.797 7.807 9.041 15.887 17.85 24.221 26.432-11.695 6.346-23.768 11.926-36.33 16.262-2.09-16.155-4.055-32.318-5.879-48.491z"/><path d="m541.456 813.37c17.92 12.592 36.539 24.195 55.979 33.99-17.568 18.988-36.375 36.959-55.973 53.996-19.059-13.43-37.436-27.848-55.322-42.793 19.093-14.404 37.482-29.726 55.316-45.193z"/><path d="m480.804 854.079c-3.863-3.264-7.721-6.543-11.539-9.854-15.154-13.137-30.289-26.764-44.742-41.068 19.543-10.654 38.426-23.014 56.66-36.416 4.768 3.959 9.563 7.881 14.375 11.762 13.012 10.5 26.387 20.871 40.135 30.766-17.628 15.39-35.891 30.582-54.889 44.81z"/><path d="m540.987 804.642c-15.32-10.996-30.146-22.637-44.58-34.279-3.199-2.582-6.373-5.213-9.549-7.83 19.029-14.318 37.316-29.723 54.871-45.477 18.045 12.867 36.846 24.807 56.553 34.467-18.193 19.113-38.494 36.626-57.295 53.119z"/><path d="m541.228 708.269c-9.969-7.242-19.689-14.711-29.189-22.172 17.699.008 36.066-.145 54.389-1.314-8.222 7.833-16.618 15.687-25.2 23.486z"/><path d="m536.015 712.954c-17.447 15.65-35.635 30.932-54.555 45.125-19.727-16.496-38.908-33.818-57.08-52.078 10.908-6.291 21.523-13.102 31.936-20.094 15.348.383 30.463.215 44.639.189 11.39 9.012 23.054 18.106 35.06 26.858z"/><path d="m419.397 700.942c-6.48-6.652-12.82-13.426-18.992-20.334 14.244 2.779 29.158 4.188 44.063 4.885-8.199 5.375-16.541 10.582-25.071 15.449z"/><path d="m377.743 727.651c14.037-4.754 27.475-11 40.455-18.143 18.348 18.488 37.734 35.988 57.662 52.736-18.125 13.275-36.922 25.432-56.369 35.879-13.66-13.842-26.574-28.369-38.174-43.758-1.218-8.899-2.406-17.805-3.574-26.714z"/><path d="m383.161 767.956c9.418 11.645 19.561 22.738 30.092 33.469-7.822 4.021-15.758 7.719-23.791 11.117-2.121-14.859-4.231-29.717-6.301-44.586z"/><path d="m396.423 861.446c-1.963-13.955-3.965-27.92-5.961-41.879 9.398-3.943 18.656-8.328 27.779-13.096 14.881 14.814 30.488 28.926 46.141 42.639 3.533 3.094 7.109 6.148 10.688 9.207-17.83 13.068-36.303 25.234-55.48 35.906-7.609-7.744-15.076-15.625-22.289-23.738-.238-3.304-.505-6.377-.878-9.039z"/><path d="m400.671 904.118c-1.457-7.363-2.146-15.246-2.648-22.668 5.012 5.486 10.064 10.92 15.252 16.227-4.167 2.23-8.37 4.367-12.604 6.441z"/><path d="m416.329 931.101c-7.162-3.705-11.367-11.197-13.979-20.139 5.398-2.607 10.75-5.324 16.035-8.18 14.064 14.104 28.666 27.662 43.635 40.813-16.025-1.772-31.871-5.342-45.691-12.494z"/><path d="m487.452 945.142c-4.572-.072-9.221-.27-13.883-.557-16.805-14.545-33.174-29.602-48.91-45.297 19.287-10.854 37.824-23.207 55.736-36.438 17.932 15.102 36.459 29.627 55.643 43.182-15.863 13.574-32.144 26.584-48.586 39.11z"/><path d="m498.632 945.179c14.629-11.307 29.121-22.959 43.252-35.084 12.09 8.352 24.449 16.275 37.076 23.715-24.76 9.943-54.477 11.156-80.328 11.369z"/><path d="m612.101 864.253c-3.365 23.961-.199 52.91-24.115 65.436-.436.225-.891.424-1.33.648-13.461-7.775-26.559-16.154-39.361-24.969 19.834-17.297 38.859-35.525 56.59-54.822 3.158 1.51 6.348 2.941 9.549 4.344-.443 3.121-.894 6.242-1.333 9.363z"/><path d="m614.423 847.927c-1.912-.85-3.82-1.713-5.717-2.598 2.471-2.762 4.865-5.578 7.281-8.379-.523 3.656-1.045 7.317-1.564 10.977z"/><path d="m617.804 824.177c-5.066 6.113-10.271 12.121-15.613 18.031-19.256-9.549-37.67-21.021-55.412-33.457 19.189-16.686 39.76-34.553 58.1-54.07 7.049 3.229 14.227 6.125 21.516 8.68-2.808 20.283-5.695 40.552-8.591 60.816z"/><path d="m627.329 756.38c-5.926-2.113-11.771-4.471-17.543-7.051 8.039-8.9 15.535-18.152 22.207-27.768-1.506 11.614-3.072 23.215-4.664 34.819z"/><path d="m633.96 705.739c-8.516 14.33-19.111 27.781-30.781 40.521-19.582-9.398-38.297-21.174-56.23-33.891 10.379-9.428 20.48-18.953 30.324-28.414 20.854-1.836 41.441-5.236 60.684-11.527-1.257 11.114-2.61 22.214-3.997 33.311z"/><path d="m626.759 663.763c-38.75 10.531-81.396 10.631-121.26 10.82-39.391.18-80.029-1.107-118.58-9.822-56.354-12.729-56.668-81.617-58.986-130.145 16.555 2.51 34.195 1.854 50.621 2.334 39.072 1.148 78.176 1.328 117.26 1.174 39.383-.16 78.775-.836 118.119-2.563 22.6-.99 46.4-1.287 68.834-5.766-2.243 47.753-2.184 119.333-56.008 133.968z"/></g><path d="m685.325 517.464c-23.057 5.406-47.9 5.496-71.393 6.584-35.49 1.656-71.039 2.244-106.57 2.496-4.527.031-20.242 1.102-7.875-8.527 33.615-26.16 81.564-20.336 123.27-24.721 15.275-1.602 57.771-11.617 62.992-31.248 10.959 15.849 10.17 38.754-.424 55.416z" fill="#ff7cc6"/><path d="m636.499 452.069c24.027-6.508 50.6-21.682 40.143-51.203-1.619-4.574-3.666-8.832-5.928-12.93 1.479 8.531.799 17.652-1.441 25.455-4.012 13.965-17.627 22.32-30.322 27.244-26.305 10.201-56.709 10.24-84.455 11.762-57.607 3.156-118.996 5.373-169.16 37.422-14.098 9.008-29.762 20.242-38.1 35.209 8.621.463 17.355.482 25.906.494 37.348-47.662 100.072-57.529 157.117-62.504 34.601-3.011 72.67-1.857 106.24-10.949z" fill="#f75093"/><path d="m499.351 257.208c20.865-.705 41.799.158 62.615 2.271 1.285-18.795-2.082-35.512-12.486-52.367-8.607-13.951-19.131-27.295-25.73-42.379-10.029-22.922-10.963-48.664 4.516-69.668 12.031-16.334 28.563-26.26 46.998-17.678-9.791-10.637-29.326-9.832-41.596-3.881-19.078 9.254-29.801 32.762-32.857 52.604-4.578 29.729 11.994 52.146 22.18 78.443 5.145 13.289 3.689 27.682-5.094 38.996-5.039 6.491-11.562 10.434-18.546 13.659z" fill="#f75093"/><path d="m347.042 392.159c2.994-1.723 6.09-3.314 9.279-4.758 78.508-35.529 162.348-18.582 245.045-28 17.277-1.971 50.928-7.947 48.957-32.102-.779-9.58-4.146-17.986-9.277-25.1.867 6.174 1.34 12.354.117 18.586-1.918 9.77-11.256 16.375-19.402 20.715-13.832 7.367-30.848 8.492-46.17 9.152-33.432 1.449-66.723-1.371-100.133-1.934-32.77-.549-65.67 2.352-95.953 15.688-14.924 6.57-32.346 17.895-43.904 32.357 3.066.05 7.781-2.498 11.441-4.604z" fill="#f75093"/><path d="m685.325 517.464c8.285-13.033 10.541-29.871 5.902-44.178-2.59 15.063-13.531 22.906-29.553 27.789-16.615 5.068-34.168 6.18-51.373 7.699-25.543 2.264-51.635 4.895-76.67 10.57-7.482 1.695-15.865 3.885-23.693 7.172 34.676-.26 69.363-.854 103.994-2.469 23.493-1.087 48.337-1.177 71.393-6.583z" fill="#f75093"/><path d="m675.784 602.347c-9.578 11.541-21.336 21.316-35.904 28.725-36.744 18.695-81.934 22.49-122.453 21.641-38.563-.809-87.457-6.148-118.543-31.221-16.07-12.965-24.535-32.277-21.135-52.766 2.271-13.695 9.611-23.369 19.078-31.348-6.092-.131-12.184-.246-18.273-.428-16.426-.48-34.066.176-50.621-2.334 2.318 48.527 2.633 117.416 58.986 130.145 38.551 8.715 79.189 10.002 118.58 9.822 39.863-.189 82.51-.289 121.26-10.82 29.271-7.961 42.59-32.768 49.025-61.416z" fill="#f5b179"/><path d="m466.81 768.667c3.027-2.123 6.063-4.232 9.051-6.422-16.635-13.982-32.855-28.527-48.447-43.697-3.084-2.998-6.184-5.984-9.215-9.039-12.98 7.143-26.418 13.389-40.455 18.143.461 3.508.941 7.012 1.408 10.52 7.996-1.998 15.863-4.736 23.566-7.92 18.723-7.73 17.838-6.266 29.85 6.143 10.937 11.305 22.406 21.987 34.242 32.272z" fill="#f5b179"/><path d="m472.081 773.235c-15.406 10.893-31.238 21.025-47.559 29.922 2.068 2.045 4.23 3.98 6.324 6.004 11.131-6.297 22.002-13.096 32.693-20.189 14.129-9.371 17.455-8.193 29.57 1.561 4.113 3.311 8.256 6.594 12.43 9.846 7.129 5.553 14.332 10.973 21.627 16.234 2.848-2.441 5.709-4.883 8.525-7.344-13.748-9.895-27.123-20.266-40.135-30.766-2.563-2.064-5.102-4.174-7.65-6.262-2.24-1.834-4.492-3.646-6.725-5.5-3.006 2.213-6.057 4.346-9.1 6.494z" fill="#f5b179"/><path d="m528.747 719.362c2.424-2.137 4.871-4.258 7.268-6.408-12.006-8.752-23.67-17.846-35.061-26.857-3.811.008-7.693.021-11.623.035 11.166 12.637 25.123 23.633 39.416 33.23z" fill="#f5b179"/><path d="m413.14 704.409c-8.334-8.582-16.414-17.391-24.221-26.432-3.445-.885-6.818-1.902-10.145-2.994 8.051 11.697 17.963 22.469 27.641 32.93 2.252-1.148 4.502-2.299 6.725-3.504z" fill="#f5b179"/><path d="m409.188 907.472c-2.283 1.156-4.535 2.379-6.838 3.49 1.223 4.191 2.816 8.041 4.881 11.352 1.408-.701 2.813-1.416 4.215-2.141 8.92-4.592 7.475-2.396 15.924 6.201 2.242 2.281 4.426 4.498 6.529 6.639 2.365 2.41 4.785 4.682 7.186 7.002 6.844 1.637 13.865 2.797 20.936 3.58-14.969-13.15-29.57-26.709-43.635-40.813-3.032 1.637-6.127 3.139-9.198 4.69z" fill="#f5b179"/><path d="m405.194 805.374c2.693-1.295 5.393-2.576 8.059-3.949-10.531-10.73-20.674-21.824-30.092-33.469.543 3.895 1.105 7.789 1.652 11.684 6.713 8.68 13.533 17.172 20.145 25.451.076.094.16.189.236.283z" fill="#f5b179"/><path d="m413.274 897.677c-5.188-5.307-10.24-10.74-15.252-16.227.334 4.926.771 10.047 1.439 15.094 1.635 1.912 3.281 3.795 4.947 5.662 2.966-1.484 5.937-2.959 8.866-4.529z" fill="#f5b179"/><path d="m528.386 912.374c2.541-2.131 5.131-4.182 7.652-6.342-19.184-13.555-37.711-28.08-55.643-43.182-3.418 2.521-6.881 4.982-10.344 7.438-14.689 10.42-29.785 20.215-45.393 29 2.943 2.936 6.01 5.742 8.996 8.635 10.807-6.391 21.396-13.264 31.84-20.473 16.156-11.154 14.523-8.828 26.781.266 11.751 8.707 23.79 16.914 36.111 24.658z" fill="#f5b179"/><path d="m464.589 865.792c3.51-2.465 7.018-4.939 10.48-7.475-3.578-3.059-7.154-6.113-10.688-9.207-15.652-13.713-31.26-27.824-46.141-42.639-2.842 1.484-5.723 2.865-8.592 4.271-6.34 3.113-12.719 6.107-19.188 8.824.479 3.355.951 6.711 1.432 10.061 2.701-1.088 5.375-2.307 8.016-3.598 19.561-9.557 18.514-4.57 32.496 9.785 10.23 10.503 20.982 20.505 32.185 29.978z" fill="#f5b179"/><path d="m436.354 713.769c14.832-8.1 28.402-16.973 40.053-27.627-6.617-.014-13.322-.064-20.092-.234-10.412 6.992-21.027 13.803-31.936 20.094 3.084 3.1 6.234 6.131 9.371 9.174.868-.468 1.743-.937 2.604-1.407z" fill="#f5b179"/><path d="m511.964 754.896c5.795-4.227 11.428-8.598 16.932-13.086 20.086-16.367 15.148-12.459 30.959-3.338 1.184.684 2.354 1.354 3.508 2.016 9.344 5.346 19.203 10.996 29.414 16.566 1.828-1.852 3.715-3.65 5.506-5.531-16.541-8.107-32.41-17.871-47.764-28.391-2.939-2.016-5.891-4.008-8.789-6.076-17.555 15.754-35.842 31.158-54.871 45.477 2.27 1.871 4.545 3.732 6.822 5.596 6.127-4.392 12.22-8.812 18.283-13.233z" fill="#f5b179"/><path d="m498.632 945.179c3.553-.027 7.188-.086 10.863-.176 7.764-5.744 15.412-11.658 22.945-17.693 9.082-7.271 13.412-4.361 22.732.824 5.23 2.914 10.514 5.738 15.865 8.455 2.678-.855 5.34-1.746 7.922-2.779-12.627-7.439-24.986-15.363-37.076-23.715-14.13 12.125-28.622 23.777-43.251 35.084z" fill="#f5b179"/><path d="m608.634 852.704c-1.584-.715-3.18-1.408-4.75-2.158-17.73 19.297-36.756 37.525-56.59 54.822 2.025 1.393 4.111 2.703 6.152 4.074 13.281-11.832 26.014-24.281 38.057-37.373 10.91-11.832 9.605-10.645 20.314-5.523.094-.764.178-1.537.283-2.293.439-3.121.891-6.242 1.332-9.363-1.609-.707-3.201-1.457-4.801-2.186z" fill="#f5b179"/><path d="m579.239 695.171c4.109-4.264 8.113-8.469 11.936-12.709-4.615.58-9.248 1.084-13.902 1.494-9.844 9.461-19.945 18.986-30.324 28.414 2.867 2.031 5.789 3.992 8.697 5.971 8.011-7.51 15.894-15.182 23.593-23.17z" fill="#f5b179"/><path d="m613.581 758.427c-2.918-1.205-5.826-2.43-8.703-3.746-18.34 19.518-38.91 37.385-58.1 54.07 3.385 2.371 6.816 4.674 10.25 6.967 14.771-13.057 29.039-26.67 42.383-41.074 8.746-9.432 12.008-7.529 25.568-1.273.465-3.336.951-6.674 1.414-10.01-4.316-1.512-8.578-3.184-12.812-4.934z" fill="#f5b179"/><path d="m613.077 847.315c.584-.723 1.166-1.447 1.744-2.176.387-2.734.775-5.465 1.166-8.189-2.416 2.801-4.811 5.617-7.281 8.379 1.449.678 2.912 1.33 4.371 1.986z" fill="#f5b179"/><path d="m609.786 749.329c2.705 1.209 5.432 2.359 8.172 3.471 4.229-5.486 8.271-11.107 12.109-16.865.639-4.793 1.305-9.578 1.926-14.373-6.672 9.615-14.168 18.867-22.207 27.767z" fill="#f5b179"/><path d="m541.456 813.37c-2.824 2.447-5.686 4.885-8.539 7.322-15.162 12.961-30.709 25.746-46.777 37.871 2.986 2.496 6.006 4.951 9.02 7.412 6.84-5.176 13.648-10.443 20.434-15.795 4.744-3.742 9.463-7.541 14.152-11.383 14.031-11.508 17.945-7.848 30.033-.35 9.732 6.029 19.689 11.729 29.939 17.004 2.578-2.689 5.188-5.357 7.717-8.092-15.756-7.938-30.947-17.104-45.689-26.982-3.448-2.308-6.893-4.618-10.29-7.007z" fill="#f5b179"/><path d="m653.446 568.356c-1.639-13.277-17.213-18.881-28.705-16.533-11.127.986-22.211 2.654-33.338 3.611-14.502 1.25-29.215.662-43.752.734-25.621.121-50.871-.568-76.445-2.119-13.949-.846-30.434 3.67-30.271 20.422.146 15.188 20.854 25.393 32.258 30.875 22.016 10.578 46.893 13.811 71.066 13.834 24.191.021 50.561-1.975 73.705-9.494 17.25-5.599 38.004-20.917 35.482-41.33z" fill="#fff9d1"/><path d="m350.948 463.356c29.385-19.887 65.498-30.154 100.166-35.82 38.564-6.307 77.43-8.061 116.326-10.916 17.168-1.26 34.975-2.734 51.367-8.379 9.006-3.102 18.938-7.088 25.611-14.229 8.262-8.842 9.629-16.686 7.031-23.846-1.541 5.838-4.275 11.275-9.01 15.916-9.941 9.738-25.361 13.24-38.57 15.678-35.758 6.604-73.381 3.77-109.527 5.271-43.201 1.795-87.674 7.754-125.531 30.047-23.814 14.021-55.008 44.236-52.717 74.76.531.867 1.045 1.74 1.619 2.604-.192-20.099 18.157-40.88 33.235-51.086z" fill="#ef7492"/><path d="m568.87 478.347c-25.84 1.066-50.754 6.215-73.789 18.268-12.65 6.615-27.559 17.027-36.717 29.916 7.58.027 15.158.068 22.738.055 22.869-27.672 55.67-35.357 90.953-37.203 20.949-1.092 42.512-.637 63.148-4.865 8.965-1.834 29.973-7.789 39.145-17.467 2.438-2.572 3.51-5.51 3.42-8.338-7.295 5.842-15.426 10.576-24.652 13.6-26.455 8.672-56.828 4.895-84.246 6.034z" fill="#ef7492"/><path d="m352.827 350.2c19.477-18.115 44.023-29.035 69.74-35.18 31.705-7.576 64.014-10.334 96.564-10.262 15.252.035 72.625 6.277 94.93-8.131-22.586 4.816-46.246 3.813-69.934 3.152-40.422-1.125-81.082-.428-120.807 7.834-25.742 5.352-50.193 16.852-70.895 33.033-9.738 7.609-20.096 19.092-24.404 31.643-.055 3.113.084 6.242.629 9.377 4.917-12.253 15.638-23.515 24.177-31.466z" fill="#ef7492"/><path d="m554.36 181.72c8.996 12.963 19.758 24.395 30.039 36.322 6.803 7.893 12.752 15.637 16.145 25.584 2.76 8.086 1.521 14.477-.41 21.646 2.926.684 5.848 1.412 8.729 2.271 4.113-36.938-23.809-54.746-45.297-78.934-6.688-7.527-11.768-15.201-15.484-23.502-4.328-8.514-6.725-18.535-7.318-26.607-.83-11.283 1.25-23.934 8.771-32.547.176-.203.303-.318.467-.504-.094.045-.191.014-.283.086-24.077 18.866-9.452 55.876 4.641 76.185z" fill="#ef7492"/><path d="m391.712 279.308c9.963-4.461 20.232-8.207 30.484-11.094 13.318-23.873 41.264-33.299 47.707-62.99 5.52-25.41.223-51.395 5.494-76.732 6.072-29.18 23.133-58.641 49.029-70.5-15.816 2.953-28.811 14.594-38.627 27.531-15.928 21.004-20.465 45.535-22.539 71.26-1.123 13.975-1.061 28.082-3.408 41.926-2.748 16.189-11.676 28.355-23.332 39.355-13.3 12.552-37.136 23.3-44.808 41.244z" fill="#ef7492"/><path d="m550.831 114.89c-4.293 14.824-1.063 27.184 3.123 36.146 5.863 12.557 15.754 14.543 25.557 9.201 6.23-3.396 10.791-7.975 13.877-13.313 7.623-13.182 6.307-30.686-3.162-45.855 6.809 20.4 7.156 44.736-14.773 52.463-20.556 7.24-26.02-21.363-24.622-38.642z" fill="#ef7492"/><path d="m588.401 108.091c-2.066-5.82-6.41-9.053-10.881-9.148-8.461-.18-15.098 9.674-15.402 23.563-.1 4.482.744 8.908 2.57 12.578 4.777 9.611 14.344 12.867 21.072 3.463 6.382-8.923 6.18-20.495 2.641-30.456z" fill="#ffe3de"/><path d="m525.269 117.354c-.881 3.701-1.527 7.434-1.861 11.092-.703 7.658.313 15.209 2.336 22.576.229.701.42 1.402.68 2.096 8.117 21.596 23.98 38.398 33.822 58.986 5.184 10.848 7.85 21.322 8.643 32.232 5.5-23.094-16.111-55.223-25.041-72.637-9.541-18.605-15-38.199-8.201-58.676 3.16-9.512 10.039-17.584 18.592-22.609 9.238-5.418 18.234-2.068 27.586.033-.113-.117-.213-.238-.326-.352-9.361-9.346-21.26-13.707-33.037-5.635-11.418 7.832-19.477 19.758-23.193 32.894z" fill="#ffe3de"/><path d="m394.438 299.104c20.383-9.305 42.971-14.926 64.91-19.166 24.713-4.781 49.916-6.469 75.057-6.383 24.24.082 48.295 3.49 72.377 5.623-34.313-10.48-73.162-12.094-108.779-10.561-40.406 1.744-82.967 8.586-118.029 30.109-15.021 9.219-31.088 23.58-41.338 40.291 16.584-15.936 33.789-29.87 55.802-39.913z" fill="#ffe3de"/><path d="m647.692 467.899c10.926-2.105 20.031-7.623 27.695-15.287-1.027-1.219-2.334-2.32-4.006-3.201-18.523 13.955-45.881 17.277-68.092 19.104-64.018 5.268-151.027 1.494-203.607 45.652-10.213 8.586-5.09 11.064 2.361 11.693-.508-12.943 42.639-29.938 50.471-32.768 33.078-11.949 67.975-18.092 103-20.252 30.426-1.874 62.147.839 92.178-4.941z" fill="#ffe3de"/><path d="m432.989 189.042c-28.109 28.348-61.598 48.041-62.941 87.006 5.617-15.236 13.604-29.076 24.732-42.1 15.305-17.918 35.566-31.918 49.58-50.797 14.549-19.6 15.117-43.359 17.307-66.75 1.246-13.293 3.32-26.354 9.734-38.232 4.449-8.234 11.627-13.082 18.854-17.998-6.334 3.172-12.135 7.578-17.043 13.457-17.223 20.619-12.678 46.111-17.506 70.559-3.385 17.125-10.301 32.335-22.717 44.855z" fill="#ffe3de"/><path d="m351.585 410.788c34.451-22.262 78.742-26.225 118.6-27.398 38.803-1.137 77.98 1.025 116.533-4.479 18.305-2.609 37.221-8.932 52.381-19.775-33.936 16.271-95.508 14.031-120.695 14.152-51.895.252-108.693.266-156.271 24.053-39.428 19.717-67.715 63.061-51.447 103.766-3.381-17.736-4.287-33.418 4.645-51.359 8.057-16.194 21.195-29.233 36.254-38.96z" fill="#ffe3de"/><path d="m547.981 352.497c-.24.041-.24.445 0 .486 25.73 4.42 61.016 5.672 83.189-10.061.545-.387.207-1.16-.441-1.053-14.152 2.42-28.098 5.551-42.383 7.16-13.398 1.513-27.072 1.216-40.365 3.468z" fill="#68182b"/><path d="m640.188 336.995c-.02-.252-.207-.498-.486-.486-2.416.137-4.984 1.836-5.582 4.18-.018.066.008.148.074.184 2.473 1.401 6.217-.94 5.994-3.878z" fill="#68182b"/><path d="m515.192 455.063c21.818-1.488 44.807.32 65.986-5.842.668-.197.561-1.277-.166-1.242-25.066 1.277-50.113.271-75.17 2.803-26.318 2.662-54.98 7.82-75.639 25.473-.223.193.063.535.303.396 25.987-14.81 55.233-19.578 84.686-21.588z" fill="#68182b"/><path d="m681.956 477.978c-17.045 17.387-40.221 19.518-62.725 24.838-.5.117-.35.814.115.852 20.256 1.564 54.449-3.752 62.971-25.482.08-.208-.218-.353-.361-.208z" fill="#68182b"/><path d="m607.403 503.315c-.191.055-.268.307-.119.449 1.27 1.215 2.061 1.795 3.922 1.844 1.576.045 2.998-.549 4.061-1.703.248-.266.131-.666-.207-.783-2.706-.932-5.028-.535-7.657.193z" fill="#68182b"/><path d="m371.458 314.454c14.541-8.58 28.236-15.992 44.49-21.209 18.551-5.955 37.801-8.67 56.65-13.383.633-.158.461-1.063-.148-1.098-20.686-1.16-41.559 4.434-60.998 11.117-13.568 4.658-32.414 11.359-40.289 24.275-.113.187.109.407.295.298z" fill="#68182b"/><path d="m484.085 279.349c.268-.063.377-.449.166-.635-2.244-1.982-5.457-2.396-7.582.076-.133.154-.086.389.119.451 2.563.791 4.729.701 7.297.108z" fill="#68182b"/><path d="m591.341 121.017c-.24-.648-1.09-.504-1.166.16-.713 6.145-2.705 12.818-5.223 18.457-2.768 6.207-7.682 9.688-12.295 14.32-.113.117-.027.307.127.311 15.278.589 22.924-21.33 18.557-33.248z" fill="#68182b"/><path d="m525.042 663.403c-38.164-6.387-76.941-3.676-115.076-9.68-13.139-2.068-26.049-5.576-37.352-12.768-11.986-7.623-16.686-19.883-23.465-31.576-.201-.342-.797-.211-.771.207 1.574 27.201 26.604 44.029 50.613 49.85 17.096 4.146 35.068 4.875 52.568 5.67 24.533 1.121 48.791 1.094 73.305-.4.707-.045.955-1.178.178-1.303z" fill="#68182b"/><path d="m538.077 662.378c-2.193.045-4.738.314-6.357 1.906-.223.215-.082.521.166.629 2.182.908 4.898.773 7.229.811 2.783.039 5.045-.086 7.377-1.754.336-.244.336-.811-.119-.922-2.808-.707-5.411-.721-8.296-.67z" fill="#68182b"/></g></g></svg>