<?xml version="1.0" encoding="iso-8859-1"?>
<!-- Generator: Adobe Illustrator 26.5.1, SVG Export Plug-In . SVG Version: 6.00 Build 0)  -->
<svg xmlns="http://www.w3.org/2000/svg" xmlns:xlink="http://www.w3.org/1999/xlink" version="1.1" id="Capa_1" x="0px" y="0px" viewBox="0 0 512 512" style="enable-background:new 0 0 512 512;" xml:space="preserve">
<g>
	<g>
		<polygon style="fill:#FFF4E1;" points="0,149.834 69.372,383.965 162.591,318.928 281.824,361.202 357.7,285.326 463.926,321.096     419.485,64.203 302.419,32.768 211.368,122.735 87.799,76.126   "/>
		<g>
			<path style="fill:#6BC0CE;" d="M432.513,199.045c-0.455-0.156-0.893-0.343-1.345-0.508L395.998,97.082l-71.54-19.511     l-31.773-22.755l-80.775,76.591l-14.373-4.986l-82.28,15.825l-11.921-9.032l-78.058,63.923l50.772,171.372l83.29-61.871     l30.003,11.642l163.633-39.564l3.099-3.144l94.737,25.408L432.513,199.045z"/>
			<path style="fill:#FFB31F;" d="M353.364,271.777c-0.108,2.319-0.239,4.639-0.39,6.938l-73.774,74.466l-89.859-34.902     c8.803-14.439,11.923-35.727,15.522-48.669c3.252-12.465,5.962-7.588,9.214,2.168c4.336,10.839,13.007,15.717,23.847,7.588     c7.588-5.42,14.633-21.679,7.588-29.808c-8.13-9.213-23.847-3.794-34.144-4.878c-13.549-1.626-12.465-12.465-7.046-23.305     c8.672-18.969,34.144-27.099,53.113-30.892c25.473-5.42,69.372-5.42,85.631,18.969     C354.448,226.252,353.906,252.808,353.364,271.777z"/>
			<g>
				<path style="fill:#FFB31F;" d="M197.537,126.421c-2.255,7.522-5.464,14.828-10.016,21.787      c-7.046,11.381-16.801,20.053-21.679,32.518c-5.42,14.091-4.878,29.266-4.878,44.442c0,28.724,1.626,62.869-29.808,74.792      c-30.892,11.923-51.487-11.381-41.732-41.19c5.42-16.801,17.885-35.228,29.808-48.235c6.504-8.13,21.679-18.969,17.343-30.892      c-4.336-11.381-20.595-13.007-30.892-10.297c-16.801,4.336-23.847,18.969-27.099,34.686c-0.542,3.794-2.71,33.602-10.297,29.266      c-5.962-2.71,0.542-22.763-2.168-28.182c-5.267-10.861-24.259-12.118-40.842-7.978l-13.115-44.225l76.568-64.277      L197.537,126.421z"/>
			</g>
			<g>
				<path style="fill:#FFB31F;" d="M432.513,199.045c-10.405-3.556-19.706-9.669-26.578-19.403      c-8.672-12.465,8.672-44.442-7.588-47.151c-28.182-4.878-14.633,30.892-8.672,42.274c3.252,5.962,10.839,16.801,8.13,23.847      c-3.252,10.839-17.885,5.962-26.015,3.252c-21.137-8.13-35.228-17.885-26.557-42.274c5.42-16.259,14.633-31.976,18.969-48.777      c3.252-11.923-6.504-13.007-17.343-15.175c-9.213-1.084-20.595-2.71-23.847,7.588c-3.252,11.381,1.626,17.343-14.091,18.969      c-11.381,1.084-22.221-2.168-30.892-9.755c-17.885-15.175-3.252-31.976,8.13-46.067c3.491-4.357,5.896-7.805,6.525-11.555      l13.528-12.834l103.43,29.787L432.513,199.045z"/>
			</g>
		</g>
		<path style="fill:#FFF4E1;" d="M442.474,222.482L342.11,201.001l-21.078-96.787l101.893,16.441l0.347-2.14l-102.735-16.577    l-14.169-65.065l-2.117,0.461l14.18,65.114l-92.061,70.508l-13.962-46.916l-2.079,0.618l13.869,46.601l-115.757-29.131    L89.192,84.105l-2.066,0.663l19.21,59.899L24.585,212.59l1.385,1.668l81.08-67.366l28.612,89.219l-86.427,61.16l1.253,1.77    l85.868-60.767l24.118,75.206l2.066-0.661l-23.965-74.728l113.888,30.148l26.154,87.883l2.079-0.618l-26.112-87.74l85.917-63.975    l16.862,77.433l2.117-0.461l-16.862-77.434l99.403,21.276L442.474,222.482z M137.79,235.64l-28.568-89.079l115.696,29.115    l26.821,90.129L137.79,235.64z M253.926,265.55l-26.893-90.368l91.908-70.394l21.052,96.675L253.926,265.55z"/>
		<g>
			<path style="fill:#007725;" d="M35.594,166.816c-10.958,5.438,7.416,18.101,7.416,18.101S48.883,160.22,35.594,166.816z      M39.172,172.724c-0.91,0.498-2.2-0.116-2.885-1.376c-0.688-1.257-0.512-2.672,0.4-3.17c0.908-0.499,2.197,0.117,2.885,1.375     C40.26,170.809,40.08,172.227,39.172,172.724z"/>
			<path style="fill:#007725;" d="M122.223,271.492c-10.958,5.438,7.416,18.101,7.416,18.101S135.512,264.897,122.223,271.492z      M125.801,277.4c-0.91,0.497-2.2-0.117-2.886-1.376c-0.688-1.257-0.512-2.672,0.4-3.17c0.908-0.499,2.198,0.117,2.886,1.375     C126.889,275.485,126.709,276.903,125.801,277.4z"/>
			<path style="fill:#007725;" d="M322.739,275.2c-12.044,2.145,2.039,19.455,2.039,19.455S337.345,272.598,322.739,275.2z      M324.515,281.874c-1.012,0.222-2.077-0.729-2.384-2.131c-0.307-1.398,0.258-2.708,1.275-2.93     c1.012-0.224,2.077,0.729,2.384,2.129C326.097,280.342,325.527,281.653,324.515,281.874z"/>
			<path style="fill:#007725;" d="M256.93,222.98c-10.958,5.438,7.416,18.101,7.416,18.101S270.219,216.384,256.93,222.98z      M260.508,228.887c-0.91,0.498-2.2-0.116-2.886-1.376c-0.688-1.257-0.512-2.672,0.4-3.17c0.908-0.499,2.198,0.118,2.886,1.375     C261.596,226.972,261.416,228.391,260.508,228.887z"/>
			<path style="fill:#007725;" d="M379.328,179.472c-11.913,2.776,3.063,19.32,3.063,19.32S393.777,176.102,379.328,179.472z      M381.454,186.043c-0.999,0.275-2.113-0.618-2.492-2.002c-0.381-1.381,0.114-2.718,1.118-2.995     c0.997-0.276,2.111,0.619,2.492,2.002C382.953,184.429,382.453,185.768,381.454,186.043z"/>
			<path style="fill:#007725;" d="M286.918,85.556c-10.958,5.438,7.416,18.101,7.416,18.101S300.207,78.961,286.918,85.556z      M290.496,91.464c-0.91,0.498-2.2-0.116-2.886-1.376c-0.688-1.257-0.512-2.672,0.4-3.17c0.908-0.499,2.198,0.118,2.886,1.375     C291.584,89.549,291.404,90.968,290.496,91.464z"/>
		</g>
	</g>
	<g>
		<polygon style="fill:#FFD076;" points="355.358,267.646 302.683,427.741 429.367,476.272 508.941,313.811 501.248,305.525   "/>
		<polygon style="fill:#003343;" points="357.329,253.343 505.687,304.637 431.507,465.227 307.221,420.245 307.221,428.531     431.114,472.25 508.055,310.556 512,314.5 431.706,479.232 299.725,428.531   "/>
		<path style="fill:#ADDE51;" d="M429.257,454.695l-116.535-43.251l0.305-0.881l48.83-141.134l131.525,39.638L429.257,454.695z     M315.136,410.303l113.1,41.977l62.532-142.011l-127.706-38.487L315.136,410.303z"/>
		<path style="fill:#ADDE51;" d="M408.583,303.744c-19.943,0-36.169,14.655-36.169,32.668c0,17.313,15,31.484,33.872,32.564    l0.002,0.004c0.002-0.002,0.006-0.004,0.006-0.004c0.762,0.043,1.518,0.104,2.289,0.104c19.943,0,36.169-14.655,36.169-32.668    C444.752,318.399,428.527,303.744,408.583,303.744z M442.313,331.202l-10.19-3.625c0.091-6.389-0.855-11.728-1.546-14.718    C436.656,317.443,440.914,323.887,442.313,331.202z M405.856,367.048c-2.353-0.168-4.639-0.544-6.835-1.118l6.224-17.215    l16.743,5.022C418.316,358.733,413.121,363.351,405.856,367.048z M412.635,322.67l-4.357,12.049l-16.922-5.43    c0.71-2.558,1.664-5.069,2.943-7.448c0.89-1.654,1.932-3.171,3.072-4.599L412.635,322.67z M398.703,315.692    c4.046-4.409,9.402-7.611,16.046-9.515c1.215,0.199,2.407,0.448,3.573,0.759l-5.039,13.94L398.703,315.692z M407.628,336.515    l-3.564,9.858l-14.426-4.326c0.056-3.551,0.415-7.257,1.25-10.903L407.628,336.515z M403.416,348.169l-6.226,17.218    c-1.613-0.512-3.182-1.108-4.674-1.824c-0.544-1.857-2.731-9.92-2.878-19.526L403.416,348.169z M405.893,346.922l3.552-9.823    l18.185,5.834c-1.069,3.087-2.537,6.173-4.504,9.156L405.893,346.922z M410.096,335.302l4.335-11.993l15.761,5.605    c-0.151,3.83-0.717,7.99-1.973,12.203L410.096,335.302z M415.079,321.517l5.071-14.023c2.876,0.931,5.579,2.181,8.044,3.733    c0.432,1.479,2.07,7.664,2.042,15.679L415.079,321.517z M410.189,305.724c-5.447,2.148-9.95,5.242-13.452,9.269l-8.742-3.109    c5.739-3.893,12.857-6.233,20.588-6.233C409.125,305.652,409.652,305.702,410.189,305.724z M386.121,313.241l9.364,3.331    c-1.049,1.373-2.029,2.811-2.869,4.374c-1.341,2.493-2.344,5.104-3.092,7.757l-12.591-4.041    C378.979,320.236,382.155,316.344,386.121,313.241z M376.209,326.433l12.835,4.119c-0.864,3.66-1.263,7.36-1.354,10.911    l-13.308-3.992c-0.013-0.354-0.06-0.7-0.06-1.058C374.322,332.916,375.008,329.568,376.209,326.433z M374.495,339.495    l13.174,3.951c0.043,8.228,1.6,15.381,2.515,18.872C381.574,357.371,375.565,349.085,374.495,339.495z M423.942,354.323    l9.767,2.93c-6.022,5.849-14.521,9.59-23.999,9.867C415.999,363.431,420.602,359.027,423.942,354.323z M435.22,355.717    l-10.167-3.05c1.913-2.988,3.344-6.069,4.402-9.148l11.207,3.597C439.359,350.253,437.526,353.157,435.22,355.717z     M441.363,345.335l-11.324-3.633c1.243-4.177,1.833-8.299,2.019-12.125l10.613,3.774c0.112,1.008,0.173,2.028,0.173,3.06    C442.844,339.516,442.319,342.509,441.363,345.335z"/>
		<path style="fill:#ADDE51;" d="M365.419,355.43l-9.864,9.275c29.394,40.347,81.871,20.621,81.871,20.621l-2.671-12.336    C391.671,387.01,365.419,355.43,365.419,355.43z"/>
		
			<rect x="383.471" y="368.616" transform="matrix(0.3197 -0.9475 0.9475 0.3197 -116.4314 638.3628)" style="fill:#ADDE51;" width="5.721" height="63.293"/>
		
			<rect x="377.733" y="392.264" transform="matrix(0.3191 -0.9477 0.9477 0.3191 -133.7012 642.9517)" style="fill:#ADDE51;" width="5.723" height="44.514"/>
	</g>
</g>
<g>
</g>
<g>
</g>
<g>
</g>
<g>
</g>
<g>
</g>
<g>
</g>
<g>
</g>
<g>
</g>
<g>
</g>
<g>
</g>
<g>
</g>
<g>
</g>
<g>
</g>
<g>
</g>
<g>
</g>
</svg>
