<svg width="762" height="982" viewBox="0 0 762 982" fill="none" xmlns="http://www.w3.org/2000/svg">
<g filter="url(#filter0_dd_38_1012)">
<path d="M517.509 39.6012L744 10V925.763L517.509 955.364V39.6012Z" fill="white"/>
<path d="M64.4913 39.6012L290.983 10V925.763L64.4913 955.364V39.6012Z" fill="#FAFAF9"/>
<path d="M517.509 39.6012L290.983 10V925.763L517.509 955.364V39.6012Z" fill="#FAFAF9"/>
<path d="M64.4913 39.6012L-162 10V925.763L64.4913 955.364V39.6012Z" fill="#FAFAF9"/>
<path d="M517.509 59.0927L722.39 32.5488V904.639L517.509 931.183V59.0927Z" fill="#E8E5D4"/>
<path d="M64.4913 60.7256L290.983 32.5488V904.639L64.4913 932.816V60.7256Z" fill="#E8E5D4"/>
<path d="M517.509 59.9263L290.983 33.3477V905.473L517.509 932.017V59.9263Z" fill="#ECEADD"/>
<path d="M64.4913 60.7256L-140.39 32.5488V904.639L64.4913 932.816V60.7256Z" fill="#ECEADD"/>
<path d="M40.5532 57.4593L22.2782 120.032L17.97 134.798L-27.2309 289.023L-29.8714 295.138L-43.1086 290.135L-140.39 253.446V237.012L-37.8276 275.751L26.5864 55.5137L40.5532 57.4593Z" fill="white"/>
<path d="M252.279 37.3779L243.975 42.4157L229.522 51.1015L139.155 105.648L126.89 113.083L65.2906 150.259L64.4914 150.016L17.9702 134.798L11.5427 132.713L15.3992 117.774L22.2784 120.032L63.6923 133.582L64.4914 133.096L215.451 41.964V41.9293H215.486L230.668 40.0879L238.625 39.0803H238.694L252.279 37.3779Z" fill="white"/>
<path d="M474.149 54.8537L462.371 103.981L458.41 120.588L393.163 391.759L389.584 406.803L389.549 406.977L341.152 388.181L324.406 381.267L290.774 367.369L286.605 365.632L279.795 354.897L126.89 113.083L123.346 107.49L134.638 98.4913L139.155 105.648L206.696 212.449L215.798 226.868L295.395 352.708L380.099 386.548L423.841 204.945L427.732 188.72L460.252 53.186L474.149 54.8537Z" fill="white"/>
<path d="M434.299 194.382L425.891 206.716L423.841 204.944L290.983 90.6043L287.161 87.3037L278.857 82.0575L266.767 74.4835L229.522 51.1013L226.221 49.0167L230.668 40.0876L238.625 39.0801H238.694L243.975 42.4155L290.983 72.0167L295.152 74.6224L427.732 188.719L434.299 194.382Z" fill="white"/>
<path d="M722.355 254.662V271.478L686.361 254.627L673.471 248.547L513.826 173.676L458.41 120.588L449.342 111.902L458.271 100.055L462.371 103.981L521.157 160.265L722.355 254.662Z" fill="white"/>
<path d="M589.393 684.263L575.982 680.441L674.93 242.051L688.341 245.873L589.393 684.263Z" fill="white"/>
<path d="M722.355 626.693V642.953L553.676 702.051L540.266 706.776H540.231L520.844 713.551L312.906 908.009L293.693 905.751L365.438 838.696L379.856 825.181L443.089 766.083L454.484 755.451L514.139 699.654L576.607 677.765L592.103 672.311L722.355 626.693Z" fill="white"/>
<path d="M516.675 456.312L382.496 404.301L386.944 389.605L518.308 440.539L637.72 427.962L639.006 443.422L516.675 456.312Z" fill="white"/>
<path d="M213.992 231.037L201.588 224.192L269.65 67.8823L282.054 74.7267L213.992 231.037Z" fill="white"/>
<path d="M382.878 825.668L381.037 841.024L365.437 838.696L288.238 827.127L63.7964 748.815L-140.39 771.468V755.834L-2.21581 740.512L15.9202 738.531L65.2209 733.042L66.5411 733.528L194.744 778.243L209.232 783.281L291.226 811.874L379.856 825.181L382.878 825.668Z" fill="white"/>
<path d="M18.2133 740.963L8.72832 752.22L-2.21579 740.512L-140.39 592.992V571.555L-32.9288 686.347L-21.8805 698.09L15.9202 738.531L18.2133 740.963Z" fill="white"/>
<path d="M65.3599 444.465L-95.7793 436.126L-95.1539 420.596L63.6228 428.83L288.968 351.735L292.998 366.605L65.3599 444.465Z" fill="white"/>
<path d="M-23.3049 702.816L-36.4031 697.813L44.2013 432.201L57.2995 437.238L-23.3049 702.816Z" fill="white"/>
<path d="M722.355 510.685V526.354L627.714 514.541L621.704 513.777L623.232 498.351L631.119 499.324L722.355 510.685Z" fill="white"/>
<path d="M444.652 771.156L323.294 377.792L336.357 372.685L457.716 766.048L444.652 771.156Z" fill="white"/>
<path d="M202.109 792.314L191.791 781.961L286.64 662.409L396.324 594.694L402.96 608.314L295.36 674.743L202.109 792.314Z" fill="white"/>
<path d="M474.149 54.8537L462.371 103.981L458.41 120.588L393.163 391.759L389.584 406.803L389.549 406.977L341.152 388.181L324.406 381.267L290.774 367.369L286.605 365.632L279.795 354.897L126.89 113.083L123.346 107.49L134.638 98.4913L139.155 105.648L206.696 212.449L215.798 226.868L295.395 352.708L380.099 386.548L423.841 204.945L427.732 188.72L460.252 53.186L474.149 54.8537Z" fill="white"/>
<path d="M516.675 456.312L382.496 404.301L386.944 389.605L518.308 440.539L637.72 427.962L639.006 443.422L516.675 456.312Z" fill="white"/>
<path d="M382.878 825.668L381.037 841.059L365.403 838.696L288.238 827.127L199.399 796.136H199.33L108.824 764.519L63.7964 748.815L-140.39 771.468V755.834L-2.21581 740.512L15.9549 738.531L65.1861 733.042L66.5759 733.528L108.824 748.294L194.744 778.243L209.232 783.281H209.266L209.475 783.385L291.226 811.874L379.856 825.181L382.878 825.668Z" fill="white"/>
<path d="M457.716 766.048L444.652 771.121L395.768 612.761V612.726L391.182 597.856L324.371 381.267L323.294 377.792L324.927 377.132L336.357 372.685L341.152 388.181L408.067 605.152L457.716 766.048Z" fill="white"/>
<path d="M402.96 608.279V608.314L395.768 612.761L295.36 674.743L209.267 783.281L202.109 792.314L191.791 781.995L194.744 778.243L286.64 662.409L391.182 597.856L396.324 594.694L402.96 608.279Z" fill="white"/>
<path d="M650.749 913.915L636.053 915.826L540.266 706.776H540.231L537.59 700.939L549.889 693.817L553.676 702.051L650.749 913.915Z" fill="white"/>
<path d="M122.513 383.838L240.223 343.57L163.301 221.934L98.6093 243.649L122.513 383.838Z" fill="#BCD9D4"/>
<path d="M550.341 403.224L617.569 396.137L648.282 262.34L575.843 228.361L550.341 403.224Z" fill="#BCD9D4"/>
<path d="M722.355 215.889L571.083 148.522V52.144L722.39 32.5488L722.355 215.889Z" fill="#BCD9D4"/>
<path d="M82.2799 163.183L119.942 140.461L153.643 193.966L93.5715 214.499L82.2799 163.183Z" fill="#BCD9D4"/>
<path d="M328.158 686.799L389.549 648.894L422.416 755.486L378.466 796.588L328.158 789.048V686.799Z" fill="#BCD9D4"/>
<path d="M324.301 65.7285V37.1348L446.216 51.5532L422.555 150.259L324.301 65.7285Z" fill="#BCD9D4"/>
<path d="M-117.494 554.636L-39.1825 638.263L11.4037 470.87L-79.3457 466.179L-117.494 554.636Z" fill="#DBDBDB"/>
<path d="M-118.814 65.6939L-8.19157 81.6063L0.59848 51.9355L-118.814 35.502V65.6939Z" fill="#DBDBDB"/>
<path d="M87.5957 909.781V782.204L168.721 810.659V899.671L87.5957 909.781Z" fill="#BCD9D4"/>
<path d="M670.483 885.6L600.128 732.105L722.355 689.266L722.39 878.86L670.483 885.6Z" fill="#BCD9D4"/>
<path d="M499.06 402.738V325.261L428.913 300.732L412.341 369.767L499.06 402.738Z" fill="#BCD9D4"/>
<path d="M341.152 388.215L408.102 605.187L402.96 608.314L395.803 612.726V612.761L295.36 674.743L209.51 783.385L199.399 796.136H199.33L108.824 764.52V748.294L194.744 778.278L286.64 662.409L391.182 597.856L324.336 381.267H324.371L324.927 377.167L326.525 365.146V365.042L380.134 386.374L403.238 290.413L416.336 295.52L389.549 406.977L341.152 388.215Z" fill="#FF725E"/>
<path d="M460.842 200.741C458.237 174.37 439.996 148.07 408.067 148.07C376.138 148.07 357.933 174.37 355.292 200.741C351.262 241.494 378.744 278.427 408.067 312.093C437.425 278.427 464.907 241.494 460.842 200.741ZM408.067 230.064C402.352 230.057 396.766 228.356 392.017 225.175C387.268 221.995 383.569 217.478 381.386 212.196C379.204 206.913 378.636 201.102 379.755 195.497C380.875 189.892 383.63 184.745 387.674 180.705C391.718 176.666 396.869 173.917 402.476 172.804C408.082 171.692 413.892 172.266 419.172 174.455C424.452 176.644 428.965 180.349 432.139 185.102C435.314 189.855 437.009 195.442 437.009 201.158C437.013 204.958 436.267 208.722 434.814 212.233C433.361 215.744 431.229 218.934 428.54 221.62C425.851 224.306 422.659 226.434 419.146 227.883C415.632 229.332 411.868 230.073 408.067 230.064Z" fill="#263238"/>
<path d="M161.634 653.445C158.993 627.04 140.788 600.74 108.824 600.74C76.86 600.74 58.6893 627.04 56.0488 653.445C52.0185 694.199 79.5005 731.097 108.824 764.624C138.182 731.097 165.664 694.199 161.634 653.445ZM108.824 682.734C103.108 682.727 97.5228 681.026 92.7737 677.845C88.0246 674.665 84.3251 670.148 82.1425 664.865C79.96 659.583 79.3925 653.772 80.5118 648.167C81.6311 642.562 84.3869 637.415 88.4309 633.375C92.4749 629.336 97.6256 626.587 103.232 625.474C108.838 624.361 114.649 624.936 119.929 627.125C125.208 629.314 129.721 633.019 132.896 637.772C136.07 642.525 137.765 648.112 137.765 653.827C137.77 657.628 137.024 661.392 135.571 664.903C134.117 668.414 131.985 671.604 129.296 674.29C126.608 676.975 123.415 679.104 119.902 680.553C116.389 682.002 112.624 682.743 108.824 682.734Z" fill="#263238"/>
</g>
<defs>
<filter id="filter0_dd_38_1012" x="-180" y="0" width="942" height="981.364" filterUnits="userSpaceOnUse" color-interpolation-filters="sRGB">
<feFlood flood-opacity="0" result="BackgroundImageFix"/>
<feColorMatrix in="SourceAlpha" type="matrix" values="0 0 0 0 0 0 0 0 0 0 0 0 0 0 0 0 0 0 127 0" result="hardAlpha"/>
<feOffset dy="4"/>
<feGaussianBlur stdDeviation="2"/>
<feColorMatrix type="matrix" values="0 0 0 0 0 0 0 0 0 0 0 0 0 0 0 0 0 0 0.3 0"/>
<feBlend mode="normal" in2="BackgroundImageFix" result="effect1_dropShadow_38_1012"/>
<feColorMatrix in="SourceAlpha" type="matrix" values="0 0 0 0 0 0 0 0 0 0 0 0 0 0 0 0 0 0 127 0" result="hardAlpha"/>
<feMorphology radius="6" operator="dilate" in="SourceAlpha" result="effect2_dropShadow_38_1012"/>
<feOffset dy="8"/>
<feGaussianBlur stdDeviation="6"/>
<feColorMatrix type="matrix" values="0 0 0 0 0 0 0 0 0 0 0 0 0 0 0 0 0 0 0.15 0"/>
<feBlend mode="normal" in2="effect1_dropShadow_38_1012" result="effect2_dropShadow_38_1012"/>
<feBlend mode="normal" in="SourceGraphic" in2="effect2_dropShadow_38_1012" result="shape"/>
</filter>
</defs>
</svg>
