<svg id="Birthday" height="512" viewBox="0 0 1000 1000" width="512" xmlns="http://www.w3.org/2000/svg"><g><path d="m111.27 330.947c-.901 20.463 1.808 40.822 4.431 60.512.943 7.081 1.884 14.119 2.628 21.063.647 6.035 1.052 12.545 1.481 19.439 1.234 19.843 2.636 42.334 10.756 61.87 7.627 18.347 24.432 22.759 36.309 23.827.783 18.576.779 37.48.776 55.912-.003 10.155-.005 20.292.116 30.382.74 62.409 1.246 125.567 1.681 184.522.193 26.285.37 52.574.53 78.861.012 1.842-.027 3.881-.064 6.055-.324 18.016-.864 48.162 21.872 62.482 15.802 9.951 35.295 11.225 50.515 11.225 4.908 0 9.799-.143 14.525-.285 4.041-.121 7.954-.242 11.631-.242.893 0 1.768.008 2.626.023 23.701.471 47.401.838 71.104 1.203 16.083.25 32.168.5 48.25.781 18.136 17.781 52.34 20.461 84.516 20.461 3.942 0 7.654-.039 11.023-.074 2.67-.029 5.111-.057 7.266-.057 1.153 0 2.213.01 3.173.029 2.368.051 5.345.195 8.77.357 6.981.332 15.673.744 25.05.744 23.076 0 53.563-2.234 70.279-19.166 13.227.143 26.453.316 39.68.49 27.369.361 55.666.734 83.557.803 4.771.012 10.355.311 16.268.629 7.225.383 14.695.783 22.396.783 17.148 0 30.111-2.117 40.799-6.668 25.123-10.691 26.875-37.631 27.816-52.1l.039-.588c1.396-21.445 1.352-43.096 1.309-64.03-.018-9.199-.039-18.388.064-27.542.357-32.305.801-64.611 1.246-96.92.842-61.156 1.707-124.206 1.959-186.6 8.186-1.417 16.732-4.311 24.219-10.566 15.357-12.838 16.84-36.988 17.922-54.623.227-3.71.439-7.216.736-9.419 3.672-27.306 6.791-56.484 9.535-89.207 1.697-20.278 4.857-58.022-36.109-69.252-7.605-2.085-16.094-3.056-26.707-3.056-1.635 0-3.256.022-4.867.059 15.23-29.139 22.168-62.075 25.287-87.95 7.17-59.438-11.871-105.843-53.613-130.668-19.137-11.378-39.314-17.15-59.977-17.15-61.559 0-124.598 49.671-187.553 147.706-14.697-8.118-31.805-12.968-50.493-14.223-2.634-.176-5.206-.261-7.711-.261-14.848 0-28.338 3.035-39.992 8.913-18.401-34.054-36.206-61.646-55.236-85.705-28.859-36.479-64.838-73.77-112.869-73.77-1.55 0-3.105.04-4.678.123-57.762 3.04-90.012 65.031-100.934 122.033-7.371 38.481-8.082 89.225 7.701 131.043-10.111.513-19.957 1.443-29.799 3.142-22.459 3.876-38.226 21.818-39.239 44.65z" fill="#fff"/><g><path d="m846.775 304.948c-15.807-4.33-35.318-1.362-51.502-1.414-4.295-.014-8.582-.097-12.871-.191 27.385-28.697 39.248-72.645 43.82-110.571 5.303-43.956-4.387-87.826-44.182-111.49-96.363-57.308-188.486 70.174-231.848 141.616-14.49-13.059-34.307-21.023-57.478-22.577-23.876-1.601-41.487 5.705-53.163 18.356-18.314-35.898-38.793-71.157-63.821-102.798-24.209-30.6-58.306-68.494-101.161-66.241-49.958 2.629-74.898 65.281-82.73 106.161-8.506 44.407-7.353 106.74 20.157 146.303-19.538.048-39.261.236-58.159 3.495-13.328 2.298-22.408 12.752-23.004 26.215-1.143 25.877 4.205 52.889 6.965 78.622 2.578 24.047 1.461 53.296 10.85 75.881 4.706 11.322 16.855 12.087 27.545 12.111 3.061.007 6.121-.021 9.184-.029 2.613 34.893 1.555 70.386 1.971 105.325.73 61.535 1.228 123.071 1.682 184.611.193 26.293.371 52.588.531 78.885.092 15.023-2.771 42.367 12.66 52.086 18.699 11.775 48.33 7.301 69.249 7.715 42.866.848 85.739 1.363 128.606 2.148 12.916 24.477 76.099 19.744 96.764 20.195 20.155.438 82.206 7.037 93.856-18.17 44.365.416 88.73 1.281 133.102 1.395 21.084.051 51.547 4.906 71.748-3.693 14.24-6.061 15.102-22.438 15.982-35.945 1.957-30.008.998-60.445 1.334-90.515 1.115-100.427 3.053-200.887 3.258-301.323 10.719-.42 22.801-.56 31.186-7.568 11.496-9.608 10.088-38.808 11.813-51.63 3.947-29.347 6.953-58.722 9.428-88.23 1.818-21.75 2.777-42.004-21.772-48.735zm-423.561-13.815c-9.171 1.772-14.793 5.738-18.035 11.45-17.901-.218-35.77-.535-53.626-.82-15.826-18.887-34.562-56.731.906-64.447 15.614-3.396 33.829 3.002 48.097 12.907 7.357 7.49 14.518 15.174 21.576 22.926.195 5.84.861 11.81 2.004 17.829-.306.058-.617.096-.922.155zm224.583 8.927c-17.861.448-35.74 1.156-53.684 1.864-1.297-2.565-3.045-4.787-5.43-6.458-3.762-2.635-8.225-4.551-13.1-5.973.201-3.762.186-7.42-.006-10.991 2.727-3.154 5.541-6.213 8.365-9.26 18.648-14.526 40.984-26.617 64.26-23.116 32.909 4.949 13.837 37.698-.405 53.934z" fill="#68182b"/><path d="m147.898 399.941c11.372-11.172 30.081 17.202 35.766 25.799 9.667 14.627-17.922 19.006-31.875 20.876-1.901-15.445-2.752-31.335-3.891-46.675z" fill="#ffe30e"/><path d="m402.341 825.289c-7.488-2.149-18.221-5.606-18.533-12.718-.227-5.156 6.218-10.83 9.318-14.051 3.418-3.545 7.045-6.898 10.76-10.146-.512 12.309-1.02 24.613-1.545 36.915z" fill="#ffe30e"/><path d="m200.412 576.207c6.275-1.063 12.572-1.958 18.922-2.484 12.416-1.028 8.717 12.115 6.881 18.929-1.906 7.079-4.896 13.939-7.984 20.564-4.105 8.808-9.121 14.04-17.364 8.24-.008-15.097-.162-30.183-.455-45.249z" fill="#ffe30e"/><path d="m286.922 497.69c15.975-.047 31.951-.092 47.935-.142-.697 5.8-1.599 11.524-3.064 17.216-3.185 12.377-12.805 6.44-19.955 2.147-6.636-3.983-19.28-11.152-24.916-19.221z" fill="#ffe30e"/><path d="m403.25 409.95c-6.74 3.706-21.33 12.286-26.176 5.046-4.062-6.067-2.422-17.314-2.182-24.166.211-6.045.805-12.085 1.516-18.089 1.77-14.96 18.072-4.799 26.156.364.268 12.281.506 24.563.686 36.845z" fill="#ffe30e"/><path d="m413.515 347.894c-.187-8.685-.383-17.368-.566-26.056-.359-16.999 10.104-19.572 25.704-21.611 24.288-3.178 49.345-2.85 73.783-2.613 16.436.157 71.039-4.713 72.836 17.212 1.539 18.803-1.334 38.971-1.689 57.857-.717 38.059-.889 76.133-.896 114.201-56-.394-112.016-.684-168.038-.792.991-46.05-.147-92.159-1.134-138.198z" fill="#00edef"/><path d="m568.006 934.407c-9.439 3.016-22.67 4.033-35.354 4.227-.348-19.717-.98-39.674-5.002-59.008-.086-.416-.682-.291-.705.096-1.23 19.598-.941 39.305-1.531 58.941-7.342-.045-14.162-.301-19.593-.514 2.743-37.432 4.4-75.141 6.366-112.619 1.789-34.133 3.158-70.092-1.422-104.02-.045-.344-.647-.344-.692 0-4.468 33.098-2.849 67.168-5.277 100.488-1.476 20.258-3.651 40.459-5.269 60.703-1.469 18.354-1.469 36.781-2.71 55.146-11.518-.127-50.255 1.535-72.146-4.979-13.506-4.02-14.864-11.65-14.32-24.727 5.669-136.734 12.404-273.959 13.162-410.786 56.027-.052 112.065.117 168.053.776-6.707 137.287-5.559 274.939-10.203 412.316-.459 13.736-.259 19.771-13.357 23.96z" fill="#00edef"/><path d="m744.434 920.376c-.283.189-.516.4-.75.611-9.201.072-18.404.088-27.607.066-5.17-.014-10.34-.07-15.51-.104.139-8.186 1.506-16.299 3.053-24.34 2.004-10.424 5.521-18.441 16.678-12.672 9.78 5.058 41.403 24.966 24.136 36.439z" fill="#ffe30e"/><path d="m598.711 627.112c.193-8.545.369-17.092.594-25.637 6.916-5.829 16.91-15.48 26.645-16.009 8.553-.468 9.805 19.941 10.643 25.129 1.145 7.062 2.242 14.745.953 21.868-1.096 6.049-7.428 4.965-11.805 4.16-9.29-1.704-18.389-5.609-27.03-9.511z" fill="#ffe30e"/><path d="m720.779 501.203c.016-.027.02-.054.033-.083 12.092.432 24.184.816 36.271 1.014 3.967 6.603 14.029 20.841 3.371 25.108-7.438 2.978-16.492 2.703-24.371 2.915-5.43.146-10.879.028-16.303-.252-15.182-.785-2.557-22.037.999-28.702z" fill="#ffe30e"/><path d="m851.504 411.551c-1.584 13.739-3.1 27.641-5.051 41.438-12.004-3.045-35.791-10.15-31.813-19.467 4.154-9.728 25.053-29.716 37.791-29.633-.318 2.564-.634 5.126-.927 7.662z" fill="#ffe30e"/><path d="m809.092 313.606c-.035 12.019-18.291 26.612-26.051 33.938-13.373 12.624-21.938-19.484-24.436-33.168 7.121.193 14.252.385 21.402.567 7.223.183 17.915-.892 29.085-1.337z" fill="#ffe30e"/><path d="m761.645 84.562c81.309 25.887 62.217 154.573 14.584 208.456-8.42 9.521-11.164 9.878-27.633 8.974-5.135-.28-10.27-.587-15.41-.906-23.078-1.438-46.041-1.688-69-1.357 7.809-8.188 14.756-17.117 20.432-27.002 5.902-10.276 13.451-25.284 13.17-37.897-.197-8.877-2.445-1.299-3.412 1.446-4.418 12.517-7.924 19.615-14.094 29.811-1.045 1.729-2.137 3.427-3.27 5.096-2.01 2.971-4.354 5.443-2.984-1.653 2.203-11.421-.943-22.201-14.973-28.82-11.164-5.265-24.57-4.493-36.641-1.246-7.68 2.062-14.908 6.18-2.439-3.722 16.896-13.429 35.182-25.059 54.908-34.481 15.641-7.472 33.012-14.941 50.52-16.208 19.238-1.392 28.768 12.871 31.98 30.242.207 1.127 1.928.821 1.943-.263.203-14.193-2.869-28.675-17.553-34.632-16.359-6.638-34.641-1.151-50.445 4.438-45.529 16.109-85.123 45.894-117.139 81.663-2.504-13.445-7.951-25.174-15.801-34.899 39.376-65.581 113.038-175.765 203.257-147.04z" fill="#00edef"/><path d="m446.146 226.097c11.209-12.644 30.895-14.517 46.569-14.263 44.091.717 72.441 32.968 71.435 75.292-17.482-2.434-37.561-.776-51.715-1.025-.219-.005-.439-.007-.66-.009 4.232-7.619 7.834-17.014 4.295-24.438-.107-.228-.441-.191-.559 0-2.15 3.512-3.176 7.492-4.811 11.25-2.011 4.621-4.729 8.983-7.723 13.058-4.569-.057-9.153-.088-13.752-.076-1.638-5.541-2.682-11.104-3.088-17-.531-7.642 1.234-14.994 1.482-22.579.016-.499-.705-.856-1.044-.432-8.792 10.976-8.89 26.568-5.911 40.092-15.141.231-30.322 1.065-45.205 3.156-4.575-21.849-5.036-45.291 10.687-63.026z" fill="#00edef"/><path d="m202.944 158.859c6.743-41.393 35.292-107.119 87.635-96.575 38.911 7.841 69.167 49.839 90.45 80.032 19.237 27.292 35.699 56.583 50.734 86.364.064.128.146.221.216.337-5.312 9.161-8.457 19.967-9.503 31.639-16.822-18.097-34.311-35.466-53.624-50.961-17.285-13.867-35.866-26.9-58.101-30.872-14.97-2.674-30.137.704-40.984 11.644-13.265 13.373-12.186 32.809-10.252 49.892.098.854 1.395.899 1.367 0-.488-16.139 3.834-34.483 15.91-45.862 12.086-11.389 30.676-8.936 44.926-4.045 19.491 6.688 36.361 21.234 51.807 34.373 9.636 8.189 5.057 5.905-5.889 4.547-7.275-.904-14.666-.463-21.992 1.63-15.334 4.383-20.989 14.196-21.189 25.68-2.063-10.611-1.49-21.323-.865-32.441.024-.451-.625-.606-.84-.227-14.17 25.3.063 56.664 18.086 77.585-33.821-.499-67.621-.757-101.547.228-4.277.124-8.592.178-12.926.214-.033-.041-.051-.086-.087-.126-31.034-35.911-30.476-99.227-23.332-143.056z" fill="#00edef"/><path d="m754.299 706.366c-.715 16.89-30.025-1.311-36.506-5.131-4.613-2.898-9.078-5.748-12.084-10.405-4.482-6.946 11.482-15.696 15.064-18.034 6.842-4.469 13.828-8.777 21.58-11.488 8.846-3.097 9.826 7.084 10.832 12.619 1.903 10.49 1.563 21.818 1.114 32.439z" fill="#ffe30e"/><path d="m801.736 767.565c.994-88.646 2.678-177.317 2.867-265.969-11.383.485-22.771.686-34.168.643 5.416 9.813 11.277 23.639 1.846 31.106-9.975 7.899-23.971 8.183-36.197 8.324-10.703.124-24.529 1.808-32.049-7.447-7.467-9.19-1.316-23.337 4.008-33.568-14.68-.544-29.352-1.088-44.006-1.392-20.311-.421-40.633-.733-60.961-.999-1.428 29.244-2.451 58.506-3.299 87.777 9.158-7.448 21.074-15.361 30.895-11.395 14.33 5.79 15.641 23.487 17.598 36.804 1.965 13.379 3.953 34.318-13.838 37.031-11.686 1.778-24.678-3.607-36.002-8.828-1.98 93.351-2.561 186.764-5.896 280.049 32.139.314 64.277.877 96.416 1.172-.137-15.492 2.377-35.129 12.076-46.74 7.121-8.523 20.338-3.363 27.793 1.451 10.279 6.639 24.096 15.34 31.045 25.699 4.973 7.412 4.299 13.9.6 19.459 2.982-.051 5.969-.064 8.953-.131 6.645-.152 19.896 1.424 24.914-4.195 13.068-14.639 6.342-52.869 6.545-71.197.282-25.884.571-51.769.86-77.654zm-113.863 53.93c-13.063 12.805-31.289 19.645-40.904-1.113-5.898-12.736-23.846-51.332-.551-58.013 9.801-2.812 20.469-.97 30.277 1.013 8.363 1.689 21.287 2.811 27.959 8.842 16.975 15.341-5.812 37.925-16.781 49.271zm75.244-104.254c-12.498 17.668-37.336 2.07-51.135-6.063-18.67-11.734-24.807-27.041-5.824-42.264 12.932-10.369 42.342-31.688 54.646-9.955 4.928 8.709 4.904 21.426 5.105 31.102.161 7.643 1.987 20.424-2.792 27.18z" fill="#ff0001"/><path d="m679.732 813.355c-3.621 3.546-7.277 7.187-12.068 9.122-7.365 2.976-11.58-9.482-13.377-14.082-2.742-7.01-4.939-14.264-6.76-21.561-2.578-10.313.891-14.396 10.504-14.36 11.111.04 22.602 3.259 33.277 6.146 19.018 5.143-5.837 28.799-11.576 34.735z" fill="#ffe30e"/><path d="m828.547 403.204c7.266-5.532 16.037-11.861 25.369-11.023 2.389-18.607 4.711-37.595 4.279-55.91-.43-18.217-18.279-22.462-37.727-22.822-.188 11.448-8.801 21.034-16.521 29.332-7.16 7.697-14.652 17.117-25.07 20.177-20.473 6.014-29.465-32.005-31.941-48.89-50.016-1.35-99.514-2.528-149.863-.709 1.02 10.679-1.111 22.937-1.322 30.684-1.309 47.624-1.543 95.28-1.555 142.918 9.488.072 18.977.117 28.461.193 54.994.443 110.086 4.445 165.076 3.497 13.979-.241 50.965 4.668 54.578-12.955.9-4.387 1.656-8.823 2.393-13.263-16.615-4.038-49.893-13.568-41.086-34.184 4.849-11.36 15.341-19.743 24.929-27.045zm-124.442 4.563c-4.201 9.446-14.48 15.511-23.107 20.409-7.447 4.229-19.131 12.676-28.205 12.437-23.105-.606-20.773-31.732-19.787-47.905 1.283-15.5 7.979-34.283 27.48-27.741 14.102 4.727 52.729 22.325 43.619 42.8z" fill="#ff0001"/><path d="m693.234 404.052c-1.248 2.802-4.803 5.403-7.104 7.171-9.283 7.117-20.73 13.29-31.68 17.43-13.277 5.021-10.305-29.855-9.934-35.945.426-5.136.781-11.561 4.219-15.761 3.523-4.304 11.941.209 15.506 1.918 6.895 3.306 13.482 7.628 19.818 11.88 3.341 2.238 11.66 7.719 9.175 13.307z" fill="#ffe30e"/><path d="m293.5 843.565c-9.482 6.893-21.063 12.711-32.133 16.574-13.185 4.598-9.366-30.477-8.855-36.379.564-5.178 1.172-11.473 4.73-15.602 3.598-4.17 12.049.746 15.471 2.5 6.807 3.48 13.281 7.975 19.506 12.386 10.005 7.098 10.906 13.527 1.281 20.521z" fill="#ffe30e"/><path d="m403.412 422.778c-10.377 5.217-24.199 10.801-32.502 2.67-8.806-8.626-8.136-23.245-7.531-34.618.604-11.379-.297-26.944 9.377-34.821 8.213-6.685 20.166-1.801 29.51 3.495-.283-12.56-.576-25.113-.83-37.666-.056-2.752.05-5.349.324-7.798-44.48-.63-88.874-2.563-133.371-1.486-33.801.818-68.627-.389-102.258 2.919-16.961 1.668-25.297 8.371-23.838 26.194 1.172 14.293 2.795 28.556 4.279 42.821.065.634.113 1.295.176 1.934 18.69-8.188 40.939 22.61 48.764 37.021 13.432 24.729-24.071 31.684-42.09 34.415 1.048 6.268 2.282 12.438 3.936 18.367 5.122 18.376 49.639 10.261 64.783 10.178 60.312-.335 120.664-.407 181.016-.314.456-21.099.477-42.204.255-63.311zm-115.674 6.146c-16.189-1.735-52.297-9.431-52.38-30.658-.038-9.35 9.638-18.432 15.837-24.218 7.369-6.879 15.031-13.706 23.584-19.078 23.394-14.69 31.354 27.27 33.463 40.651 2.042 15.158.009 35.502-20.504 33.303z" fill="#ff0001"/><path d="m250.024 392.287c6.168-9.361 16.586-16.929 25.271-23.822 16.829-13.362 20.27 20.222 21.844 30.22 1.607 11.924.613 20.606-13.44 18.135-7.321-1.286-14.581-4.183-21.547-6.696-8.735-3.153-18.852-7.631-12.128-17.837z" fill="#ffe30e"/><path d="m346.397 497.516c-1.87 16.514-6.6 43.966-28.485 35.272-10.16-4.037-19.029-10.409-27.564-17.157-6.416-5.073-13.737-10.063-16.427-17.902-4.934.014-9.872.032-14.803.043-20.741.05-41.49.43-62.234.589 1.7 21.891 2.728 43.908 3.306 65.994 10.955-2.353 26.139-5.381 33.613 1.659 9.152 8.617 6.172 22.287 2.505 32.959-6.294 18.319-16.852 42.088-35.446 35.288-.121 42.016-.854 84.035-.532 125.635.206 26.84.399 53.68.575 80.52.104 16.014-6.681 56.705 6.218 68.027 9.743 8.551 27.827 6.24 39.862 6.529 14.906.359 29.814.648 44.724.896 35.581.586 71.163 1.107 106.744 1.758 1.102-26.826 2.244-53.674 3.389-80.531-11.196-3.49-28.862-8.981-29.467-22.728-.724-16.491 18.569-30.716 29.933-39.687.705-.558 1.447-.92 2.196-1.127 3.776-92.066 6.987-184.219 7.497-276.193-21.875.032-43.74.09-65.604.156zm-34.632 342.862c-4.457 9.363-14.787 15.164-23.574 19.859-7.486 3.998-19.508 12.248-28.498 11.779-23.145-1.208-20.107-31.961-18.695-48.256 1.674-15.334 8.689-34.266 28.05-27.212 13.707 4.996 52.311 23.681 42.717 43.83zm24.45-132.885c-10.978.031-20.919-7.002-29.382-13.303-7.829-5.83-16.17-11.574-21.917-19.563-14.122-19.619 24.306-34.021 36.158-38.506 15.19-5.338 33.496-5.619 35.725 14.398 1.542 13.853 1.069 56.914-20.584 56.974z" fill="#ff0001"/><path d="m330.679 695.099c-10.704-3.146-21.027-12.84-29.395-19.787-17.434-14.472 12.703-24.246 22.854-28.086 9.205-3.237 20.006-6.973 21.454 6.045 1.12 10.042-.106 46.183-14.913 41.828z" fill="#ffe30e"/><g fill="#f9b201"><path d="m840.404 439.196c-7.434.938-13.762-3.202-17.459-9.368-1.121-1.875-1.686-3.726-1.969-5.581-2.965 3.434-5.24 6.712-6.336 9.275-3.979 9.316 19.809 16.422 31.813 19.467.77-5.433 1.432-10.886 2.098-16.334-2.555 1.273-5.276 2.179-8.147 2.541z"/><path d="m801.518 329.378c-3.967 1.531-8.115 2.598-12.424 3.033-12.119 1.224-20.188-3.784-28.777-10.111 3.721 15.072 11.539 35.805 22.725 25.245 4.501-4.25 12.517-10.948 18.476-18.167z"/><path d="m705.709 690.83c3.006 4.657 7.471 7.507 12.084 10.405 6.48 3.82 35.791 22.021 36.506 5.131.229-5.396.42-10.977.313-16.535-3.193 3.572-7.703 6.27-13.504 7.604-8.887 2.039-18.1-3.173-22.52-10.737-2.293-3.915-2.287-7.931-1.178-11.799-5.773 3.656-15.289 10.368-11.701 15.931z"/><path d="m744.434 920.376c10.568-7.021 2.82-17.197-7.025-25.201-1.398 5.439-4.559 10.26-10.053 13.428-11.23 6.473-21.082-4.045-23.146-14.734-.209.893-.408 1.803-.59 2.742-1.547 8.041-2.914 16.154-3.053 24.34 5.17.033 10.34.09 15.51.104 9.203.021 18.406.006 27.607-.066.234-.213.466-.424.75-.613z"/><path d="m598.711 627.112c8.641 3.901 17.74 7.807 27.029 9.512 4.377.805 10.709 1.889 11.805-4.16 1.289-7.123.191-14.807-.953-21.868-.547-3.377-1.279-13.184-4.076-19.502-1.084 7.87-3.934 15.405-9.418 21.402-4.594 5.025-11.563 8.027-17.939 4.571-2.941-1.594-4.898-3.881-6.064-6.485-.13 5.51-.261 11.021-.384 16.53z"/><path d="m654.287 808.396c1.797 4.6 6.012 17.058 13.377 14.082 4.791-1.936 8.447-5.576 12.068-9.122 5.408-5.595 27.762-26.915 14.398-33.655-1.959 9.613-7.309 18.02-17.693 21.589-12.877 4.427-23.705-5.63-29.4-17.022.135.828.258 1.645.49 2.568 1.821 7.296 4.018 14.55 6.76 21.56z"/><path d="m644.406 394.421c-.598 9.106-2.299 38.899 10.045 34.231 10.949-4.14 22.396-10.313 31.68-17.43 2.301-1.768 5.855-4.369 7.104-7.171 2.484-5.588-5.834-11.068-9.174-13.308-.176-.119-.357-.236-.533-.355-2.068 4.835-4.875 9.33-9.273 13.346-5.205 4.752-11.984 6-18.594 3.98-7.054-2.155-9.86-7.343-11.255-13.293z"/><path d="m719.781 529.905c5.424.28 10.873.397 16.303.252 7.879-.212 16.934.063 24.371-2.915 7.053-2.824 5.023-10.009 1.703-16.462-4.488 5.849-10.855 9.64-19.818 11.412-12.211 2.412-22.072-1.586-26.703-10.897-3.707 8.363-6.035 18.084 4.144 18.61z"/><path d="m391.454 808.851c-1.571-1.561-2.57-3.35-3.187-5.256-2.431 2.776-4.592 5.959-4.459 8.977.313 7.111 11.045 10.568 18.533 12.718.189-4.405.369-8.813.554-13.22-4.005 1.158-8.574-.372-11.441-3.219z"/><path d="m345.425 670.345c-1.234 1.516-2.545 2.982-4.009 4.352-15.907 14.877-36.019.607-39.736-16.896-6.139 4.654-8.802 10.535-.396 17.512 8.367 6.947 18.69 16.641 29.395 19.787 9.678 2.844 13.535-11.599 14.746-24.755z"/><path d="m298.093 508.158c4.977 3.587 10.209 6.631 13.744 8.754 7.15 4.293 16.771 10.229 19.955-2.147 1.466-5.691 2.367-11.416 3.064-17.216-1.792.007-3.582.012-5.372.016-9.416 7.501-20.572 12.43-31.391 10.593z"/><path d="m208.64 601.59c-3.443 1.968-5.98 1.977-7.963.944.054 6.308.187 12.608.188 18.922 8.243 5.8 13.259.567 17.364-8.24 3.088-6.625 6.078-13.485 7.984-20.564 1.082-4.014 2.785-10.209 1.482-14.425-.679 1.97-1.443 3.906-2.338 5.783-2.186 4.583-5.424 8.522-9.002 12.078-2.287 2.27-4.949 3.919-7.715 5.502z"/><path d="m374.876 391.148c-.276 6.877-1.806 17.868 2.197 23.848 4.846 7.24 19.436-1.34 26.176-5.046-.049-3.438-.133-6.877-.19-10.314-10.575 2.43-22.493-.302-28.183-8.488z"/><path d="m262.151 410.123c6.966 2.514 14.226 5.41 21.547 6.696 14.054 2.472 15.048-6.211 13.44-18.135-.259-1.646-.571-3.94-.982-6.551-2.953 5.532-7.691 9.903-14.758 11.813-11.338 3.061-23.746-6.425-26.957-17.304-1.613 1.814-3.124 3.681-4.417 5.645-6.724 10.206 3.393 14.684 12.127 17.836z"/><path d="m149.48 422.151c.611 8.183 1.314 16.384 2.309 24.465 13.953-1.87 41.542-6.249 31.875-20.876-1.705-2.577-4.592-6.935-8.086-11.466.604 6.986-4.124 10.901-10.283 12.576-5.455 1.484-10.832-.171-14.967-3.831-.316-.279-.573-.576-.848-.868z"/><path d="m261.367 860.14c11.07-3.863 22.65-9.682 32.133-16.574 9.625-6.994 8.725-13.424-1.281-20.521-.498-.351-1.004-.702-1.502-1.052-1.879 8.211-5.784 15.939-11.824 20.179-8.17 5.733-19.146 1.349-23.939-6.415-1.58-2.562-2.332-5.277-2.788-8.055-.894 10.885-2.171 36.403 9.201 32.438z"/></g><path d="m511.393 475.312c-18.796 1.498-37.934-1.169-54.829-9.745-17.947-9.107-28.693-26.244-34.682-44.836-5.473-16.998-6.525-35.179-7.58-52.878-.254-4.266-.412-8.479-.635-12.723.945 43.635 1.921 87.324.98 130.962 56.021.108 112.038.398 168.038.792.004-18.892.049-37.784.182-56.676-16.086 26.195-39.428 42.552-71.474 45.104z" fill="#00b1b5"/><path d="m721.965 185.445c-16.336 1.919-32.467 8.831-47.082 15.813-19.727 9.423-38.012 21.053-54.908 34.481-12.469 9.901-5.24 5.783 2.439 3.722 12.07-3.247 25.477-4.019 36.641 1.246 14.029 6.619 17.176 17.399 14.973 28.82-1.369 7.097.975 4.624 2.984 1.653 1.133-1.669 2.225-3.366 3.27-5.096 6.17-10.195 9.676-17.294 14.094-29.811.967-2.745 3.215-10.323 3.412-1.446.281 12.613-7.268 27.621-13.17 37.897-5.676 9.885-12.623 18.814-20.432 27.002 20.256-.293 40.518-.081 60.855.951 7.373-7.58 13.084-17.229 17.316-26.109 9.834-20.618 13.305-43.61 7.041-65.787-3.892-13.778-13.777-22.397-27.433-23.336z" fill="#00b1b5"/><path d="m469.58 497.425c-15.357-.024-30.711-.08-46.066-.067-.758 136.827-7.493 274.052-13.162 410.786-.544 13.076.814 20.707 14.32 24.727 21.891 6.514 60.628 4.852 72.146 4.979 1.241-18.365 1.241-36.793 2.71-55.146 1.618-20.244 3.793-40.445 5.269-60.703.384-5.281.647-10.589.87-15.904-1.141 6.127-2.246 12.255-3.398 18.381-3.265 17.393-7.645 34.416-11.788 51.602-3.19 13.23-6.9 27.146-14.234 38.758-11.725 18.561-22.514-12.266-25.511-21.174-8.322-24.73-11.704-50.902-14.241-76.756-8.148-83.069-12.652-170.531 4.277-252.756 4.794-23.271 12.05-48.999 28.808-66.727z" fill="#00b1b5"/><path d="m550.826 267.373c-5.604 12.282-25.309 15.779-33.848 5.6-.91 4.502-2.949 9.06-5.203 13.119.221.002.441.004.66.009 14.154.249 34.232-1.408 51.715 1.025.455-19.073-5.1-36.063-15.324-49.079 4.526 9.189 6.465 19.538 2 29.326z" fill="#00b1b5"/><path d="m442.249 231.149c-11.661 17-10.944 38.138-6.788 57.973 14.883-2.091 30.064-2.925 45.205-3.156-1.516-6.888-2.216-14.307-1.395-21.383-2.688 3.018-5.404 5.871-9.453 7.508-6.729 2.722-14.559-.009-19.893-4.311-11.992-9.674-9.563-23.467-7.676-36.631z" fill="#00b1b5"/><path d="m486.126 266.373c.008.836-.047 1.666.012 2.512.406 5.896 1.45 11.459 3.088 17 4.6-.012 9.184.02 13.752.076 2.993-4.074 5.712-8.437 7.723-13.058.233-.54.44-1.091.654-1.64-1.021.718-2.014 1.484-3.129 2.113-3.415 1.928-7.6 1.721-11.248.794-3.616-.917-6.841-3.132-9.391-5.778-.579-.605-1.035-1.302-1.461-2.019z" fill="#00b1b5"/><path d="m270.568 236.034c.306 21.78 10.477 46.909 26.521 65.157 14.587.045 29.165.19 43.747.406-18.022-20.921-32.256-52.285-18.086-77.585.215-.38.864-.225.84.227-.625 11.118-1.197 21.83.865 32.441.2-11.483 5.855-21.297 21.189-25.68 7.326-2.093 14.717-2.534 21.992-1.63 10.945 1.358 15.524 3.643 5.889-4.547-15.445-13.139-32.315-27.686-51.807-34.373-6.807-2.336-14.601-4.095-22.208-4.077-3.423 1.149-6.765 2.796-9.957 5.058-13.743 9.735-19.208 28.59-18.985 44.603z" fill="#00b1b5"/><path d="m557.74 862.698c-2.889 6.516-6.813 16.496-14.027 19.094-5.773 2.074-10.666-4.334-13.402-8.35-7.57-11.115-11.158-25.199-14.502-38.053-1.225-4.715-2.389-9.508-3.398-14.33-.078 1.488-.145 2.988-.223 4.471-1.966 37.479-3.623 75.188-6.366 112.619 5.431.213 12.251.469 19.593.514.59-19.637.301-39.344 1.531-58.941.023-.387.619-.512.705-.096 4.021 19.334 4.654 39.291 5.002 59.008 12.684-.193 25.914-1.211 35.354-4.227 13.098-4.189 12.898-10.225 13.357-23.957 1.65-48.809 2.561-97.654 3.361-146.504-5.686 33.78-12.93 67.069-26.985 98.752z" fill="#00b1b5"/><path d="m506.336 311.018c-15.136 32.973-13.483 73.048-6.155 107.561.692 3.263 6.036 3.354 6.661 0 6.334-33.984 15.191-72.735 4.887-106.856-.678-2.245-4.268-3.157-5.393-.705z" fill="#8afbfb"/><path d="m501.785 427.447c-4.754 4.684-5.555 14.355-.768 19.188 1.997 2.013 5.479 1.549 6.901-.891 2.849-4.87 2.006-12.693-.596-17.582-1.08-2.033-3.968-2.26-5.537-.715z" fill="#8afbfb"/><path d="m737.033 104.104c-19.006-4.2-33.906-4.319-51.971 3.549-16.848 7.337-30.881 22.466-34.725 40.584-.492 2.32 2.045 4.92 4.334 3.332 12.166-8.437 23.145-18.081 36.297-25.059 13.584-7.207 31.09-12.256 46.064-15.467 3.46-.741 3.435-6.181.001-6.939z" fill="#8afbfb"/><path d="m357.382 130.927c-11.381-12.995-33.144-31.432-51.945-26.3-2.09.568-3.134 3.582-1.349 5.11 6.636 5.672 14.255 10.022 20.911 15.836 8.297 7.247 14.85 16.693 21.485 25.4 6.033 7.918 10.854 16.741 17.042 24.53 5.527 6.958 12.154 12.13 18.395 18.352 2.689 2.686 7.043-.045 6.193-3.604-5.616-23.553-14.542-40.833-30.732-59.324z" fill="#8afbfb"/><path d="m391.962 198.27c-1.282.283-2.359 1.446-2.689 2.689-.612 2.296-.188 4.709.943 6.807.702 1.303 1.404 2.463 2.717 3.263.545.367 1.133.646 1.766.839.472.063.944.126 1.416.189-.692-.093-.753-.072-.182.061 1.129.313 2.439-.005 3.256-.861 2.676-2.809 2.892-5.93.977-9.303-1.638-2.889-5.041-4.382-8.204-3.684z" fill="#8afbfb"/><path d="m509.869 227.096c-13.354-12.937-39.792-10.488-52.321 2.608-1.857 1.938-.573 5.372 2.213 5.343 8.398-.086 16.729-.927 25.138-.521 8.145.389 15.524 1.041 23.398-1.478 2.492-.796 3.566-4.021 1.572-5.952z" fill="#8afbfb"/><path d="m465.82 581.734c-1.254-.656-3.302-.459-3.938 1.032-3.076 7.207-2.629 16.08-3.221 23.807-.699 9.161-.78 16.375 3.117 24.891 1.556 3.404 6.025 1.83 7.101-.93 4.767-12.232 12.384-40.718-3.059-48.8z" fill="#8afbfb"/><path d="m542.639 670.866c-9.061 31.908-5.02 72.088 0 104.555.475 3.068 5.699 3.068 6.174 0 5.02-32.467 9.061-72.646 0-104.555-.868-3.055-5.307-3.055-6.174 0z" fill="#8afbfb"/><path d="m547.223 654.793c4.266-5.426 2.795-13.503-.328-19.194-1.102-2.004-4.322-2.068-5.406 0-3.006 5.748-3.021 14.049 1.207 19.194 1.017 1.239 3.517 1.282 4.527 0z" fill="#8afbfb"/><path d="m694.711 885.022c-2.537.092-5.027.171-7.426.254-31.148 1.08-62.51.266-93.725-.684-.338 11.703-.609 23.408-1.027 35.109 32.139.314 64.277.877 96.416 1.172-.101-11.329 1.254-24.849 5.762-35.851z" fill="#c50001"/><path d="m804.604 501.597c-9.643.411-19.289.578-28.943.604 4.018 7.385 7.207 15.296 9.078 24.081 3.477 16.314 1.701 33.995 1.137 50.521-.668 19.55-1.893 39.08-2.986 58.606-3.914 69.734 1.074 141.898-20.617 209.271-3.852 11.961-9.998 22.689-20.605 29.791-2.518 1.684-5.271 3.006-8.111 4.183 9.465 6.175 20.379 13.794 26.309 22.63 4.973 7.412 4.299 13.9.6 19.459 2.982-.051 5.969-.064 8.953-.131 6.645-.152 19.896 1.424 24.914-4.195 13.068-14.639 6.342-52.869 6.545-71.197.283-25.885.572-51.77.861-77.654.991-88.647 2.675-177.318 2.865-265.969z" fill="#c50001"/><path d="m398.452 917.626c.575-13.998 1.176-28.012 1.767-42.016-32.523-3.482-67.652-10.146-97.27-24.66-4.561 3.707-9.881 6.682-14.758 9.287-7.486 3.998-19.508 12.248-28.498 11.779-23.145-1.208-20.107-31.961-18.695-48.256.834-7.655 3.002-16.205 7.373-21.973-3.648-6.503-6.754-13.537-9.156-21.221-7.494-23.986-8.146-50.814-9.85-75.719-1.908-27.916-2.512-55.914-2.74-83.889-6.204 10.303-14.502 17.418-25.764 13.301-.121 42.016-.854 84.035-.532 125.635.206 26.84.399 53.68.575 80.52.104 16.014-6.681 56.705 6.218 68.027 9.743 8.551 27.827 6.24 39.862 6.529 14.906.359 29.814.648 44.724.896 35.581.588 71.163 1.11 106.744 1.76z" fill="#c50001"/><path d="m225.494 562.218c-.027-2.718-.079-5.439-.065-8.158.083-18.144.839-40.795 12.214-56.112-13.586.139-27.172.31-40.759.413 1.7 21.891 2.728 43.908 3.306 65.994 7.741-1.663 17.55-3.591 25.304-2.137z" fill="#c50001"/><path d="m594.232 466.402c-.014 6.854-.035 13.706-.037 20.558 9.488.072 18.977.117 28.461.193 54.994.443 110.086 4.445 165.076 3.497 13.979-.241 50.965 4.668 54.578-12.955.9-4.387 1.656-8.823 2.393-13.263-9.889-2.403-25.625-6.777-34.934-14.252-16.84 4.079-33.979 7.104-51.209 9.206-54.456 6.645-109.447 7.622-164.328 7.016z" fill="#c50001"/><path d="m215.399 456.646c-10.146-1.488-19.741-4.128-28.612-8.039-9.981 5.368-24.193 7.861-33.365 9.251 1.048 6.268 2.282 12.438 3.936 18.367 5.122 18.376 49.639 10.261 64.783 10.178 60.312-.335 120.664-.407 181.016-.314.162-7.455.209-14.913.27-22.37-27.943-.288-55.889-.641-83.826-1.362-34.536-.895-69.969-.69-104.202-5.711z" fill="#c50001"/><path d="m509.34 455.845c.16.871 1.324.542 1.415-.19 2.745-22.248 1.929-44.364 1.253-66.707-.621-20.573.137-41.953-2.76-62.342-.055-.38-.643-.34-.729 0-4.942 19.921-4.426 41.942-4.286 62.342.156 22.482 1.095 44.739 5.107 66.897z" fill="#68182b"/><path d="m462.166 597.4c2.482-18.311 5.808-40.161-1.049-57.862-.19-.492-1.079-.668-1.178 0-2.757 18.531-1.127 39.212 1.236 57.728.066.505.907.749.991.134z" fill="#68182b"/><path d="m678.33 117.37c30.512-25.491 65.436-16.42 100.932-9.906.754.14 1.199-.813.525-1.248-27.9-17.991-82.623-21.87-101.91 10.806-.172.296.211.55.453.348z" fill="#68182b"/><path d="m366.775 150.846c.357.468 1.322.216 1.052-.443-7.325-17.822-17.786-32.113-31.87-45.218-10.494-9.767-26.08-20.913-41.218-19.444-.3.029-.515.48-.173.636 30.701 13.973 51.971 37.981 72.209 64.469z" fill="#68182b"/><path d="m538.828 427.641c.07.843 1.215 1.038 1.484.2 3.631-11.284 5.611-27.98-.246-38.859-.232-.43-.896-.322-1.02.133-1.445 5.327-.775 11.057-.854 16.541-.106 7.377.037 14.633.636 21.985z" fill="#68182b"/></g></g></svg>