<svg width="961" height="257" viewBox="0 0 961 257" fill="none" xmlns="http://www.w3.org/2000/svg">
<path d="M1.40193 121.241C595.741 48.5225 450.74 148.207 533.91 222.037C617.079 295.866 958.649 153.917 958.649 153.917" stroke="#CBD5E1" stroke-width="12" stroke-dasharray="40 40"/>
<mask id="mask0_115_3" style="mask-type:alpha" maskUnits="userSpaceOnUse" x="291" y="0" width="96" height="96">
<rect width="96" height="96" transform="matrix(-1 0 0 1 387 0)" fill="#D9D9D9"/>
</mask>
<g mask="url(#mask0_115_3)">
<path d="M367 88C372.533 88 377.25 86.05 381.15 82.15C385.05 78.25 387 73.5333 387 68C387 62.4667 385.05 57.75 381.15 53.85C377.25 49.95 372.533 48 367 48C361.467 48 356.75 49.95 352.85 53.85C348.95 57.75 347 62.4667 347 68C347 73.5333 348.95 78.25 352.85 82.15C356.75 86.05 361.467 88 367 88ZM367 80C363.667 80 360.833 78.8333 358.5 76.5C356.167 74.1667 355 71.3333 355 68C355 64.6667 356.167 61.8333 358.5 59.5C360.833 57.1667 363.667 56 367 56C370.333 56 373.167 57.1667 375.5 59.5C377.833 61.8333 379 64.6667 379 68C379 71.3333 377.833 74.1667 375.5 76.5C373.167 78.8333 370.333 80 367 80ZM343 76V56L355.8 44.8C356.6 44.0667 357.2 43.2167 357.6 42.25C358 41.2833 358.2 40.2667 358.2 39.2C358.2 38.1333 357.983 37.1167 357.55 36.15C357.117 35.1833 356.533 34.3333 355.8 33.6L344.6 22.4C343.8 21.6 342.883 21 341.85 20.6C340.817 20.2 339.733 20 338.6 20C337.467 20 336.383 20.2 335.35 20.6C334.317 21 333.4 21.6 332.6 22.4L325 30C323.133 31.8667 321 33.3333 318.6 34.4C316.2 35.4667 313.667 36 311 36V44C314.8 44 318.417 43.2667 321.85 41.8C325.283 40.3333 328.333 38.2667 331 35.6L334.2 32.4L343.8 42L335 51.2V76H343ZM325 22C327.2 22 329.083 21.2167 330.65 19.65C332.217 18.0833 333 16.2 333 14C333 11.8 332.217 9.91667 330.65 8.35C329.083 6.78333 327.2 6 325 6C322.8 6 320.917 6.78333 319.35 8.35C317.783 9.91667 317 11.8 317 14C317 16.2 317.783 18.0833 319.35 19.65C320.917 21.2167 322.8 22 325 22ZM311 88C316.533 88 321.25 86.05 325.15 82.15C329.05 78.25 331 73.5333 331 68C331 62.4667 329.05 57.75 325.15 53.85C321.25 49.95 316.533 48 311 48C305.467 48 300.75 49.95 296.85 53.85C292.95 57.75 291 62.4667 291 68C291 73.5333 292.95 78.25 296.85 82.15C300.75 86.05 305.467 88 311 88ZM311 80C307.667 80 304.833 78.8333 302.5 76.5C300.167 74.1667 299 71.3333 299 68C299 64.6667 300.167 61.8333 302.5 59.5C304.833 57.1667 307.667 56 311 56C314.333 56 317.167 57.1667 319.5 59.5C321.833 61.8333 323 64.6667 323 68C323 71.3333 321.833 74.1667 319.5 76.5C317.167 78.8333 314.333 80 311 80Z" fill="#CBD5E1"/>
</g>
</svg>
