<svg width="982" height="356" viewBox="0 0 982 356" fill="none" xmlns="http://www.w3.org/2000/svg">
<mask id="mask0_115_2" style="mask-type:alpha" maskUnits="userSpaceOnUse" x="403" y="47" width="124" height="124">
<rect x="492.659" y="47" width="96" height="96" transform="rotate(69.059 492.659 47)" fill="#D9D9D9"/>
</mask>
<g mask="url(#mask0_115_2)">
<path d="M420.479 104.602L429.819 101.028L441.953 109.233L455.401 104.087L432.01 78.7752L443.217 74.4863L475.575 96.3668L492.012 90.0764C494.067 89.2901 496.106 89.3486 498.129 90.2519C500.152 91.1551 501.557 92.6341 502.343 94.6888C503.129 96.7435 503.071 98.7824 502.168 100.805C501.264 102.829 499.785 104.233 497.731 105.02L481.293 111.31L471.81 149.202L460.602 153.491L461.12 119.03L447.671 124.177L444.115 138.386L434.775 141.96L433.231 121.137L420.479 104.602Z" fill="#CBD5E1"/>
</g>
<path d="M32.1945 351.287C32.1945 351.287 353.194 48.287 950.695 9.28711" stroke="#CBD5E1" stroke-width="12" stroke-dasharray="40 40"/>
</svg>
