<?xml version="1.0" encoding="UTF-8"?>
<svg id="Layer_2" data-name="Layer 2" xmlns="http://www.w3.org/2000/svg" viewBox="0 0 200.1 221">
  <defs>
    <style>
      .cls-1, .cls-2 {
        fill: none;
        stroke: #ef8354;
        stroke-miterlimit: 10;
        stroke-width: 7px;
      }

      .cls-2 {
        stroke-linecap: round;
      }
    </style>
  </defs>
  <g id="Layer_1-2" data-name="Layer 1">
    <g id="Layer_2-2" data-name="Layer 2">
      <g>
        <polyline class="cls-2" points="100.2 187.8 100.2 85.2 81.1 66.1"/>
        <line class="cls-1" x1="118" y1="66.1" x2="100.2" y2="85.2"/>
        <polyline class="cls-1" points="123.4 90.1 101.4 108.2 123.4 125.4"/>
        <line class="cls-1" x1="100.2" y1="119.2" x2="65.4" y2="88.1"/>
        <path class="cls-1" d="M92.8,39.5c.8-2.4,2.7-6.6,7.4-11.2,4.4,4.4,6.2,8.7,7,11.2.8,2.4,1.6,5,.9,8.2-.1.5-1.7,7.5-6.5,8.2-3.5.5-6.4-2.8-7-3.5-2.9-3.4-2.7-7.6-2.6-8.8,0-1.1.3-2.3.9-4.1h-.1Z"/>
        <path class="cls-1" d="M64.5,114.9c-1.8.7-5.2,1.7-10.2,1.2.4-4.7,2.1-7.9,3.1-9.6,1-1.6,2.2-3.4,4.4-4.6.3-.2,5.2-2.7,8-.2,2,1.8,1.5,5.1,1.4,5.9-.6,3.4-3.2,5.3-3.9,5.9-.7.5-1.5,1-2.8,1.5h0v-.1Z"/>
        <path class="cls-1" d="M123.9,48.1c2.1-1.4,6.1-3.6,12-4.5.1,5.8-1.5,10.1-2.5,12.4-1,2.2-2.2,4.7-4.7,6.8-.4.3-5.9,4.8-9.5,2.8-2.7-1.5-2.4-5.7-2.4-6.6.2-4.2,3.1-7.4,3.9-8.2.7-.8,1.7-1.7,3.2-2.7h0Z"/>
        <path class="cls-1" d="M74.8,49.3c-2.1-1.4-6.1-3.6-12-4.5-.1,5.8,1.5,10.1,2.5,12.4,1,2.2,2.2,4.7,4.7,6.8.4.3,5.9,4.8,9.5,2.8,2.7-1.6,2.4-5.7,2.4-6.6-.2-4.2-3.1-7.4-3.9-8.2-.7-.8-1.7-1.7-3.2-2.7h0Z"/>
        <path class="cls-1" d="M130.8,77.9c1.8-.8,5.2-2,9.9-1.9-.6,4.5-2.5,7.7-3.6,9.3-1.1,1.6-2.3,3.4-4.5,4.7-.3.2-5.2,3-7.8.9-1.9-1.6-1.2-4.7-1-5.4.7-3.2,3.4-5.3,4.1-5.9.7-.5,1.5-1.1,2.9-1.7h0Z"/>
        <path class="cls-1" d="M58.5,74.4c-1.8-.8-5.2-2-9.9-1.9.7,4.5,2.5,7.7,3.6,9.3,1.1,1.6,2.3,3.4,4.5,4.7.3.2,5.2,3,7.8.9,1.9-1.6,1.2-4.7,1-5.4-.7-3.2-3.4-5.3-4.1-5.9-.7-.5-1.5-1.1-2.8-1.7h-.1Z"/>
        <path class="cls-1" d="M134.8,129.3c.8,1.4,2,4.1,2.3,8-3.7-.2-6.5-1.5-7.9-2.3-1.4-.8-2.9-1.6-4.2-3.4-.2-.3-2.8-4.1-1.3-6.3,1.1-1.6,3.8-1.3,4.4-1.2,2.7.4,4.6,2.4,5.1,2.9s1,1.2,1.6,2.2h0v.1Z"/>
        <circle class="cls-1" cx="76.9" cy="27.8" r="6.1"/>
        <circle class="cls-1" cx="78.4" cy="133" r="6.1"/>
        <circle class="cls-1" cx="148.5" cy="103.7" r="6.1"/>
        <path class="cls-2" d="M87.6,158.5c-37.1-6-65.5-38.2-65.5-77C22.1,38.4,57,3.5,100.1,3.5s78,34.9,78,78-28.9,71.7-66.6,77.2"/>
        <path class="cls-2" d="M196.6,204.3c0,1.5-.6,2.9-1.6,3.9s-2.4,1.6-3.9,1.6h-74.8c0,4.2-7.2,7.7-16.1,7.7s-16.1-3.4-16.1-7.7H9.1c-3.1,0-5.6-2.5-5.6-5.6s.6-2.9,1.6-3.9,2.4-1.6,3.9-1.6h181.9c3.3.6,5.6,3.1,5.6,5.6h.1Z"/>
        <path class="cls-2" d="M112.4,198.2c.5-2.3,2.4-3.7,4.2-4.7,8.3-4.6,17.6-6.1,26.7-7,10.1-1.1,20.3-1.5,30.4-1.2,4.3.1,8.5.3,12.8.5"/>
        <path class="cls-2" d="M125.9,188.6c4.5-10.3,16.8-12.3,25.5-13.6,9.3-1.4,18.7-2.5,28.1-3.3"/>
        <path class="cls-2" d="M100.2,198.3c.7-3,3.8-6.1,5.6-8.4,2.4-2.9,5-5.5,7.7-7.9,5.5-4.9,11.7-8.9,18.1-12.1,12.4-6.2,25.7-9.6,38.9-12.5"/>
        <path class="cls-2" d="M88.1,198.2c-.5-2.3-2.4-3.7-4.2-4.7-8.3-4.6-17.7-6.1-26.7-7-10.1-1.1-20.3-1.5-30.4-1.2-4.3.1-8.5.3-12.8.5"/>
        <path class="cls-2" d="M74.6,188.6c-4.5-10.3-16.8-12.3-25.5-13.6-9.3-1.4-18.7-2.5-28.1-3.3"/>
        <path class="cls-2" d="M100.3,198.3c-.7-3-3.8-6.1-5.6-8.4-2.4-2.9-5-5.5-7.7-7.9-5.5-4.9-11.7-8.9-18.1-12.1-12.4-6.2-25.7-9.6-39-12.5"/>
      </g>
    </g>
  </g>
</svg>