<?xml version="1.0" encoding="UTF-8"?>
<svg id="Layer_2" data-name="Layer 2" xmlns="http://www.w3.org/2000/svg" viewBox="0 0 732 285.11">
  <defs>
    <style>
      .cls-1 {
        fill: #fff;
      }
    </style>
  </defs>
  <g id="Layer_1-2" data-name="Layer 1">
    <g id="Layer_2-2" data-name="Layer 2">
      <g id="Layer_1-2" data-name="Layer 1-2">
        <path class="cls-1" d="M14.2,215.7c7.45,1.63,10.9,4.34,10.9,9.5,0,5.79-4.78,9.52-11.39,9.52-5.09.07-10.01-1.85-13.71-5.36l2.34-2.76c3.03,3.06,7.16,4.77,11.47,4.73,4.51,0,7.47-2.34,7.47-5.74,0-3.16-1.63-4.88-8.71-6.41-7.69-1.63-11.24-4.15-11.24-9.76s4.64-9.19,11-9.19c4.29-.12,8.48,1.35,11.76,4.12l-2.2,2.91c-2.68-2.34-6.11-3.63-9.66-3.63-4.34,0-7.12,2.39-7.12,5.45s1.72,5,9.09,6.51"/>
        <rect class="cls-1" x="35.28" y="200.78" width="3.77" height="33.46"/>
        <polygon class="cls-1" points="75.62 200.78 79.3 200.78 79.3 234.24 76.29 234.24 54.67 206.8 54.67 234.24 51 234.24 51 200.78 54.54 200.78 75.62 227.6 75.62 200.78"/>
        <path class="cls-1" d="M106,234.81c-10.51,0-17-7.64-17-17.26s6.75-17.34,16.78-17.34c4.58-.19,9.05,1.4,12.48,4.44l-2.49,2.89c-2.76-2.57-6.41-3.95-10.18-3.83-7.4,0-12.72,6.27-12.72,13.77,0,8,5.12,14,13.24,14,3.5-.01,6.9-1.19,9.66-3.35v-8.31h-10.18v-3.42h13.81v13.34c-3.71,3.25-8.47,5.05-13.4,5.06"/>
        <path class="cls-1" d="M143.44,204.96l-7.65,17.07h15.21l-7.56-17.07ZM160.5,234.24h-4.05l-3.92-8.85h-18.22l-4,8.85h-3.87l15.28-33.7h3.54l15.24,33.7Z"/>
        <path class="cls-1" d="M180.77,204.26h-8.46v14.73h8.25c5.55,0,9.19-3,9.19-7.41,0-4.88-3.59-7.32-9-7.32M180.42,222.43h-8.12v11.81h-3.78v-33.46h12.53c7.55,0,12.52,4,12.52,10.66,0,7.27-6,11-13.14,11"/>
        <path class="cls-1" d="M218,203.69c-7.64,0-13.09,6.12-13.09,13.77s5.55,13.87,13.19,13.87,13-6.11,13-13.78-5.54-13.86-13.19-13.86M217.91,234.81c-9.56.12-17.41-7.53-17.53-17.09-.12-9.56,7.53-17.41,17.09-17.53,9.56-.12,17.41,7.53,17.53,17.09v.03s0,.15,0,.15c.31,9.27-6.96,17.04-16.23,17.35,0,0,0,0,0,0h-.76"/>
        <path class="cls-1" d="M258.54,204.26h-10.33v13.59h10.28c5,0,8.61-2.59,8.61-6.93s-3.16-6.66-8.56-6.66M267.47,234.26l-9.76-13h-9.56v13h-3.78v-33.48h14.4c7.35,0,12.09,4,12.09,10,0,5.6-3.83,8.85-9.08,9.76l10.22,13.65-4.53.07Z"/>
        <polygon class="cls-1" points="305.34 204.21 284.93 204.21 284.93 215.65 303.18 215.65 303.18 219.08 284.93 219.08 284.93 230.79 305.57 230.79 305.57 234.24 281.15 234.24 281.15 200.78 305.34 200.78 305.34 204.21"/>
        <path class="cls-1" d="M363.49,219.94c0,9.76-5.59,14.82-13.95,14.82s-13.93-5.06-13.93-14.52v-19.52h3.79v19.21c0,7.22,3.83,11.29,10.24,11.29s10.08-3.73,10.08-11.05v-19.52h3.77v19.29Z"/>
        <polygon class="cls-1" points="399.2 200.78 402.88 200.78 402.88 234.24 399.87 234.24 378.25 206.8 378.25 234.24 374.57 234.24 374.57 200.78 378.12 200.78 399.2 227.6 399.2 200.78"/>
        <rect class="cls-1" x="414.82" y="200.78" width="3.77" height="33.46"/>
        <polygon class="cls-1" points="455.03 200.78 459.08 200.78 444.7 234.48 441.35 234.48 426.97 200.78 431.16 200.78 443.07 229.6 455.03 200.78"/>
        <polygon class="cls-1" points="491.3 204.21 470.89 204.21 470.89 215.65 489.15 215.65 489.15 219.08 470.89 219.08 470.89 230.79 491.55 230.79 491.55 234.24 467.11 234.24 467.11 200.78 491.3 200.78 491.3 204.21"/>
        <path class="cls-1" d="M515.39,204.26h-10.33v13.59h10.28c5,0,8.61-2.59,8.61-6.93s-3.16-6.66-8.56-6.66M524.32,234.26l-9.76-13h-9.56v13h-3.78v-33.48h14.43c7.36,0,12.09,4,12.09,10,0,5.6-3.82,8.85-9.08,9.76l10.27,13.66-4.61.06Z"/>
        <path class="cls-1" d="M550,215.7c7.47,1.63,10.9,4.34,10.9,9.5,0,5.79-4.78,9.52-11.39,9.52-5.08.06-9.99-1.86-13.68-5.36l2.35-2.76c3.03,3.06,7.17,4.76,11.48,4.73,4.49,0,7.45-2.34,7.45-5.74,0-3.16-1.63-4.88-8.7-6.41-7.7-1.63-11.23-4.15-11.23-9.76s4.64-9.19,11-9.19c4.29-.12,8.48,1.35,11.76,4.12l-2.21,2.91c-2.68-2.33-6.1-3.62-9.65-3.63-4.36,0-7.12,2.39-7.12,5.45s1.72,5,9.07,6.51"/>
        <rect class="cls-1" x="571.07" y="200.78" width="3.77" height="33.46"/>
        <polygon class="cls-1" points="598.74 234.24 594.92 234.24 594.92 204.26 583.7 204.26 583.7 200.78 609.98 200.78 609.98 204.26 598.74 204.26 598.74 234.24"/>
        <polygon class="cls-1" points="632.3 234.24 628.48 234.24 628.48 221 614.57 200.78 619.16 200.78 630.43 217.5 641.82 200.78 646.21 200.78 632.3 220.95 632.3 234.24"/>
        <path class="cls-1" d="M681.43,203.69c-7.65,0-13.11,6.12-13.11,13.77s5.54,13.87,13.2,13.87,13-6.11,13-13.78-5.55-13.86-13.19-13.86M681.33,234.81c-9.56.11-17.4-7.55-17.51-17.11s7.55-17.4,17.11-17.51c9.56-.11,17.4,7.55,17.51,17.11,0,0,0,0,0,0v.15c.31,9.27-6.96,17.04-16.23,17.35,0,0,0,0,0,0h-.87"/>
        <polygon class="cls-1" points="732 204.26 711.73 204.26 711.73 216.22 729.85 216.22 729.85 219.66 711.73 219.66 711.73 234.24 707.94 234.24 707.94 200.78 732 200.78 732 204.26"/>
        <polygon class="cls-1" points="15.06 284.44 11.24 284.44 11.24 254.46 0 254.46 0 250.98 26.29 250.98 26.29 254.46 15.06 254.46 15.06 284.44"/>
        <polygon class="cls-1" points="59.94 254.41 39.54 254.41 39.54 265.85 57.8 265.85 57.8 269.28 39.54 269.28 39.54 280.99 60.19 280.99 60.19 284.44 35.75 284.44 35.75 250.98 59.94 250.98 59.94 254.41"/>
        <path class="cls-1" d="M86.21,285.01c-9.55-.37-16.99-8.42-16.62-17.97.37-9.55,8.42-16.99,17.97-16.62,4.47.18,8.7,2.08,11.8,5.3l-2.57,2.76c-2.74-2.9-6.53-4.55-10.52-4.59-7.42,0-13,6-13,13.77s5.56,13.88,13,13.88c4.59,0,7.59-1.77,10.8-4.88l2.49,2.44c-3.37,3.83-8.26,5.99-13.36,5.92"/>
        <polygon class="cls-1" points="113.54 269.38 113.54 284.44 109.77 284.44 109.77 250.98 113.54 250.98 113.54 265.85 132.87 265.85 132.87 250.98 136.64 250.98 136.64 284.44 132.87 284.44 132.87 269.38 113.54 269.38"/>
        <polygon class="cls-1" points="174.78 250.98 178.48 250.98 178.48 284.44 175.45 284.44 153.85 257 153.85 284.44 150.17 284.44 150.17 250.98 153.7 250.98 174.78 277.8 174.78 250.98"/>
        <path class="cls-1" d="M206.1,253.89c-7.65,0-13,6.12-13,13.77s5.53,13.88,13.18,13.88,13-6.13,13-13.78-5.53-13.86-13.19-13.86M206.09,285.02c-9.56.1-17.39-7.56-17.5-17.12s7.56-17.39,17.12-17.5,17.39,7.56,17.5,17.12c0,0,0,.01,0,.02v.15c.29,9.25-6.96,17-16.21,17.32h-.87"/>
        <polygon class="cls-1" points="233.83 250.98 237.61 250.98 237.61 280.94 256.44 280.94 256.44 284.44 233.83 284.44 233.83 250.98"/>
        <path class="cls-1" d="M278.24,253.89c-7.64,0-13.09,6.12-13.09,13.77s5.54,13.88,13.19,13.88,13.11-6.13,13.11-13.78c.3-7.35-5.42-13.55-12.77-13.85,0,0,0,0,0,0h-.44M278.24,285.03c-9.56.11-17.4-7.55-17.51-17.11s7.55-17.4,17.11-17.51,17.4,7.55,17.51,17.11c0,0,0,.01,0,.02v.15c.31,9.27-6.96,17.04-16.23,17.35h-.88"/>
        <path class="cls-1" d="M321.28,285.01c-10.52,0-17-7.64-17-17.26s6.75-17.34,16.79-17.34c4.58-.2,9.06,1.39,12.48,4.44l-2.44,2.87c-2.76-2.57-6.42-3.95-10.19-3.83-7.4,0-12.72,6.27-12.72,13.77,0,8,5.13,14,13.24,14,3.5-.02,6.9-1.2,9.67-3.35v-8.25h-10.22v-3.4h13.81v13.34c-3.7,3.28-8.47,5.1-13.42,5.11"/>
        <polygon class="cls-1" points="358.47 284.44 354.65 284.44 354.65 271.2 340.74 250.98 345.32 250.98 356.61 267.7 367.99 250.98 372.38 250.98 358.47 271.15 358.47 284.44"/>
        <path class="cls-1" d="M409.92,255.13l-7.65,17.08h15.25l-7.6-17.08ZM427,284.41h-4.05l-3.95-8.87h-18.19l-3.9,8.88h-3.91l15.25-33.7h3.55l15.2,33.69Z"/>
        <polygon class="cls-1" points="460.85 250.98 464.53 250.98 464.53 284.44 461.52 284.44 439.92 257 439.92 284.44 436.24 284.44 436.24 250.98 439.77 250.98 460.85 277.8 460.85 250.98"/>
        <path class="cls-1" d="M489.63,254.46h-7.84v26.48h7.84c8.46,0,13.86-5.72,13.86-13.19s-5.4-13.29-13.86-13.29M489.63,284.46h-11.63v-33.48h11.63c10.5,0,17.78,7.22,17.78,16.68s-7.21,16.78-17.78,16.78"/>
        <path class="cls-1" d="M547.37,254.46h-7.84v26.48h7.84c8.46,0,13.86-5.72,13.86-13.19s-5.4-13.29-13.86-13.29M547.37,284.46h-11.63v-33.48h11.63c10.51,0,17.78,7.22,17.78,16.68s-7.15,16.78-17.78,16.78"/>
        <polygon class="cls-1" points="600.43 254.41 580.02 254.41 580.02 265.85 598.29 265.85 598.29 269.28 580.02 269.28 580.02 280.99 600.66 280.99 600.66 284.44 576.25 284.44 576.25 250.98 600.43 250.98 600.43 254.41"/>
        <path class="cls-1" d="M623.37,265.9c7.47,1.62,10.92,4.34,10.92,9.5,0,5.79-4.79,9.51-11.39,9.51-5.08.06-9.98-1.86-13.66-5.37l2.34-2.76c3.02,3.07,7.16,4.79,11.47,4.76,4.49,0,7.45-2.34,7.45-5.74,0-3.16-1.63-4.88-8.69-6.41-7.71-1.63-11.24-4.15-11.24-9.76s4.64-9.19,11-9.19c4.29-.12,8.47,1.34,11.76,4.1l-2.18,3c-2.68-2.33-6.12-3.62-9.67-3.63-4.34,0-7.12,2.39-7.12,5.45s1.72,5,9.08,6.51"/>
        <rect class="cls-1" x="646.39" y="250.98" width="3.77" height="33.46"/>
        <path class="cls-1" d="M677.64,285.01c-10.51,0-17-7.64-17-17.26s6.75-17.34,16.79-17.34c4.58-.2,9.06,1.39,12.48,4.44l-2.44,2.87c-2.76-2.57-6.42-3.95-10.19-3.83-7.41,0-12.72,6.27-12.72,13.77,0,8,5.13,14,13.24,14,3.5-.02,6.9-1.2,9.67-3.35v-8.25h-10.21v-3.4h13.81v13.34c-3.7,3.28-8.48,5.1-13.43,5.11"/>
        <polygon class="cls-1" points="728.27 250.98 731.95 250.98 731.95 284.44 728.94 284.44 707.34 257 707.34 284.44 703.65 284.44 703.65 250.98 707.19 250.98 728.27 277.8 728.27 250.98"/>
        <rect class="cls-1" y="112.94" width="129.66" height="16.74"/>
        <rect class="cls-1" x="37.64" y="37.64" width="129.66" height="16.74"/>
        <polygon class="cls-1" points="167.32 167.32 0 167.32 0 150.58 150.58 150.58 150.58 92.02 0 92.02 0 0 167.32 0 167.32 16.74 16.74 16.74 16.74 75.3 167.32 75.3 167.32 167.32"/>
        <rect class="cls-1" x="263.52" width="16.74" height="92.02"/>
        <polygon class="cls-1" points="355.54 167.32 188.24 167.32 188.24 0 204.96 0 204.96 150.58 338.82 150.58 338.82 0 355.54 0 355.54 167.32"/>
        <polygon class="cls-1" points="317.9 129.68 225.88 129.68 225.88 0 242.62 0 242.62 112.94 301.18 112.94 301.18 0 317.9 0 317.9 129.68"/>
        <rect class="cls-1" x="564.68" y="75.3" width="92.02" height="16.74"/>
        <polygon class="cls-1" points="732 167.32 564.68 167.32 564.68 150.58 715.26 150.58 715.26 16.74 564.68 16.74 564.68 0 732 0 732 167.32"/>
        <polygon class="cls-1" points="694.36 129.68 564.68 129.68 564.68 112.94 677.62 112.94 677.62 54.38 564.68 54.38 564.68 37.64 694.36 37.64 694.36 129.68"/>
        <polygon class="cls-1" points="376.46 0 376.46 16.74 451.76 16.74 451.76 167.32 468.48 167.32 468.48 16.74 543.78 16.74 543.78 0 376.46 0"/>
        <polygon class="cls-1" points="489.4 167.32 506.12 167.32 506.12 54.38 543.78 54.38 543.78 37.64 489.4 37.64 489.4 167.32"/>
        <rect class="cls-1" x="527.04" y="75.3" width="16.74" height="92.02"/>
        <rect class="cls-1" x="376.46" y="75.3" width="16.74" height="92.02"/>
        <polygon class="cls-1" points="376.46 54.38 414.1 54.38 414.1 167.32 430.84 167.32 430.84 37.64 376.46 37.64 376.46 54.38"/>
      </g>
    </g>
  </g>
</svg>